<?xml version="1.0" standalone="no"?>
<!DOCTYPE svg PUBLIC "-//W3C//DTD SVG 1.1//EN" "http://www.w3.org/Graphics/SVG/1.1/DTD/svg11.dtd" >
<svg xmlns="http://www.w3.org/2000/svg" xmlns:xlink="http://www.w3.org/1999/xlink" version="1.1">
<metadata>
Created by FontForge 20170731 at Wed Sep 16 13:25:11 2009
 By Aleksey,,,
Copyright (c) Phanlop Thongsuk, 1995-2009. All rights reserved.
</metadata>
<defs>
<font id="PSLChamnarnPro" horiz-adv-x="0" >
  <font-face 
    font-family="PSL Chamnarn Pro ()"
    font-weight="400"
    font-stretch="normal"
    units-per-em="2048"
    panose-1="2 0 5 6 0 0 0 2 0 4"
    ascent="1638"
    descent="-410"
    x-height="698"
    cap-height="997"
    bbox="-1077 -823 1823 1599"
    underline-thickness="72"
    underline-position="-267"
    unicode-range="U+0020-F880"
  />
<missing-glyph horiz-adv-x="1599" 
d="M100 1599h1399v-1599h-1399v1599zM1401 1499h-1200v-1399h1200v1399z" />
    <glyph glyph-name="saraueesp1" unicode="&#xe37;&#xe48;" 
d="M-307 1518h129v-226h-129v226zM-821 932q0 55 23 99t65 74t101 46t132 16q29 0 56.5 -1.5t50.5 -6.5v72h108v-105q17 -8 33.5 -16.5t30.5 -17.5v139h129v-299h-729zM-250 1004q-57 94 -235 94q-35 0 -66 -7t-55.5 -19.5t-40 -29.5t-19.5 -38h416z" />
    <glyph glyph-name=".notdef" horiz-adv-x="1599" 
d="M100 1599h1399v-1599h-1399v1599zM1401 1499h-1200v-1399h1200v1399z" />
    <glyph glyph-name=".null" 
 />
    <glyph glyph-name="nonmarkingreturn" horiz-adv-x="573" 
 />
    <glyph glyph-name="space" unicode=" " horiz-adv-x="573" 
 />
    <glyph glyph-name="space" unicode="&#xa0;" horiz-adv-x="573" 
 />
    <glyph glyph-name="exclam" unicode="!" horiz-adv-x="379" 
d="M141 270l-20 727h143l-20 -727h-103zM123 152h139v-152h-139v152z" />
    <glyph glyph-name="quotedbl" unicode="&#x22;" horiz-adv-x="514" 
d="M338 672l-39 170v155h145v-155l-38 -170h-68zM106 672l-38 170v155h145v-155l-39 -170h-68z" />
    <glyph glyph-name="numbersign" unicode="#" horiz-adv-x="856" 
d="M604 393h141v-102h-159l-51 -291h-119l51 291h-148l-51 -291h-118l51 291h-133v102h149l43 238h-143v102h162l45 264h122l-47 -264h146l45 264h123l-47 -264h125v-102h-144zM338 393h145l43 238h-145z" />
    <glyph glyph-name="dollar" unicode="$" horiz-adv-x="938" 
d="M899 281q0 -170 -102 -234q-79 -49 -271 -55v-115h-108v115q-108 2 -179.5 18t-111.5 45q-97 70 -82 271h131q0 -154 51 -191q34 -27 191 -24v342q-192 4 -275 51q-98 59 -98 217q0 166 107 231q42 25 107 38.5t159 15.5v114h108v-116q199 -4 275 -62q87 -66 78 -231
h-134q0 120 -36 147q-37 28 -183 31v-322q193 -4 269 -47q104 -65 104 -239zM418 889q-72 -2 -119 -9.5t-70 -23.5q-47 -29 -47 -135q0 -98 70 -131q43 -18 166 -21v320zM766 281q0 106 -57 141q-47 28 -183 31v-342q66 2 109.5 8t66.5 20q64 34 64 142z" />
    <glyph glyph-name="percent" unicode="%" horiz-adv-x="1245" 
d="M1192 188q0 -124 -53 -163q-23 -17 -67.5 -25t-110.5 -8q-134 0 -173 33q-51 39 -51 161v125q0 125 51 164q42 33 173 33q66 0 110.5 -8t67.5 -25q53 -41 53 -162v-125zM221 -8l682 1005h119l-686 -1005h-115zM506 686q0 -122 -53 -164q-47 -33 -179 -33t-172 33
q-51 40 -51 162v125q0 123 51 164q43 33 172 33q132 0 179 -33q53 -42 53 -162v-125zM1092 311q0 42 -7.5 66t-21.5 35q-20 14 -102 14q-39 0 -63.5 -3t-37.5 -15t-17.5 -35t-4.5 -62v-116q0 -83 20 -103q21 -18 103 -18t106 18q25 19 25 103v116zM406 809q0 77 -29 100
q-11 8 -36 11.5t-67 3.5q-39 0 -63 -3.5t-37 -15t-17.5 -34.5t-4.5 -62v-117q0 -82 20 -102q22 -19 102 -19q82 0 107 19t25 102v117z" />
    <glyph glyph-name="ampersand" unicode="&#x26;" horiz-adv-x="1069" 
d="M850 111q-74 -119 -365 -119q-220 0 -297 47q-102 61 -102 262q0 72 9.5 123t29.5 80q40 57 156 74q-84 73 -84 206q0 222 303 222q151 0 219 -41q86 -53 86 -195v-92h-131v86q0 81 -45 108q-34 19 -119 19q-176 0 -176 -111q0 -89 35 -116l399 -330q2 11 2 30.5v45.5v41
h125v-99q0 -65 -6 -116l180 -148l-74 -96zM373 502q-97 -15 -127 -51q-29 -38 -29 -152q0 -126 49 -160q44 -28 213 -28q66 0 112.5 3t72.5 11q61 16 84 70z" />
    <glyph glyph-name="quotesingle" unicode="'" horiz-adv-x="274" 
d="M104 672l-38 170v155h145v-155l-39 -170h-68z" />
    <glyph glyph-name="parenleft" unicode="(" horiz-adv-x="414" 
d="M328 -199q-66 0 -113.5 19t-73.5 57q-24 35 -36.5 91t-12.5 134v598q0 78 12 135.5t39.5 95.5t72.5 56.5t112 18.5h43v-97h-37q-109 0 -109 -176v-659q0 -176 109 -176h37v-97h-43v0z" />
    <glyph glyph-name="parenright" unicode=")" horiz-adv-x="414" 
d="M322 102q0 -154 -50 -225q-52 -76 -186 -76h-43v97h37q108 0 108 176v659q0 176 -108 176h-37v97h43q67 0 112 -18.5t72.5 -56.5t39.5 -95.5t12 -135.5v-598v0z" />
    <glyph glyph-name="asterisk" unicode="*" horiz-adv-x="745" 
d="M588 543l-94 -64l-119 178l-125 -176l-96 62l139 164l-211 67l39 109l209 -86l-13 211h113l-10 -211l211 86l37 -111l-215 -65z" />
    <glyph glyph-name="plus" unicode="+" horiz-adv-x="942" 
d="M522 0h-102v358h-359v103h359v358h102v-358h359v-103h-359v-358z" />
    <glyph glyph-name="comma" unicode="," horiz-adv-x="348" 
d="M272 59q0 -25 -9 -50.5t-24 -48.5t-34.5 -42t-40.5 -31h-82q70 40 98 103h-6q-92 0 -92 82q0 35 25 58.5t67 23.5q43 0 70.5 -26.5t27.5 -68.5z" />
    <glyph glyph-name="hyphen" unicode="-" horiz-adv-x="471" 
d="M61 393h349v-82h-349v82z" />
    <glyph glyph-name="period" unicode="." horiz-adv-x="348" 
d="M266 72q0 -35 -25 -58.5t-67 -23.5t-67 23.5t-25 58.5t25 58.5t67 23.5t67 -23.5t25 -58.5z" />
    <glyph glyph-name="slash" unicode="/" horiz-adv-x="975" 
d="M29 -150l782 1147h133l-784 -1147h-131z" />
    <glyph glyph-name="zero" unicode="0" horiz-adv-x="942" 
d="M862 225q0 -106 -69.5 -165.5t-206.5 -59.5h-234q-131 0 -200.5 59.5t-69.5 165.5v549q0 106 69.5 165.5t200.5 59.5h234q137 0 206.5 -59.5t69.5 -165.5v-549zM719 750q0 149 -164 149h-168q-164 0 -164 -149v-500q0 -150 164 -150h168q164 0 164 150v500z" />
    <glyph glyph-name="one" unicode="1" horiz-adv-x="942" 
d="M467 866l-238 -135l-55 103l289 165h147v-999h-143v866z" />
    <glyph glyph-name="two" unicode="2" horiz-adv-x="942" 
d="M82 197q0 211 342 307q81 23 133.5 41.5t77.5 34.5q84 52 84 155q0 164 -184 164h-138q-174 0 -174 -137v-37h-141v49q0 111 70.5 168t199.5 57h238q152 0 217 -71q55 -61 55 -189q0 -141 -86 -215q-58 -52 -196 -90q-198 -53 -252 -86q-105 -59 -105 -176v-59h639v-113
h-780v197z" />
    <glyph glyph-name="three" unicode="3" horiz-adv-x="942" 
d="M852 225q0 -225 -248 -225h-262q-270 0 -270 225v49h141v-36q0 -138 172 -138h154q170 0 170 138v116q0 121 -148 121h-129v100h129q148 0 148 119v68q0 137 -170 137h-154q-172 0 -172 -137v-25h-141v37q0 225 270 225h262q248 0 248 -225v-102q0 -120 -133 -148
q133 -27 133 -147v-152v0z" />
    <glyph glyph-name="four" unicode="4" horiz-adv-x="942" 
d="M784 0h-141v174h-608v100l524 725h119q106 0 106 -116v-609h103v-100h-103v-174zM625 911l-455 -637h473v637h-18z" />
    <glyph glyph-name="five" unicode="5" horiz-adv-x="942" 
d="M858 213q0 -213 -252 -213h-270q-250 0 -250 213v61h141v-49q0 -71 41 -100q35 -25 123 -25h160q87 0 124.5 26.5t37.5 98.5v205q0 119 -135 119h-181q-104 0 -139 -80h-172v530h735v-100h-594v-340q37 90 170 90h250q211 0 211 -190v-246v0z" />
    <glyph glyph-name="six" unicode="6" horiz-adv-x="942" 
d="M862 213q0 -213 -250 -213h-280q-250 0 -250 213v567q0 219 250 219h280q250 0 250 -213v-49h-143v37q0 37 -9 61t-29 38t-51 20t-75 6h-168q-164 0 -164 -131v-225q40 82 168 82h262q209 0 209 -191v-221zM719 399q0 36 -9 60.5t-29 38.5t-51 20t-75 6h-168
q-164 0 -164 -149v-150q0 -71 41 -100q35 -25 123 -25h168q44 0 75 6t51 20.5t29 38.5t9 60v174z" />
    <glyph glyph-name="seven" unicode="7" horiz-adv-x="942" 
d="M406 0l311 899h-373q-141 0 -141 -125v-37h-142v49q0 213 224 213h577v-116l-305 -883h-151z" />
    <glyph glyph-name="eight" unicode="8" horiz-adv-x="942" 
d="M862 213q0 -213 -250 -213h-280q-250 0 -250 213v147q0 136 121 172q-97 34 -97 158v96q0 213 248 213h236q248 0 248 -213v-96q0 -124 -97 -158q121 -39 121 -172v-147zM696 774q0 36 -9.5 60t-29.5 38.5t-51.5 20.5t-75.5 6h-118q-92 0 -123 -25q-41 -27 -41 -100v-74
q0 -73 41 -100q34 -25 123 -25h118q44 0 75.5 6t51.5 20.5t29.5 38.5t9.5 60v74zM719 340q0 135 -168 135h-160q-168 0 -168 -135v-115q0 -71 41 -100q35 -25 123 -25h168q44 0 75 6t51 20.5t29 38.5t9 60v115z" />
    <glyph glyph-name="nine" unicode="9" horiz-adv-x="942" 
d="M862 219q0 -219 -250 -219h-280q-250 0 -250 213v49h141v-37q0 -71 41 -100q35 -25 123 -25h168q86 0 125 28.5t39 102.5v226q-40 -82 -168 -82h-260q-209 0 -209 190v221q0 213 250 213h280q250 0 250 -213v-567zM719 774q0 37 -9 61t-29 38t-51 20t-75 6h-168
q-89 0 -123 -25q-41 -29 -41 -100v-174q0 -71 41 -100q34 -25 123 -25h168q164 0 164 150v149z" />
    <glyph glyph-name="colon" unicode=":" horiz-adv-x="348" 
d="M266 614q0 -35 -25 -58.5t-67 -23.5t-67 23.5t-25 58.5q0 36 25 59t67 23t67 -23t25 -59zM266 72q0 -35 -25 -58.5t-67 -23.5t-67 23.5t-25 58.5t25 58.5t67 23.5t67 -23.5t25 -58.5z" />
    <glyph glyph-name="semicolon" unicode=";" horiz-adv-x="348" 
d="M266 614q0 -35 -25 -58.5t-67 -23.5t-67 23.5t-25 58.5q0 36 25 59t67 23t67 -23t25 -59zM272 59q0 -25 -9 -50.5t-24 -48.5t-34.5 -42t-40.5 -31h-82q70 40 98 103h-6q-92 0 -92 82q0 35 25 58.5t67 23.5q43 0 70.5 -26.5t27.5 -68.5z" />
    <glyph glyph-name="less" unicode="&#x3c;" horiz-adv-x="942" 
d="M82 463l778 332v-125l-616 -260l616 -258v-125l-778 331v105z" />
    <glyph glyph-name="equal" unicode="=" horiz-adv-x="942" 
d="M61 584h820v-103h-820v103zM61 338h820v-102h-820v102z" />
    <glyph glyph-name="greater" unicode="&#x3e;" horiz-adv-x="942" 
d="M82 152l616 258l-616 260v125l778 -332v-105l-778 -331v125z" />
    <glyph glyph-name="question" unicode="?" horiz-adv-x="989" 
d="M893 739q0 -112 -66 -172q-39 -36 -141 -75q-32 -12 -53.5 -24.5t-35 -29t-19 -39.5t-5.5 -57v-66h-149v99q0 78 39 123q17 20 48.5 37t76.5 32q90 34 117 56q20 17 29 45.5t9 66.5q0 164 -194 164h-121q-182 0 -182 -137v-76h-150v88q0 55 19.5 97t56.5 70.5t89.5 43
t117.5 14.5h225q82 0 139 -18t93 -53q57 -62 57 -189zM606 82q0 -19 -8 -36t-22.5 -30t-34 -20.5t-43.5 -7.5t-44 7.5t-34.5 20.5t-22.5 30t-8 36q0 42 30.5 69t78.5 27q49 0 78.5 -27t29.5 -69z" />
    <glyph glyph-name="at" unicode="@" horiz-adv-x="1214" 
d="M1143 608q0 -167 -88 -276q-95 -119 -240 -119q-91 0 -131 72q-55 -70 -152 -70q-45 0 -82 14.5t-63 42t-40.5 68t-14.5 92.5q0 127 90 232q88 106 215 106q65 0 102 -31q33 -22 39 -61l21 63h116l-118 -368q-4 -15 -4 -27v-2q0 -35 45 -35q93 0 145 88q47 83 47 195
q0 145 -127 233q-60 42 -129.5 62t-150.5 20q-180 0 -306 -129q-124 -127 -124 -309q0 -170 120 -276q119 -107 291 -107q66 0 124.5 12.5t109.5 38.5l41 -100q-111 -55 -273 -55q-222 0 -373 131q-161 137 -161 360q0 229 159 385q164 158 394 158q207 0 356 -107
q162 -116 162 -301zM727 551q0 117 -96 117q-67 0 -123 -68q-55 -67 -55 -160q0 -131 104 -131q72 0 125 86q23 38 34 78t11 78z" />
    <glyph glyph-name="A" unicode="A" horiz-adv-x="926" 
d="M717 207h-506l-76 -207h-143l381 997h182l381 -997h-143zM252 319h422l-211 566z" />
    <glyph glyph-name="B" unicode="B" horiz-adv-x="954" 
d="M893 268q0 -156 -82 -217q-35 -26 -92 -38.5t-135 -12.5h-498v997h489q291 0 291 -249q0 -174 -118 -226q145 -45 145 -254zM729 731q0 150 -156 150h-354v-310h363q147 0 147 160zM762 289q0 164 -180 164h-363v-334h363q99 0 133 26q47 36 47 144z" />
    <glyph glyph-name="C" unicode="C" horiz-adv-x="920" 
d="M868 258q0 -62 -19.5 -111.5t-56 -84t-90 -52.5t-120.5 -18h-230q-286 0 -286 266v481q0 62 19.5 111.5t56 84t89.5 53t121 18.5h230q286 0 286 -267v-67h-133v71q0 30 -11 56t-30.5 45.5t-45.5 31t-56 11.5h-250q-30 0 -56 -11.5t-45.5 -31t-30.5 -45.5t-11 -56v-491
q0 -30 11 -56t30.5 -44.5t45.5 -29.5t56 -11h250q30 0 56 11t45.5 30.5t30.5 45.5t11 56v96h133v-92v0z" />
    <glyph glyph-name="D" unicode="D" horiz-adv-x="997" 
d="M934 344q0 -344 -338 -344h-510v997h510q338 0 338 -344v-309zM801 641q0 240 -226 240h-356v-762h356q226 0 226 239v283z" />
    <glyph glyph-name="E" unicode="E" horiz-adv-x="791" 
d="M86 997h662v-116h-529v-314h506v-112h-506v-336h529v-119h-662v997z" />
    <glyph glyph-name="F" unicode="F" horiz-adv-x="752" 
d="M219 557h477v-108h-477v-449h-133v997h633v-116h-500v-324z" />
    <glyph glyph-name="G" unicode="G" horiz-adv-x="961" 
d="M907 258q0 -62 -19.5 -111.5t-56 -84t-90 -52.5t-120.5 -18h-269q-286 0 -286 266v481q0 62 19.5 111.5t56 84t89.5 53t121 18.5h269q286 0 286 -267v-47h-133v51q0 30 -11 56t-30.5 45.5t-45.5 31t-56 11.5h-289q-30 0 -56 -11.5t-45.5 -31t-30.5 -45.5t-11 -56v-491
q0 -30 11 -56t30.5 -44.5t45.5 -29.5t56 -11h289q30 0 56 11t45.5 30.5t30.5 45.5t11 56v137h-313v119h446v-252v0z" />
    <glyph glyph-name="H" unicode="H" horiz-adv-x="995" 
d="M774 449h-555v-449h-133v997h133v-430h555v430h133v-997h-133v449z" />
    <glyph glyph-name="I" unicode="I" horiz-adv-x="324" 
d="M96 997h133v-997h-133v997z" />
    <glyph glyph-name="J" unicode="J" horiz-adv-x="772" 
d="M676 231q0 -239 -328 -239q-309 0 -309 239v144h133v-144q0 -77 51 -102q37 -20 125 -20q197 0 197 122v766h131v-766v0z" />
    <glyph glyph-name="K" unicode="K" horiz-adv-x="913" 
d="M299 453h-80v-453h-133v997h133v-428h84l410 428h176l-469 -477l526 -520h-188z" />
    <glyph glyph-name="L" unicode="L" horiz-adv-x="743" 
d="M90 997h133v-878h500v-119h-633v997z" />
    <glyph glyph-name="M" unicode="M" horiz-adv-x="1298" 
d="M1071 864l-362 -864h-121l-363 864v-864h-135v997h213l344 -815l346 815h213v-997h-135v864z" />
    <glyph glyph-name="N" unicode="N" horiz-adv-x="1063" 
d="M223 877v-877h-133v997h203l545 -880v880h135v-997h-203z" />
    <glyph glyph-name="O" unicode="O" horiz-adv-x="934" 
d="M868 258q0 -62 -19.5 -111.5t-56 -84t-90 -52.5t-120.5 -18h-230q-286 0 -286 266v481q0 62 19.5 111.5t56 84t89.5 53t121 18.5h230q286 0 286 -267v-481zM735 743q0 30 -11 56t-30.5 45.5t-45.5 31t-56 11.5h-250q-30 0 -56 -11.5t-45.5 -31t-30.5 -45.5t-11 -56v-491
q0 -30 11 -56t30.5 -44.5t45.5 -29.5t56 -11h250q30 0 56 11t45.5 30.5t30.5 45.5t11 56v489z" />
    <glyph glyph-name="P" unicode="P" horiz-adv-x="909" 
d="M854 690q0 -309 -254 -309h-379v-381h-135v997h514q254 0 254 -307zM721 690q0 121 -41 156q-20 17 -63.5 26t-112.5 9h-283v-381h283q142 0 182 43q35 33 35 147z" />
    <glyph glyph-name="Q" unicode="Q" horiz-adv-x="1001" 
d="M877 82q-38 -45 -94.5 -67.5t-135.5 -22.5h-295q-286 0 -286 266v481q0 62 19.5 111.5t56 84t89.5 53t121 18.5h295q287 0 287 -267v-481q0 -23 -1.5 -42t-6.5 -36l75 -49l-57 -94zM801 743q0 30 -11.5 56t-31 45.5t-45.5 31t-56 11.5h-315q-30 0 -56 -11.5t-45.5 -31
t-30.5 -45.5t-11 -56v-491q0 -30 11 -56t30.5 -44.5t45.5 -29.5t56 -11h315q66 0 105 45l-309 200l61 93l287 -187v481z" />
    <glyph glyph-name="R" unicode="R" horiz-adv-x="942" 
d="M874 700q0 -207 -137 -254q127 -45 127 -192v-254h-135v229q0 162 -158 162h-350v-391h-135v997h451q195 0 264 -63q73 -64 73 -234zM741 694q0 116 -49 150q-46 37 -188 37h-283v-371h283q147 0 190 37q47 39 47 147z" />
    <glyph glyph-name="S" unicode="S" horiz-adv-x="864" 
d="M817 281q0 -187 -104 -246q-38 -22 -114.5 -32.5t-188.5 -10.5q-218 0 -291 61q-83 68 -74 273h131q0 -152 49 -189q34 -26 185 -26q170 0 211 18q63 28 63 152q0 120 -55 147q-39 19 -219 25q-205 9 -275 49q-90 55 -90 219q0 178 96 237q39 23 105.5 35.5t163.5 12.5
q238 0 311 -52q42 -29 61.5 -89t14.5 -154h-133q0 133 -68 163q-17 8 -62.5 11.5t-123.5 3.5q-72 0 -116.5 -6.5t-64.5 -20.5q-47 -32 -47 -141q0 -105 74 -135q40 -17 154 -17q231 -3 299 -37q108 -59 108 -251z" />
    <glyph glyph-name="T" unicode="T" horiz-adv-x="791" 
d="M459 0h-133v881h-320v116h772v-116h-319v-881z" />
    <glyph glyph-name="U" unicode="U" horiz-adv-x="983" 
d="M897 285q0 -178 -92 -240q-82 -55 -313 -55q-232 0 -314 55q-92 62 -92 240v712h133v-712q0 -119 57 -150q46 -24 216 -24q168 0 215 24q57 31 57 150v712h133v-712v0z" />
    <glyph glyph-name="V" unicode="V" horiz-adv-x="889" 
d="M352 0l-364 997h145l309 -880l310 880h145l-365 -997h-180z" />
    <glyph glyph-name="W" unicode="W" horiz-adv-x="1487" 
d="M997 0l-256 862l-256 -862h-184l-311 997h139l262 -878l262 878h176l263 -878l262 878h139l-311 -997h-185z" />
    <glyph glyph-name="X" unicode="X" horiz-adv-x="889" 
d="M451 440l-304 -440h-167l366 516l-334 481h162l277 -409l276 409h162l-334 -481l367 -516h-168z" />
    <glyph glyph-name="Y" unicode="Y" horiz-adv-x="860" 
d="M494 0h-134v414l-372 583h153l287 -446l285 446h153l-372 -583v-414z" />
    <glyph glyph-name="Z" unicode="Z" horiz-adv-x="872" 
d="M35 113l616 768h-598v116h768v-116l-618 -762h631v-119h-799v113z" />
    <glyph glyph-name="bracketleft" unicode="[" horiz-adv-x="414" 
d="M92 1006h279v-97h-146v-1011h146v-97h-279v1205z" />
    <glyph glyph-name="backslash" unicode="\" horiz-adv-x="635" 
d="M-14 997h127l538 -997h-125z" />
    <glyph glyph-name="bracketright" unicode="]" horiz-adv-x="414" 
d="M41 -102h145v1011h-145v97h278v-1205h-278v97z" />
    <glyph glyph-name="asciicircum" unicode="^" horiz-adv-x="942" 
d="M471 856l-270 -508h-131l346 649h110l344 -649h-131z" />
    <glyph glyph-name="underscore" unicode="_" horiz-adv-x="942" 
d="M0 -102h942v-82h-942v82z" />
    <glyph glyph-name="grave" unicode="`" horiz-adv-x="463" 
d="M92 909l70 99l205 -168l-45 -62z" />
    <glyph glyph-name="a" unicode="a" horiz-adv-x="778" 
d="M565 66q-68 -74 -227 -74q-142 0 -203 43q-72 51 -72 172q0 126 72 180q60 45 203 45q144 0 227 -59v123q0 112 -184 112q-164 0 -164 -94v-27h-131v25q0 115 76 158q65 37 219 37q85 0 144 -11.5t95.5 -38.5t53 -72t16.5 -112v-473h-125v66zM561 211q0 84 -57 104
q-28 11 -129 11q-42 0 -69 -1t-38 -3q-60 -17 -69 -68q-2 -8 -2 -18.5v-24.5q0 -35 6.5 -57.5t26 -35.5t54.5 -18.5t91 -5.5q57 0 93.5 5.5t57 19t28 36t7.5 56.5z" />
    <glyph glyph-name="b" unicode="b" horiz-adv-x="784" 
d="M717 365q0 -212 -62 -295q-62 -80 -215 -80q-138 0 -223 80v-70h-127v997h127v-358q71 74 215 74q78 0 131.5 -18.5t85.5 -53.5q68 -77 68 -276zM588 352q0 85 -9 137.5t-26 75.5q-33 45 -150 45q-108 0 -149 -53q-37 -52 -37 -207q0 -150 37 -205q39 -53 147 -53
q110 0 148 51q39 52 39 209z" />
    <glyph glyph-name="c" unicode="c" horiz-adv-x="748" 
d="M692 219q0 -137 -88 -188q-34 -20 -89 -29.5t-130 -9.5q-210 0 -270 88q-49 67 -49 282q0 185 53 259q65 86 250 86q156 0 221 -35q90 -50 90 -187v-28h-125v30q0 77 -47 103q-33 14 -133 14q-124 0 -158 -57q-22 -41 -22 -213q0 -146 28 -187q34 -51 174 -51
q102 0 131 21q39 22 39 106v41h125v-45v0z" />
    <glyph glyph-name="d" unicode="d" horiz-adv-x="784" 
d="M565 70q-88 -80 -223 -80q-152 0 -217 80q-62 83 -62 295q0 200 70 276q63 72 215 72q144 0 215 -74v358h129v-997h-127v70zM565 350q0 156 -39 207q-36 53 -147 53q-119 0 -152 -45q-34 -46 -34 -213q0 -157 36 -209q40 -51 150 -51q109 0 147 53q20 28 29.5 79t9.5 126
z" />
    <glyph glyph-name="e" unicode="e" horiz-adv-x="772" 
d="M705 225q0 -141 -78 -190q-64 -43 -240 -43q-196 0 -258 65q-61 67 -61 291q0 225 63 291q65 68 260 68q192 0 252 -72q59 -71 59 -320h-503q0 -148 26 -182q17 -20 57.5 -30.5t106.5 -10.5q51 0 84.5 3t48.5 11q56 29 56 119h127zM582 420q0 108 -37 145q-36 39 -156 39
q-121 0 -156 -35q-33 -33 -36 -149h385z" />
    <glyph glyph-name="f" unicode="f" horiz-adv-x="422" 
d="M244 0h-127v602h-107v103h107v90q0 213 231 213q62 0 80 -7v-102q-20 4 -90 4q-30 0 -48.5 -6.5t-28.5 -21.5t-13.5 -39t-3.5 -58v-73h184v-103h-184v-602z" />
    <glyph glyph-name="g" unicode="g" horiz-adv-x="782" 
d="M696 -43q0 -157 -84 -215q-35 -26 -92.5 -38.5t-138.5 -12.5q-161 0 -221 45q-70 52 -70 198h127q0 -43 7 -70.5t25.5 -43.5t50 -22.5t81.5 -6.5q120 0 154 37q34 38 34 152v79q-70 -73 -215 -73q-153 0 -215 71q-69 76 -69 277q0 214 61 293q61 82 215 82q137 0 223 -80
v69h127v-741zM569 348q0 151 -37 203q-36 55 -147 55q-110 0 -149 -53q-37 -52 -37 -207q0 -167 32 -213q33 -45 152 -45q112 0 147 51q39 51 39 209z" />
    <glyph glyph-name="h" unicode="h" horiz-adv-x="793" 
d="M573 471q0 39 -7 65.5t-24.5 43t-46.5 23.5t-73 7q-117 0 -158 -35q-47 -39 -47 -157v-418h-125v997h125v-372q43 88 215 88q75 0 125.5 -13t82 -42t45 -75.5t13.5 -113.5v-469h-125v471z" />
    <glyph glyph-name="i" unicode="i" horiz-adv-x="307" 
d="M90 997h127v-133h-127v133zM90 705h127v-705h-127v705z" />
    <glyph glyph-name="j" unicode="j" horiz-adv-x="307" 
d="M90 997h127v-133h-127v133zM217 -78q0 -201 -151 -201q-17 0 -35.5 3.5t-38.5 9.5v96q15 -4 31 -4q47 0 59 41q5 11 6.5 33.5t1.5 56.5v745h127v-780z" />
    <glyph glyph-name="k" unicode="k" horiz-adv-x="670" 
d="M246 330h-29v-330h-127v997h127v-565h27l254 273h153l-309 -322l365 -383h-166z" />
    <glyph glyph-name="l" unicode="l" horiz-adv-x="305" 
d="M90 997h127v-997h-127v997z" />
    <glyph glyph-name="m" unicode="m" horiz-adv-x="1243" 
d="M1030 465q0 40 -6 66.5t-21.5 42.5t-43 23t-70.5 7q-205 0 -205 -160v-444h-125v465q0 40 -6 66.5t-22 42.5t-43 23t-70 7q-110 0 -157.5 -46t-47.5 -146v-412h-125v698h125v-94q12 22 34.5 41t51 33t61.5 21.5t68 7.5q175 0 227 -103q64 103 244 103q256 0 256 -244
v-463h-125v465z" />
    <glyph glyph-name="n" unicode="n" horiz-adv-x="784" 
d="M569 465q0 39 -7 65.5t-24.5 43t-46.5 23.5t-73 7q-117 0 -158 -35q-47 -39 -47 -157v-412h-125v698h125v-80q44 89 215 89q75 0 125.5 -13t82 -42t45 -75.5t13.5 -113.5v-463h-125v465z" />
    <glyph glyph-name="o" unicode="o" horiz-adv-x="778" 
d="M711 348q0 -224 -64 -291q-65 -65 -260 -65q-196 0 -258 65q-61 67 -61 291q0 225 63 291q65 68 260 68q196 0 258 -68t62 -291zM582 348q0 164 -25 205q-32 51 -168 51q-132 0 -166 -51q-26 -40 -26 -205q0 -81 6 -133t20 -72q34 -51 166 -51q134 0 168 51q25 41 25 205
z" />
    <glyph glyph-name="p" unicode="p" horiz-adv-x="782" 
d="M715 334q0 -100 -17 -168t-49 -107q-64 -73 -219 -73q-145 0 -215 73v-358h-127v997h127v-69q86 80 223 80q154 0 215 -82q62 -83 62 -293zM586 346q0 79 -9.5 130t-27.5 77q-38 53 -148 53q-113 0 -149 -55q-37 -52 -37 -203q0 -157 37 -209q34 -51 147 -51
q119 0 152 45q17 23 26 75.5t9 137.5z" />
    <glyph glyph-name="q" unicode="q" horiz-adv-x="786" 
d="M569 59q-70 -73 -215 -73q-153 0 -215 71q-69 76 -69 277q0 214 61 293q61 82 215 82q137 0 223 -80v69h127v-997h-127v358zM569 348q0 151 -37 203q-36 55 -147 55q-110 0 -149 -53q-37 -52 -37 -207q0 -167 32 -213q34 -43 152 -43q112 0 147 51q39 51 39 207z" />
    <glyph glyph-name="r" unicode="r" horiz-adv-x="614" 
d="M469 494q0 63 -25 86.5t-86 23.5q-155 0 -155 -168v-436h-125v698h121v-69q66 78 190 78q201 0 201 -205v-56h-121v48z" />
    <glyph glyph-name="s" unicode="s" horiz-adv-x="735" 
d="M684 203q0 -137 -90 -183q-62 -30 -227 -30q-306 0 -306 178v68h129v-60q0 -74 95 -74h135q39 0 64.5 5.5t40 17.5t20.5 31t6 47q0 73 -43 88q-24 9 -150 12q-144 3 -206 35q-86 41 -86 154q0 133 75 180q59 35 217 35q161 0 224 -29q82 -37 82 -152v-24h-129v33
q0 63 -95 63h-135q-57 0 -80 -16q-26 -23 -26 -90q0 -56 45 -72q30 -12 123 -12q174 0 239 -35q78 -41 78 -170z" />
    <glyph glyph-name="t" unicode="t" horiz-adv-x="541" 
d="M514 193q0 -205 -213 -205q-59 0 -98.5 10t-64.5 35t-35.5 65.5t-10.5 102.5v399h-94v102h94v166h125v-166h270v-102h-270v-399q0 -62 12 -80q16 -27 72 -27q92 0 92 99v69h121v-69v0z" />
    <glyph glyph-name="u" unicode="u" horiz-adv-x="786" 
d="M569 80q-40 -88 -215 -88q-74 0 -125 13t-82.5 42t-45 75.5t-13.5 113.5v462h125v-465q0 -39 7.5 -65.5t25 -43t46.5 -23.5t73 -7q58 0 97 8t63 30t34 59t10 96v411h125v-698h-125v80z" />
    <glyph glyph-name="v" unicode="v" horiz-adv-x="631" 
d="M231 0l-237 698h129l192 -587l193 587h129l-238 -698h-168z" />
    <glyph glyph-name="w" unicode="w" horiz-adv-x="1008" 
d="M649 0l-143 588l-144 -588h-169l-197 698h133l150 -587l145 587h164l145 -587l150 587h133l-197 -698h-170z" />
    <glyph glyph-name="x" unicode="x" horiz-adv-x="625" 
d="M313 264l-176 -264h-151l260 362l-234 336h144l159 -239l158 239h143l-233 -336l260 -362h-151z" />
    <glyph glyph-name="y" unicode="y" horiz-adv-x="602" 
d="M379 -137q-12 -42 -33 -74.5t-48.5 -54.5t-60 -33.5t-67.5 -11.5q-32 0 -66 12v98q22 -6 39 -6q96 0 117 105l23 102h-35l-258 698h133l207 -589l149 589h133l-233 -835v0z" />
    <glyph glyph-name="z" unicode="z" horiz-adv-x="625" 
d="M33 106l407 490h-393v102h543v-106l-404 -488h406v-104h-559v106z" />
    <glyph glyph-name="braceleft" unicode="{" horiz-adv-x="426" 
d="M270 -201q-125 0 -125 185v215q0 145 -104 145v117q104 0 104 145v215q0 185 125 185h115v-97h-47q-18 0 -29 -3.5t-18 -13t-9.5 -26.5t-2.5 -45v-200q0 -165 -101 -218q101 -48 101 -219v-200q0 -28 2.5 -45t9.5 -26.5t18 -13t29 -3.5h47v-97h-115v0z" />
    <glyph glyph-name="bar" unicode="|" horiz-adv-x="369" 
d="M123 997h121v-997h-121v997z" />
    <glyph glyph-name="braceright" unicode="}" horiz-adv-x="426" 
d="M385 344q-104 0 -104 -145v-215q0 -185 -125 -185h-115v97h47q18 0 29 3.5t18 13t9.5 26.5t2.5 45v200q0 171 101 219q-101 53 -101 218v200q0 28 -2.5 45t-9.5 26.5t-18 13t-29 3.5h-47v97h115q125 0 125 -185v-215q0 -145 104 -145v-117v0z" />
    <glyph glyph-name="asciitilde" unicode="~" horiz-adv-x="799" 
d="M735 467q-9 -197 -190 -197q-35 0 -73.5 14t-78.5 40q-80 55 -117 55q-82 0 -94 -94h-114q18 198 202 198q73 0 156 -53q82 -51 117 -51q72 0 75 88h117v0z" />
    <glyph glyph-name="currency" unicode="&#xa4;" horiz-adv-x="840" 
d="M422 729q-96 0 -160 -67q-65 -74 -65 -160q0 -94 63 -164q65 -68 162 -68q92 0 158 68q63 63 63 164q0 46 -16.5 87t-45.5 72t-70 49.5t-89 18.5zM156 309q-62 83 -62 193q0 114 62 188l-148 150l76 71l145 -145q80 59 193 59q55 0 105.5 -16t82.5 -43l150 145l71 -71
l-145 -150q59 -80 59 -188q0 -113 -59 -193l145 -145l-71 -76l-150 148q-15 -13 -36 -23.5t-47 -20.5q-53 -18 -105 -18q-110 0 -193 62l-145 -148l-76 76z" />
    <glyph glyph-name="FL00A9h" unicode="&#xa9;" horiz-adv-x="1141" 
d="M1092 498q0 -216 -154 -367q-151 -151 -365 -151q-212 0 -366 151q-152 150 -152 367q0 216 152 366q155 152 366 152q215 0 365 -152q154 -151 154 -366zM1016 498q0 181 -131 311q-128 131 -312 131q-182 0 -313 -131q-129 -129 -129 -311t129 -314q132 -129 313 -129
q183 0 312 129q131 131 131 314zM834 387q0 -116 -74 -160q-55 -32 -185 -32q-175 0 -227 73q-41 59 -41 238q0 160 45 219q26 35 79.5 52.5t131.5 17.5q132 0 185 -29q75 -41 75 -158v-22h-104v24q0 65 -41 86q-26 13 -109 13q-54 0 -86.5 -12t-46.5 -35q-20 -34 -20 -179
q0 -124 24 -157q29 -41 148 -41q85 0 110 16q33 16 33 88v35h103v-37z" />
    <glyph glyph-name="guillemotleft" unicode="&#xab;" horiz-adv-x="711" 
d="M340 383l188 383l95 -57l-160 -326l180 -322l-88 -61zM72 383l188 383l94 -57l-159 -326l180 -322l-88 -61z" />
    <glyph glyph-name="logicalnot" unicode="&#xac;" horiz-adv-x="942" 
d="M792 297h-734v90h816v-268h-82v178z" />
    <glyph glyph-name="minus" unicode="&#xad;" horiz-adv-x="942" 
d="M61 461h820v-103h-820v103z" />
    <glyph glyph-name="registered" unicode="&#xae;" horiz-adv-x="1141" 
d="M1092 498q0 -216 -154 -367q-151 -151 -365 -151q-212 0 -366 151q-152 150 -152 367q0 216 152 366q155 152 366 152q215 0 365 -152q154 -151 154 -366zM1016 498q0 181 -131 311q-128 131 -312 131q-182 0 -313 -131q-129 -129 -129 -311t129 -314q132 -129 313 -129
q183 0 312 129q131 131 131 314zM567 453h-94v-248h-100v588h258q213 0 213 -164q0 -153 -170 -168l170 -256h-115zM743 631q0 74 -129 74h-141v-164h156q73 0 96 26q18 19 18 64z" />
    <glyph glyph-name="degree" unicode="&#xb0;" horiz-adv-x="541" 
d="M266 915q43 0 80.5 -16t65 -43t43.5 -64t16 -79t-16 -79t-43.5 -64.5t-65 -43.5t-80.5 -16q-41 0 -77 15.5t-63.5 43t-43.5 64.5t-16 80q0 40 15.5 77t42.5 64.5t63.5 44t78.5 16.5zM266 858q-31 0 -57.5 -11t-46 -30.5t-30.5 -46t-11 -57.5q0 -30 11.5 -57t31 -47
t46 -32t56.5 -12q62 0 105 43q45 46 45 105q0 30 -12 56.5t-32.5 46t-47.5 31t-58 11.5z" />
    <glyph glyph-name="paragraph" unicode="&#xb6;" horiz-adv-x="727" 
d="M567 -244v1356h-145v-1356h-55v805q-168 0 -263 62q-104 74 -104 235q0 153 94 229q90 66 248 66h389v-41h-102v-1356h-62z" />
    <glyph glyph-name="periodcentered" unicode="&#xb7;" horiz-adv-x="338" 
d="M170 520q31 0 51.5 -21.5t20.5 -49.5q0 -31 -21.5 -52.5t-50.5 -21.5q-33 0 -53.5 20.5t-20.5 53.5q0 30 20.5 50.5t53.5 20.5z" />
    <glyph glyph-name="periodcentered" unicode="&#x2219;" horiz-adv-x="338" 
d="M170 520q31 0 51.5 -21.5t20.5 -49.5q0 -31 -21.5 -52.5t-50.5 -21.5q-33 0 -53.5 20.5t-20.5 53.5q0 30 20.5 50.5t53.5 20.5z" />
    <glyph glyph-name="guillemotright" unicode="&#xbb;" horiz-adv-x="711" 
d="M340 61l180 322l-160 326l95 57l188 -383l-215 -383zM72 61l180 322l-160 326l94 57l189 -383l-215 -383z" />
    <glyph glyph-name="multiply" unicode="&#xd7;" horiz-adv-x="942" 
d="M471 338l-297 -297l-72 72l297 297l-297 297l72 71l297 -297l297 297l72 -71l-297 -297l297 -297l-72 -72z" />
    <glyph glyph-name="divide" unicode="&#xf7;" horiz-adv-x="942" 
d="M563 707q0 -36 -25 -59t-67 -23t-67 23t-25 59q0 35 25 58t67 23t67 -23t25 -58zM61 461h820v-103h-820v103zM563 113q0 -35 -25 -58.5t-67 -23.5t-67 23.5t-25 58.5t25 58.5t67 23.5t67 -23.5t25 -58.5z" />
    <glyph glyph-name="uni0E00" unicode="&#xe00;" horiz-adv-x="205" 
 />
    <glyph glyph-name="uni0E01" unicode="&#xe01;" horiz-adv-x="893" 
d="M672 594q0 143 -189 143h-84q-188 0 -188 -123v-30h180v-74q-63 -3 -112 -37q-58 -36 -58 -92v-381h-129v385q0 111 170 141h-180v105q0 43 20.5 77.5t58.5 59t90.5 38t117.5 13.5h147q285 0 285 -205v-614h-129v594z" />
    <glyph glyph-name="uni0E02" unicode="&#xe02;" horiz-adv-x="840" 
d="M748 186q0 -48 -13.5 -83.5t-43.5 -58t-77 -33.5t-114 -11h-150q-67 0 -114 11t-77 33.5t-43.5 58t-13.5 83.5v181q0 72 123 137q123 64 123 141q0 103 -121 103q52 -22 52 -89q0 -25 -9.5 -47t-27.5 -38t-42.5 -25.5t-54.5 -9.5q-28 0 -52 9.5t-41.5 26.5t-27.5 40
t-10 51q0 31 14.5 58.5t42 48.5t66.5 33.5t88 12.5q228 0 228 -170q0 -87 -58 -139l-108 -74q-56 -36 -56 -92v-137q0 -77 48 -105q32 -20 122 -20h48q90 0 122 20q47 29 47 105v612h130v-633zM209 659q0 58 -64 58q-61 0 -61 -58q0 -57 61 -57q64 0 64 57z" />
    <glyph glyph-name="uni0E03" unicode="&#xe03;" horiz-adv-x="862" 
d="M770 186q0 -48 -13.5 -83.5t-43.5 -58t-77 -33.5t-114 -11h-149q-67 0 -114 11t-77 33.5t-43.5 58t-13.5 83.5v176q0 58 70 97l127 73q68 53 65 136q-3 84 -51 84q-23 0 -37.5 -14t-22.5 -40q-18 56 -81 56q-65 0 -74 -43q8 2 14 2h12q25 0 45.5 -9.5t34.5 -25
t21.5 -34.5t7.5 -38q0 -48 -34 -80t-91 -32q-27 0 -51 11t-41.5 31t-28 48t-10.5 63q0 37 13.5 70t37 58t55.5 39.5t70 14.5q71 0 100 -45q28 45 93 45q125 0 125 -157q0 -104 -62 -166q-6 -6 -34.5 -26t-82.5 -52q-61 -40 -61 -92v-129q0 -76 47 -105q34 -20 123 -20h47
q89 0 123 20q47 29 47 105v612h129v-633zM190 606q0 53 -59 53q-57 0 -57 -53t57 -53q59 0 59 53z" />
    <glyph glyph-name="uni0E04" unicode="&#xe04;" horiz-adv-x="936" 
d="M715 594q0 143 -189 143h-116q-189 0 -189 -143v-475q0 -29 25 -29l92 375q33 143 160 143q31 0 57.5 -10t45.5 -27.5t29.5 -41.5t10.5 -52t-10.5 -52t-29.5 -42t-45.5 -28.5t-57.5 -10.5q-54 0 -78 25l-96 -369h-105q-127 0 -127 104v510q0 205 285 205h182
q285 0 285 -205v-614h-129v594zM567 477q0 64 -69 64q-68 0 -68 -64q0 -63 68 -63q69 0 69 63z" />
    <glyph glyph-name="uni0E05" unicode="&#xe05;" horiz-adv-x="936" 
d="M715 643q0 100 -99 100q-43 0 -68.5 -24.5t-25.5 -56.5h-108q0 30 -25 55.5t-70 25.5q-98 0 -98 -100v-524q0 -29 25 -29l92 375q33 143 160 143q31 0 57.5 -10t45.5 -27.5t29.5 -41.5t10.5 -52t-10.5 -52t-29.5 -42t-45.5 -28.5t-57.5 -10.5q-54 0 -78 25l-96 -369h-105
q-127 0 -127 104v551q0 42 15.5 74.5t43.5 54.5t66.5 33.5t83.5 11.5q128 0 168 -73q37 73 168 73q45 0 83 -11.5t65.5 -33.5t43 -54.5t15.5 -74.5v-655h-129v643zM567 477q0 64 -69 64q-68 0 -68 -64q0 -63 68 -63q69 0 69 63z" />
    <glyph glyph-name="uni0E06" unicode="&#xe06;" horiz-adv-x="958" 
d="M866 96q0 -96 -106 -96h-68l-190 215q-49 55 -125 55h-6v-182q0 -88 -113 -88h-37q-34 0 -63 11.5t-50.5 33.5t-34 54.5t-12.5 74.5q0 37 13 69.5t37 56.5t57 38t74 14v70q0 56 88 108q45 29 67.5 62.5t20.5 75.5q-3 84 -51 84q-45 0 -60 -54q-18 56 -82 56t-73 -43
q8 2 14 2h12q25 0 45.5 -9.5t34.5 -25t21.5 -34.5t7.5 -38q0 -48 -34 -80t-91 -32q-27 0 -51 11t-41.5 31t-28 48t-10.5 63q0 37 13.5 70t37 58t55.5 39.5t70 14.5q71 0 100 -45q28 45 92 45q122 0 125 -157q0 -78 -39 -123l-73 -60q-41 -33 -41 -77v-60h28q126 0 197 -80
l141 -163v710h129v-723zM221 606q0 53 -59 53q-58 0 -58 -53t58 -53q59 0 59 53zM242 270q-86 0 -86 -100q0 -88 71 -88h15v188z" />
    <glyph glyph-name="uni0E07" unicode="&#xe07;" horiz-adv-x="821" 
d="M729 168q0 -168 -194 -168h-336l-199 707l125 41l184 -666h187q104 0 104 90v367q-9 -4 -41 -4q-34 0 -62.5 11.5t-49.5 31t-32.5 46t-11.5 56.5q0 31 11.5 58.5t32.5 47.5t50.5 31.5t65.5 11.5q37 0 67.5 -11t52.5 -31t34 -48.5t12 -62.5v-508zM635 680q0 74 -76 74
t-76 -74q0 -26 22 -47t54 -21t54 21t22 47z" />
    <glyph glyph-name="uni0E08" unicode="&#xe08;" horiz-adv-x="844" 
d="M752 174q0 -104 -62 -143q-46 -31 -153 -31h-218l-34 264q-21 -10 -60 -10q-34 0 -62.5 11.5t-49 31t-32 46t-11.5 56.5q0 31 11.5 58.5t32 48t50 32t65.5 11.5q151 0 166 -154l35 -313h70q123 0 123 98v414q0 143 -189 143h-117q-188 0 -188 -143h-129v20q0 205 285 205
h182q285 0 285 -205v-440zM301 399q0 74 -76 74q-75 0 -75 -74q0 -26 21.5 -46.5t53.5 -20.5t54 20.5t22 46.5z" />
    <glyph glyph-name="uni0E09" unicode="&#xe09;" horiz-adv-x="911" 
d="M864 129q0 -30 -11.5 -55.5t-32 -44t-49 -29t-62.5 -10.5t-62.5 10.5t-48.5 29t-31.5 44t-11.5 55.5v14t2 13l-248 -156h-47q-82 0 -82 70v186q-20 -4 -33 -4q-32 0 -58.5 11t-46.5 30t-31 44t-11 54q0 30 10.5 56t30.5 44.5t48 29.5t63 11q34 0 63 -10.5t50 -29
t32.5 -45.5t11.5 -60v-262l250 145q37 22 59.5 35.5t30.5 20.5q41 30 41 63v205q0 143 -188 143h-117q-188 0 -188 -143h-129v20q0 205 284 205h183q284 0 284 -205v-237q0 -59 -80 -109q125 -21 125 -139zM784 129q0 66 -75 66q-74 0 -74 -66q0 -70 74 -70q75 0 75 70z
M219 391q0 70 -72 70q-71 0 -71 -70q0 -65 71 -65q72 0 72 65z" />
    <glyph glyph-name="uni0E0A" unicode="&#xe0a;" horiz-adv-x="846" 
d="M754 186q0 -48 -13.5 -83.5t-43.5 -58t-77 -33.5t-114 -11h-150q-67 0 -114 11t-76.5 33.5t-43 58t-13.5 83.5v181q0 74 112 137q113 65 113 141q0 103 -121 103q51 -23 51 -89q0 -25 -9.5 -47t-27 -38t-42 -25.5t-54.5 -9.5q-29 0 -53 9.5t-41 26.5t-27 40t-10 51
q0 31 14.5 58.5t42 48.5t66.5 33.5t88 12.5q227 0 227 -170q0 -88 -51 -139q-24 -18 -50.5 -36t-48.5 -37.5t-36 -42t-14 -50.5v-137q0 -76 47 -105q32 -20 123 -20h47q89 0 123 20q47 30 47 105v299q0 108 -138 108v82q138 0 138 105v59h129v-63q0 -114 -117 -142
q117 -24 117 -133v-336zM195 659q0 58 -64 58q-61 0 -61 -58q0 -57 61 -57q64 0 64 57z" />
    <glyph glyph-name="uni0E0B" unicode="&#xe0b;" horiz-adv-x="903" 
d="M811 186q0 -48 -13.5 -83.5t-43.5 -58t-77 -33.5t-114 -11h-170q-67 0 -114 11t-77 33.5t-43.5 58t-13.5 83.5v176q0 55 62 93l119 75q64 52 61 138q-3 84 -51 84q-23 0 -37.5 -14t-22.5 -40q-18 56 -81 56q-65 0 -74 -43q8 2 14 2h12q25 0 45.5 -9.5t34.5 -25
t21.5 -34.5t7.5 -38q0 -48 -34 -80t-91 -32q-27 0 -51 11t-41.5 31t-28 48t-10.5 63q0 37 13.5 70t37 58t55.5 39.5t70 14.5q71 0 100 -45q28 45 93 45q125 0 125 -157q0 -104 -56 -166q-6 -6 -32 -26t-74 -52q-58 -40 -58 -92v-129q0 -77 48 -105q32 -20 122 -20h68
q89 0 123 20q47 29 47 105v299q0 108 -137 108v82q137 0 137 105v59h129v-63q0 -114 -117 -142q117 -24 117 -133v-336zM190 606q0 53 -59 53q-57 0 -57 -53t57 -53q59 0 59 53z" />
    <glyph glyph-name="uni0E0C" unicode="&#xe0c;" horiz-adv-x="1366" 
d="M1274 92q0 -92 -105 -92h-69l-185 199q-45 51 -102 51h-12v-170q0 -80 -99 -80h-51q-66 0 -106.5 44t-40.5 120q0 37 11.5 67.5t33 53t53 35t70.5 12.5v262q0 143 -189 143h-84q-188 0 -188 -123v-30h180v-74q-63 -3 -112 -37q-58 -36 -58 -92v-100q9 4 41 4
q34 0 62.5 -11.5t49.5 -31.5t32.5 -46.5t11.5 -56.5q0 -32 -11.5 -59t-32.5 -47t-50.5 -31.5t-65.5 -11.5q-37 0 -67.5 11t-52.5 31t-34 48t-12 63v242q0 111 170 141h-180v105q0 43 20.5 77.5t58.5 59t90.5 38t117.5 13.5h147q285 0 285 -205v-282h22q117 0 181 -70
l141 -153v710h129v-727zM672 250q-86 0 -86 -90q0 -78 71 -78h15v168zM338 139q0 26 -22 47t-54 21t-54 -21t-22 -47q0 -73 76 -73t76 73z" />
    <glyph glyph-name="uni0E0D" unicode="&#xe0d;" horiz-adv-x="1407" 
d="M1315 174q0 -174 -246 -174h-149q-67 0 -114 10t-77 31t-43.5 54t-13.5 79v420q0 143 -189 143h-84q-188 0 -188 -123v-30h180v-74q-63 -3 -112 -37q-58 -36 -58 -92v-100q9 4 41 4q34 0 62.5 -11.5t49.5 -31.5t32.5 -46.5t11.5 -56.5q0 -32 -11.5 -59t-32.5 -47
t-50.5 -31.5t-65.5 -11.5q-37 0 -67.5 11t-52.5 31t-34 48t-12 63v242q0 111 170 141h-180v105q0 43 20.5 77.5t58.5 59t90.5 38t117.5 13.5h147q285 0 285 -205v-419q0 -72 55 -97q36 -16 115 -16h47q79 0 115 16q53 26 53 97v624h129v-645zM1303 -88q6 -61 -12.5 -112
t-60 -87.5t-106 -57.5t-149.5 -22q-128 -3 -211 43q-92 53 -92 140q0 25 10 47.5t29 39t44.5 26.5t57.5 10q63 0 100 -33t37 -82q0 -19 -7 -37t-19.5 -32.5t-29 -25t-34.5 -14.5q22 -11 55.5 -14.5t81.5 -1.5q40 1 73.5 13t58 34t38 52t13.5 67q0 23 -6 47h129zM881 -176
q0 53 -66 53q-63 0 -63 -53t63 -53q66 0 66 53zM338 139q0 26 -22 47t-54 21t-54 -21t-22 -47q0 -73 76 -73t76 73z" />
    <glyph glyph-name="uni0E0E" unicode="&#xe0e;" horiz-adv-x="1006" 
d="M913 -283q0 -86 -96 -86h-162l-41 52q-39 -52 -110 -52h-197q-147 0 -147 121t147 121h182q75 0 99 -33l6 -8q10 39 10 66h96q-6 -76 -43 -134l45 -51h25q57 0 57 51v830q0 143 -188 143h-84q-188 0 -188 -123v-30h180v-74q-61 -3 -113 -37q-57 -35 -57 -92v-238
q0 -34 -12.5 -60.5t-35 -45t-52.5 -28t-64 -9.5t-61.5 10.5t-47 29t-30.5 44t-11 55.5q0 28 11 52.5t30.5 43.5t46 30t58.5 11q30 0 39 -4v113q0 111 170 141h-180v105q0 43 20.5 77.5t58 59t90 38t117.5 13.5h148q284 0 284 -205v-897zM238 139q0 64 -72 64
q-31 0 -51.5 -19.5t-20.5 -44.5q0 -67 72 -67t72 67zM537 -248q0 38 -58 47q-8 2 -28.5 2h-55.5h-55t-29 -2q-57 -9 -57 -47t57 -47q8 -2 29 -2h55h55.5t28.5 2q58 9 58 47z" />
    <glyph glyph-name="uni0E0F" unicode="&#xe0f;" horiz-adv-x="1006" 
d="M913 -281q0 -88 -96 -88h-39l-90 74l-86 -74h-108l-39 52q-34 -52 -109 -52h-127q-145 0 -145 121t145 121h119q62 0 94 -33l6 -6q2 6 4.5 22t6.5 42h96q-6 -69 -43 -134l51 -65l133 104l98 -75v866q0 143 -188 143h-84q-188 0 -188 -123v-30h180v-74q-61 -3 -113 -37
q-57 -35 -57 -92v-238q0 -34 -12.5 -60.5t-35 -45t-52.5 -28t-64 -9.5t-61.5 10.5t-47 29t-30.5 44t-11 55.5q0 28 11 52.5t30.5 43.5t46 30t58.5 11q30 0 39 -4v113q0 111 170 141h-180v105q0 43 20.5 77.5t58 59t90 38t117.5 13.5h148q284 0 284 -205v-895zM238 139
q0 64 -72 64q-31 0 -51.5 -19.5t-20.5 -44.5q0 -67 72 -67t72 67zM387 -248q0 49 -108 49q-111 0 -111 -49t111 -49q108 0 108 49z" />
    <glyph glyph-name="uni0E10" unicode="&#xe10;" horiz-adv-x="872" 
d="M670 655q0 82 -172 82h-129q-189 0 -189 -104v-19h385q213 0 213 -143v-315q0 -156 -198 -156h-258l-27 188q-21 -10 -59 -10q-34 0 -62.5 11.5t-49.5 31.5t-32.5 46.5t-11.5 56.5q0 31 11.5 58.5t32.5 47.5t50.5 31.5t65.5 11.5q144 0 166 -154l30 -237h107
q106 0 106 78v270q0 59 -41 80q-27 12 -100 12h-457v115q0 182 268 182h236q134 0 201 -55q53 -44 53 -109h-139zM778 -332q0 -78 -86 -78h-30l-76 62l-70 -62h-70l-49 62q-33 -62 -106 -62h-115q-131 0 -131 117t131 117h107q47 0 82 -35l10 -10q5 20 6.5 35.5t1.5 29.5h88
q-3 -35 -11 -67t-22 -58l56 -63l88 76l80 -62v84h-15q-54 0 -86.5 29t-32.5 74t34 74.5t89 29.5q57 0 92 -30t35 -81v-182zM311 324q0 73 -75 73q-76 0 -76 -73q0 -26 22 -47t54 -21t53.5 21t21.5 47zM705 -143q0 51 -58 51q-57 0 -57 -51q0 -50 57 -50q58 0 58 50z
M324 -293q0 49 -101 49q-96 0 -96 -49t96 -49q101 0 101 49z" />
    <glyph glyph-name="uni0E11" unicode="&#xe11;" horiz-adv-x="1014" 
d="M791 655q0 82 -82 82l-242 -737h-150q-106 0 -106 92v330q0 54 88 108q45 29 67.5 62.5t20.5 75.5q-3 84 -51 84q-23 0 -37.5 -14t-22.5 -40q-18 56 -81 56q-65 0 -74 -43q8 2 14 2h12q25 0 45.5 -9.5t34.5 -25t21.5 -34.5t7.5 -38q0 -48 -34 -80t-91 -32q-27 0 -51 11
t-41.5 31t-28 48t-10.5 63q0 37 13.5 70t37 58t55.5 39.5t70 14.5q71 0 100 -45q28 45 93 45q122 0 125 -157q0 -77 -39 -123l-74 -60q-41 -33 -41 -77v-275q0 -51 45 -51l240 733h131q164 0 164 -147v-672h-129v655zM190 606q0 53 -59 53q-57 0 -57 -53t57 -53q59 0 59 53z
" />
    <glyph glyph-name="uni0E12" unicode="&#xe12;" horiz-adv-x="1409" 
d="M1317 92q0 -92 -105 -92h-69l-185 199q-45 51 -102 51h-12v-170q0 -80 -99 -80h-51q-66 0 -106.5 44t-40.5 120q0 37 11.5 67.5t33 53t53 35t70.5 12.5v311q0 100 -99 100q-43 0 -68.5 -24.5t-25.5 -56.5h-108q0 30 -25 55.5t-70 25.5q-98 0 -98 -100v-539q0 -26 35 -26
l174 256q-111 30 -111 131q0 28 10.5 53t30 43t47 28.5t62.5 10.5q33 0 60.5 -10.5t47 -28t30.5 -41.5t11 -51q0 -40 -26 -80l-266 -389h-115q-119 0 -119 90v565q0 42 15.5 74.5t43.5 54.5t66.5 33.5t83.5 11.5q128 0 168 -73q37 73 168 73q45 0 83 -11.5t65.5 -33.5
t43 -54.5t15.5 -74.5v-323h22q117 0 181 -70l141 -153v710h129v-727zM532 465q0 65 -67 65q-66 0 -66 -65q0 -59 66 -59q67 0 67 59zM715 250q-86 0 -86 -90q0 -78 71 -78h15v168z" />
    <glyph glyph-name="uni0E13" unicode="&#xe13;" horiz-adv-x="1382" 
d="M1335 129q0 -30 -11.5 -55.5t-32 -44t-49 -29t-62.5 -10.5t-62 10.5t-48.5 29t-32 44t-11.5 55.5v14t2 13l-227 -156h-47q-82 0 -82 70v524q0 143 -189 143h-84q-188 0 -188 -123v-30h180v-74q-63 -3 -112 -37q-58 -36 -58 -92v-100q9 4 41 4q34 0 62.5 -11.5t49.5 -31.5
t32.5 -46.5t11.5 -56.5q0 -32 -11.5 -59t-32.5 -47t-50.5 -31.5t-65.5 -11.5q-37 0 -67.5 11t-52.5 31t-34 48t-12 63v242q0 111 170 141h-180v105q0 43 20.5 77.5t58.5 59t90.5 38t117.5 13.5h147q285 0 285 -205v-489l229 145q21 13 44.5 27.5t42.5 29.5t31.5 30.5
t12.5 31.5v430h129v-442q0 -59 -80 -109q125 -21 125 -139zM1255 129q0 66 -75 66q-74 0 -74 -66q0 -70 74 -70q75 0 75 70zM338 139q0 26 -22 47t-54 21t-54 -21t-22 -47q0 -73 76 -73t76 73z" />
    <glyph glyph-name="uni0E14" unicode="&#xe14;" horiz-adv-x="936" 
d="M715 594q0 143 -189 143h-116q-189 0 -189 -143v-490q0 -26 35 -26l168 237q-105 28 -105 129q0 28 10.5 53t30 43.5t47 29t62.5 10.5q33 0 60.5 -11t47 -29t30.5 -42.5t11 -51.5q0 -21 -6 -40.5t-20 -36.5l-266 -369h-115q-119 0 -119 90v524q0 205 285 205h182
q285 0 285 -205v-614h-129v594zM532 444q0 66 -67 66q-66 0 -66 -66q0 -59 66 -59q67 0 67 59z" />
    <glyph glyph-name="uni0E15" unicode="&#xe15;" horiz-adv-x="936" 
d="M715 643q0 100 -99 100q-43 0 -68.5 -24.5t-25.5 -56.5h-108q0 30 -25 55.5t-70 25.5q-98 0 -98 -100v-539q0 -26 35 -26l174 256q-111 30 -111 131q0 28 10.5 53t30 43t47 28.5t62.5 10.5q33 0 60.5 -10.5t47 -28t30.5 -41.5t11 -51q0 -40 -26 -80l-266 -389h-115
q-119 0 -119 90v565q0 42 15.5 74.5t43.5 54.5t66.5 33.5t83.5 11.5q128 0 168 -73q37 73 168 73q45 0 83 -11.5t65.5 -33.5t43 -54.5t15.5 -74.5v-655h-129v643zM532 465q0 65 -67 65q-66 0 -66 -65q0 -59 66 -59q67 0 67 59z" />
    <glyph glyph-name="uni0E16" unicode="&#xe16;" horiz-adv-x="893" 
d="M672 594q0 143 -189 143h-84q-188 0 -188 -123v-30h180v-74q-63 -3 -112 -37q-58 -36 -58 -92v-100q9 4 41 4q34 0 62.5 -11.5t49.5 -31.5t32.5 -46.5t11.5 -56.5q0 -32 -11.5 -59t-32.5 -47t-50.5 -31.5t-65.5 -11.5q-37 0 -67.5 11t-52.5 31t-34 48t-12 63v242
q0 111 170 141h-180v105q0 43 20.5 77.5t58.5 59t90.5 38t117.5 13.5h147q285 0 285 -205v-614h-129v594zM338 139q0 26 -22 47t-54 21t-54 -21t-22 -47q0 -73 76 -73t76 73z" />
    <glyph glyph-name="uni0E17" unicode="&#xe17;" horiz-adv-x="977" 
d="M756 653q0 82 -103 82l-250 -735h-98q-108 0 -108 92v447q-9 -4 -41 -4q-34 0 -62.5 11.5t-49.5 31t-32.5 46t-11.5 56.5q0 31 11.5 58.5t32.5 47.5t50.5 31.5t65.5 11.5q37 0 67.5 -11t52.5 -31t34 -48.5t12 -62.5v-432q0 -20 -1.5 -59.5t-5.5 -102.5h5q6 25 15 58
t21 75l205 604h156q164 0 164 -147v-672h-129v653zM231 680q0 74 -75 74q-76 0 -76 -74q0 -26 22 -47t54 -21t53.5 21t21.5 47z" />
    <glyph glyph-name="uni0E18" unicode="&#xe18;" horiz-adv-x="915" 
d="M688 635q0 102 -182 102h-96q-189 0 -189 -114v-54h389q213 0 213 -143v-221q0 -205 -284 -205h-162q-285 0 -285 205v211h129v-191q0 -143 189 -143h96q188 0 188 143v160q0 59 -41 80q-27 12 -100 12h-461v158q0 184 268 184h205q137 0 207 -61q58 -49 55 -123h-139v0z
" />
    <glyph glyph-name="uni0E19" unicode="&#xe19;" horiz-adv-x="965" 
d="M918 129q0 -30 -11.5 -55.5t-32.5 -44t-49.5 -29t-62.5 -10.5t-62 10.5t-48.5 29t-32 44t-11.5 55.5v14t2 13l-254 -156h-75q-84 0 -84 82v457q-9 -4 -41 -4q-34 0 -62.5 11.5t-49.5 31t-32.5 46t-11.5 56.5q0 31 11.5 58.5t32.5 47.5t50.5 31.5t65.5 11.5q37 0 67.5 -11
t52.5 -31t34 -48.5t12 -62.5v-567l286 161q131 74 131 119v430h129v-442q0 -60 -79 -109q125 -21 125 -139zM838 129q0 66 -76 66q-74 0 -74 -66q0 -70 74 -70q76 0 76 70zM231 680q0 74 -75 74q-76 0 -76 -74q0 -26 22 -47t54 -21t53.5 21t21.5 47z" />
    <glyph glyph-name="uni0E1A" unicode="&#xe1a;" horiz-adv-x="999" 
d="M907 195q0 -195 -284 -195h-142q-284 0 -284 195v344q-9 -4 -41 -4q-34 0 -62.5 11.5t-49.5 31t-32.5 46t-11.5 56.5q0 31 11.5 58.5t32.5 47.5t50.5 31.5t65.5 11.5q37 0 67.5 -11t52.5 -31t34 -48.5t12 -62.5v-461q0 -37 10 -62.5t32.5 -41t58.5 -22.5t87 -7h76
q51 0 87 7t58.5 22.5t32.5 41t10 62.5v604h129v-624zM231 680q0 74 -75 74q-76 0 -76 -74q0 -26 22 -47t54 -21t53.5 21t21.5 47z" />
    <glyph glyph-name="uni0E1B" unicode="&#xe1b;" horiz-adv-x="999" 
d="M907 195q0 -195 -284 -195h-142q-284 0 -284 195v344q-9 -4 -41 -4q-34 0 -62.5 11.5t-49.5 31t-32.5 46t-11.5 56.5q0 31 11.5 58.5t32.5 47.5t50.5 31.5t65.5 11.5q37 0 67.5 -11t52.5 -31t34 -48.5t12 -62.5v-461q0 -37 10 -62.5t32.5 -41t58.5 -22.5t87 -7h76
q51 0 87 7t58.5 22.5t32.5 41t10 62.5v870h129v-890zM231 680q0 74 -75 74q-76 0 -76 -74q0 -26 22 -47t54 -21t53.5 21t21.5 47z" />
    <glyph glyph-name="uni0E1C" unicode="&#xe1c;" horiz-adv-x="936" 
d="M844 78q0 -78 -107 -78h-73l-195 369l-197 -369h-73q-107 0 -107 78v598q0 34 12 62.5t34 48.5t52.5 31t67.5 11q36 0 65.5 -11.5t50.5 -31.5t32.5 -47.5t11.5 -58.5q0 -30 -11.5 -56.5t-32.5 -46t-49.5 -31t-62.5 -11.5q-32 0 -41 4v-437l205 369h86l203 -369v717h129
v-741zM338 680q0 74 -76 74t-76 -74q0 -26 22 -47t54 -21t54 21t22 47z" />
    <glyph glyph-name="uni0E1D" unicode="&#xe1d;" horiz-adv-x="936" 
d="M844 78q0 -78 -107 -78h-73l-195 369l-197 -369h-73q-107 0 -107 78v598q0 34 12 62.5t34 48.5t52.5 31t67.5 11q36 0 65.5 -11.5t50.5 -31.5t32.5 -47.5t11.5 -58.5q0 -30 -11.5 -56.5t-32.5 -46t-49.5 -31t-62.5 -11.5q-32 0 -41 4v-437l205 369h86l203 -369v983h129
v-1007zM338 680q0 74 -76 74t-76 -74q0 -26 22 -47t54 -21t54 21t22 47z" />
    <glyph glyph-name="uni0E1E" unicode="&#xe1e;" horiz-adv-x="1083" 
d="M991 78q0 -78 -108 -78h-72l-217 655l-217 -655h-72q-108 0 -108 78v461q-9 -4 -41 -4q-34 0 -62.5 11.5t-49.5 31t-32.5 46t-11.5 56.5q0 31 11.5 58.5t32.5 47.5t50.5 31.5t65.5 11.5q37 0 67.5 -11t52.5 -31t34 -48.5t12 -62.5v-344q0 -35 -2 -89.5t-7 -129.5h5
q6 23 18.5 66t32.5 106l178 534h86l178 -534q12 -35 24.5 -78t26.5 -94h4q-5 75 -6.5 129.5t-1.5 89.5v487h129v-741zM231 680q0 74 -75 74q-76 0 -76 -74q0 -26 22 -47t54 -21t53.5 21t21.5 47z" />
    <glyph glyph-name="uni0E1F" unicode="&#xe1f;" horiz-adv-x="1083" 
d="M991 78q0 -78 -108 -78h-72l-217 655l-217 -655h-72q-108 0 -108 78v461q-9 -4 -41 -4q-34 0 -62.5 11.5t-49.5 31t-32.5 46t-11.5 56.5q0 31 11.5 58.5t32.5 47.5t50.5 31.5t65.5 11.5q37 0 67.5 -11t52.5 -31t34 -48.5t12 -62.5v-344q0 -35 -2 -89.5t-7 -129.5h5
q6 23 18.5 66t32.5 106l178 534h86l178 -534q12 -35 24.5 -78t26.5 -94h4q-5 75 -6.5 129.5t-1.5 89.5v753h129v-1007zM231 680q0 74 -75 74q-76 0 -76 -74q0 -26 22 -47t54 -21t53.5 21t21.5 47z" />
    <glyph glyph-name="uni0E20" unicode="&#xe20;" horiz-adv-x="1006" 
d="M784 594q0 143 -188 143h-84q-188 0 -188 -123v-30h180v-74q-61 -3 -113 -37q-57 -35 -57 -92v-238q0 -34 -12.5 -60.5t-35 -45t-52.5 -28t-64 -9.5t-61.5 10.5t-47 29t-30.5 44t-11 55.5q0 28 11 52.5t30.5 43.5t46 30t58.5 11q30 0 39 -4v113q0 111 170 141h-180v105
q0 43 20.5 77.5t58 59t90 38t117.5 13.5h148q284 0 284 -205v-614h-129v594zM238 139q0 64 -72 64q-31 0 -51.5 -19.5t-20.5 -44.5q0 -67 72 -67t72 67z" />
    <glyph glyph-name="uni0E21" unicode="&#xe21;" horiz-adv-x="975" 
d="M883 86q0 -86 -99 -86h-75l-191 215q-49 55 -125 55h-26v-184q0 -86 -103 -86h-49q-34 0 -63 11.5t-50 33.5t-33 54.5t-12 74.5q0 39 13 72t36.5 56.5t57 36.5t74.5 13v187q-9 -4 -41 -4q-34 0 -62.5 11.5t-49.5 31t-32.5 46t-11.5 56.5q0 31 11.5 58.5t32.5 47.5
t50.5 31.5t65.5 11.5q37 0 67.5 -11t52.5 -31t34 -48.5t12 -62.5v-324h49q125 0 196 -80l142 -163v710h129v-733zM272 680q0 74 -75 74q-76 0 -76 -74q0 -26 22 -47t54 -21t53.5 21t21.5 47zM238 272q-36 0 -61 -27t-25 -75q0 -90 69 -90h17v192z" />
    <glyph glyph-name="uni0E22" unicode="&#xe22;" horiz-adv-x="915" 
d="M823 205q0 -205 -284 -205h-162q-285 0 -285 205v84q0 24 9 47t26.5 41t43 30t58.5 15q-137 21 -137 131v123q0 34 12 62.5t34 48.5t52.5 31t67.5 11q36 0 65.5 -11.5t50.5 -31.5t32.5 -47.5t11.5 -58.5q0 -30 -11.5 -56.5t-32.5 -46t-49.5 -31t-62.5 -11.5q-32 0 -41 4
q0 -17 10.5 -30t28 -22.5t40.5 -14.5t48 -5h119v-90h-117q-129 0 -129 -113v-39q0 -143 189 -143h96q188 0 188 143v594h129v-614zM338 680q0 74 -76 74t-76 -74q0 -26 22 -47t54 -21t54 21t22 47z" />
    <glyph glyph-name="uni0E23" unicode="&#xe23;" horiz-adv-x="823" 
d="M647 635q0 102 -182 102h-107q-188 0 -188 -104v-45h328q213 0 213 -144v-301q0 -35 -12 -63t-34 -48t-52.5 -31t-67.5 -11q-36 0 -65.5 11.5t-50.5 31.5t-32.5 47t-11.5 59q0 30 11.5 56.5t32.5 46.5t49.5 31.5t62.5 11.5q32 0 41 -4v122q0 57 -41 80q-26 13 -101 13
h-399v141q0 182 268 182h211q137 0 207 -61q58 -49 55 -123h-135zM616 139q0 26 -21.5 47t-53.5 21t-54 -21t-22 -47q0 -73 76 -73q75 0 75 73z" />
    <glyph glyph-name="uni0E24" unicode="&#xe24;" horiz-adv-x="893" 
d="M672 594q0 143 -189 143h-84q-188 0 -188 -123v-30h180v-74q-63 -3 -112 -37q-58 -36 -58 -92v-100q9 4 41 4q34 0 62.5 -11.5t49.5 -31.5t32.5 -46.5t11.5 -56.5q0 -32 -11.5 -59t-32.5 -47t-50.5 -31.5t-65.5 -11.5q-37 0 -67.5 11t-52.5 31t-34 48t-12 63v242
q0 111 170 141h-180v105q0 43 20.5 77.5t58.5 59t90.5 38t117.5 13.5h147q285 0 285 -205v-921h-129v901zM338 139q0 26 -22 47t-54 21t-54 -21t-22 -47q0 -73 76 -73t76 73z" />
    <glyph glyph-name="uni0E25" unicode="&#xe25;" horiz-adv-x="915" 
d="M823 94q0 -94 -118 -94h-101l-166 428q-18 49 -86 49h-43q-88 0 -88 -71v-125q9 4 41 4q34 0 62.5 -11.5t49.5 -31.5t32.5 -46.5t11.5 -56.5q0 -32 -11.5 -59t-32.5 -47t-50.5 -31.5t-65.5 -11.5q-37 0 -67.5 11t-52.5 31t-34 48t-12 63v271q0 141 213 141h72
q137 0 172 -84l145 -383v506q0 143 -188 143h-96q-189 0 -189 -143h-129v20q0 205 285 205h162q284 0 284 -205v-520zM338 139q0 26 -22 47t-54 21t-54 -21t-22 -47q0 -73 76 -73t76 73z" />
    <glyph glyph-name="uni0E26" unicode="&#xe26;" horiz-adv-x="1006" 
d="M784 594q0 143 -188 143h-84q-188 0 -188 -123v-30h180v-74q-61 -3 -113 -37q-57 -35 -57 -92v-238q0 -34 -12.5 -60.5t-35 -45t-52.5 -28t-64 -9.5t-61.5 10.5t-47 29t-30.5 44t-11 55.5q0 28 11 52.5t30.5 43.5t46 30t58.5 11q30 0 39 -4v113q0 111 170 141h-180v105
q0 43 20.5 77.5t58 59t90 38t117.5 13.5h148q284 0 284 -205v-921h-129v901zM238 139q0 64 -72 64q-31 0 -51.5 -19.5t-20.5 -44.5q0 -67 72 -67t72 67z" />
    <glyph glyph-name="uni0E27" unicode="&#xe27;" horiz-adv-x="803" 
d="M711 143q0 -35 -12 -63t-34 -48t-52.5 -31t-67.5 -11q-36 0 -65.5 11.5t-50.5 31.5t-32.5 47t-11.5 59q0 30 11.5 56.5t32.5 46.5t49.5 31.5t62.5 11.5q32 0 41 -4v313q0 143 -189 143h-76q-188 0 -188 -143h-129v20q0 205 285 205h141q285 0 285 -205v-471zM616 139
q0 26 -21.5 47t-53.5 21t-54 -21t-22 -47q0 -73 76 -73q75 0 75 73z" />
    <glyph glyph-name="uni0E28" unicode="&#xe28;" horiz-adv-x="936" 
d="M899 901q0 -106 -131 -133q76 -55 76 -154v-614h-129v594q0 143 -189 143h-116q-189 0 -189 -143v-475q0 -29 25 -29l92 375q33 143 160 143q31 0 57.5 -10t45.5 -27.5t29.5 -41.5t10.5 -52t-10.5 -52t-29.5 -42t-45.5 -28.5t-57.5 -10.5q-54 0 -78 25l-96 -369h-103
q-129 0 -129 111v503q0 205 285 205h182q19 0 39 -1t37.5 -2t29.5 -2t15 -1q85 0 70 88h149zM567 477q0 64 -69 64q-68 0 -68 -64q0 -63 68 -63q69 0 69 63z" />
    <glyph glyph-name="uni0E29" unicode="&#xe29;" horiz-adv-x="1087" 
d="M1087 561q17 -191 -180 -256v-110q0 -195 -284 -195h-142q-284 0 -284 195v344q-9 -4 -41 -4q-34 0 -62.5 11.5t-49.5 31t-32.5 46t-11.5 56.5q0 31 11.5 58.5t32.5 47.5t50.5 31.5t65.5 11.5q37 0 67.5 -11t52.5 -31t34 -48.5t12 -62.5v-461q0 -37 10 -62.5t32.5 -41
t58.5 -22.5t87 -7h76q51 0 87 7t58.5 22.5t32.5 41t10 62.5v70q-6 -2 -17 -2h-28q-119 -3 -198 43q-89 50 -89 139q0 25 9.5 47.5t26 39t40 26.5t51.5 10q57 0 91 -32t34 -83q0 -90 -80 -108q33 -22 136 -17h10.5t13.5 2v469h129v-432q76 34 76 139v17t-2 18h106zM635 473
q0 53 -57 53q-60 0 -60 -53t60 -53q57 0 57 53zM231 680q0 74 -75 74q-76 0 -76 -74q0 -26 22 -47t54 -21t53.5 21t21.5 47z" />
    <glyph glyph-name="uni0E2A" unicode="&#xe2a;" horiz-adv-x="915" 
d="M879 901q0 -103 -131 -133q75 -54 75 -154v-520q0 -94 -118 -94h-101l-166 428q-18 49 -86 49h-43q-88 0 -88 -71v-125q9 4 41 4q34 0 62.5 -11.5t49.5 -31.5t32.5 -46.5t11.5 -56.5q0 -32 -11.5 -59t-32.5 -47t-50.5 -31.5t-65.5 -11.5q-37 0 -67.5 11t-52.5 31t-34 48
t-12 63v271q0 141 213 141h72q137 0 172 -84l145 -383v506q0 143 -188 143h-96q-189 0 -189 -143h-129v20q0 205 285 205h162q18 0 38 -1t37 -2t29 -2t16 -1q70 0 70 66v10.5t-2 11.5h152zM338 139q0 26 -22 47t-54 21t-54 -21t-22 -47q0 -73 76 -73t76 73z" />
    <glyph glyph-name="uni0E2B" unicode="&#xe2b;" horiz-adv-x="977" 
d="M891 686q0 -84 -68 -119q62 -45 62 -116v-451h-129v434q0 95 -68 98q-62 5 -92 -61l-227 -471h-64q-108 0 -108 92v447q-9 -4 -41 -4q-34 0 -62.5 11.5t-49.5 31t-32.5 46t-11.5 56.5q0 31 11.5 58.5t32.5 47.5t50.5 31.5t65.5 11.5q37 0 67.5 -11t52.5 -31t34 -48.5
t12 -62.5v-400q0 -20 -3.5 -60.5t-11.5 -100.5h4l47 118l125 267q44 92 119 92q-45 37 -45 94q0 31 12 57t33.5 45t52 30t68.5 11q37 0 67 -11t51.5 -30t33.5 -45t12 -57zM807 686q0 29 -22.5 49.5t-57.5 20.5q-82 0 -82 -70t82 -70q35 0 57.5 20.5t22.5 49.5zM231 680
q0 74 -75 74q-76 0 -76 -74q0 -26 22 -47t54 -21t53.5 21t21.5 47z" />
    <glyph glyph-name="uni0E2C" unicode="&#xe2c;" horiz-adv-x="1104" 
d="M1085 807q-30 -27 -94 -49v-680q0 -78 -108 -78h-52l-237 584l-238 -584h-51q-108 0 -108 78v461q-9 -4 -41 -4q-34 0 -62.5 11.5t-49.5 31t-32.5 46t-11.5 56.5q0 31 11.5 58.5t32.5 47.5t50.5 31.5t65.5 11.5q37 0 67.5 -11t52.5 -31t34 -48.5t12 -62.5v-344
q0 -35 -5 -89.5t-14 -129.5h4q8 24 23.5 66.5t38.5 105.5l178 440h86l178 -440q14 -36 29 -78.5t30 -93.5h5q-8 75 -12.5 129.5t-4.5 89.5v403q-20 -4 -45 -4q-78 0 -131 35q-58 40 -55 104q1 30 16.5 54.5t40.5 41.5t57 25.5t66 5.5q145 -6 178 -137q14 5 37.5 18.5
t58.5 34.5v-106zM862 825q0 18 -6 35t-16.5 31t-26 23t-33.5 10q-71 3 -71 -56q0 -53 75 -53q45 0 78 10zM231 680q0 74 -75 74q-76 0 -76 -74q0 -26 22 -47t54 -21t53.5 21t21.5 47z" />
    <glyph glyph-name="uni0E2D" unicode="&#xe2d;" horiz-adv-x="915" 
d="M823 205q0 -205 -284 -205h-162q-285 0 -285 205v196q0 35 12 63.5t34 48.5t52.5 31t67.5 11q36 0 65.5 -11.5t50.5 -32t32.5 -47.5t11.5 -58q0 -30 -11.5 -56.5t-32.5 -46.5t-49.5 -31.5t-62.5 -11.5q-32 0 -41 4v-39q0 -143 189 -143h96q188 0 188 143v369
q0 143 -188 143h-96q-189 0 -189 -143h-129v20q0 205 285 205h162q284 0 284 -205v-409zM338 406q0 73 -76 73t-76 -73q0 -26 22 -47t54 -21t54 21t22 47z" />
    <glyph glyph-name="uni0E2E" unicode="&#xe2e;" horiz-adv-x="915" 
d="M823 205q0 -205 -284 -205h-162q-285 0 -285 184v189q0 34 12 62.5t34 48.5t52.5 31t67.5 11q36 0 65.5 -11.5t50.5 -31.5t32.5 -47.5t11.5 -58.5q0 -30 -11.5 -56.5t-32.5 -46.5t-49.5 -31.5t-62.5 -11.5q-29 0 -41 5v-31q0 -123 189 -123h96q188 0 188 143v355
q0 14 -1.5 27t-6.5 24q-91 -64 -186 -64h-406v64q0 40 17.5 74t51 59.5t82.5 40t113 14.5h179q83 0 149 -28q14 35 8 69h129q0 -85 -43 -143q43 -55 43 -123v-389zM637 700q-49 37 -150 37h-110q-154 0 -154 -92h287q78 0 127 55zM338 377q0 74 -76 74t-76 -74q0 -26 22 -47
t54 -21t54 21t22 47z" />
    <glyph glyph-name="uni0E2F" unicode="&#xe2f;" horiz-adv-x="838" 
d="M616 700q-29 -77 -100 -133q-94 -73 -219 -73q-54 0 -97.5 11t-78.5 34q-80 53 -80 143q0 31 12.5 57.5t34 46.5t50.5 31.5t63 11.5t63 -11t49 -30t31.5 -45t11.5 -57q0 -72 -53 -113q101 -3 170 60q43 37 84 121q35 65 47 65h68q73 0 73 -80v-739h-129v700zM276 682
q0 70 -75 70q-76 0 -76 -70q0 -26 22 -46t54 -20q75 0 75 66z" />
    <glyph glyph-name="uni0E30" unicode="&#xe30;" horiz-adv-x="756" 
d="M705 793q5 -66 -16 -117.5t-66.5 -87.5t-114 -55t-158.5 -19q-66 0 -119.5 11t-93.5 34q-86 47 -86 137q0 25 10.5 47.5t29 39.5t44.5 26.5t58 9.5q63 0 100 -32.5t37 -81.5q0 -91 -90 -109q36 -16 112 -16q215 0 215 170q0 23 -4 43h142zM705 279q5 -66 -16 -117.5
t-66.5 -87.5t-114 -55t-158.5 -19q-66 0 -119.5 11t-93.5 34q-86 47 -86 137q0 25 10.5 47.5t29 39.5t44.5 26.5t58 9.5q63 0 100 -32t37 -83q0 -90 -90 -108q36 -16 112 -16q215 0 215 170q0 23 -4 43h142zM260 705q0 53 -65 53q-64 0 -64 -53q0 -54 64 -54q65 0 65 54z
M260 190q0 54 -65 54q-64 0 -64 -54q0 -53 64 -53q65 0 65 53z" />
    <glyph glyph-name="uni0E31" unicode="&#xe31;" 
d="M133 1204q7 -65 -15.5 -116.5t-71.5 -87.5t-122.5 -55t-167.5 -19q-66 0 -116.5 11t-92.5 34q-88 45 -88 137q0 25 10.5 47.5t29.5 39.5t45 26.5t57 9.5q63 0 100 -32t37 -83q0 -39 -26.5 -69.5t-63.5 -38.5q36 -17 125 -17q50 0 91.5 10.5t71 31.5t46 51.5t16.5 70.5
q0 22 -6 49h141zM-334 1116q0 53 -63 53q-66 0 -66 -53t66 -53q63 0 63 53z" />
    <glyph glyph-name="uni0E32" unicode="&#xe32;" horiz-adv-x="762" 
d="M541 594q0 143 -189 143h-35q-188 0 -188 -143h-129v20q0 205 285 205h100q285 0 285 -205v-614h-129v594z" />
    <glyph glyph-name="uni0E33" unicode="&#xe33;" horiz-adv-x="762" 
d="M14 1077q0 -30 -12.5 -56t-35 -44.5t-54 -29.5t-68.5 -11t-68.5 11t-54.5 29.5t-36 44.5t-13 56t13 56t36 45t54.5 30t68.5 11t68.5 -11t54 -30t35 -45t12.5 -56zM541 594q0 143 -189 143h-35q-188 0 -188 -143h-129v20q0 205 285 205h100q285 0 285 -205v-614h-129v594z
M-68 1077q0 76 -88 76q-90 0 -90 -76t90 -76q88 0 88 76z" />
    <glyph glyph-name="uni0E34" unicode="&#xe34;" 
d="M-811 932q0 54 24.5 97.5t70 74t109.5 47t144 16.5q76 0 141 -15.5t119 -47.5q118 -67 121 -172h-729zM-238 1004q-48 94 -219 94q-168 0 -198 -94h417z" />
    <glyph glyph-name="uni0E35" unicode="&#xe35;" 
d="M-821 932q0 55 23 99t65 74t101 46t132 16q166 0 279 -75v139h129v-299h-729zM-250 1004q-57 94 -235 94q-35 0 -66 -7t-55.5 -19.5t-40 -29.5t-19.5 -38h416z" />
    <glyph glyph-name="uni0E36" unicode="&#xe36;" 
d="M-16 1130q0 -95 -109 -110q29 -32 49 -88h-729q0 57 23 100.5t69 75.5q45 29 101 44t129 15q103 0 186 -30q5 49 43 81.5t98 32.5q30 0 55.5 -9.5t44.5 -25.5t29.5 -38.5t10.5 -47.5zM-92 1130q0 56 -64 56q-65 0 -65 -56q0 -55 65 -55q64 0 64 55zM-250 1004
q-57 94 -235 94q-35 0 -66 -7t-55.5 -19.5t-40 -29.5t-19.5 -38h416z" />
    <glyph glyph-name="uni0E37" unicode="&#xe37;" 
d="M-821 932q0 55 23 99t65 74t101 46t132 16q29 0 56.5 -1.5t50.5 -6.5v72h108v-105q17 -8 33.5 -16.5t30.5 -17.5v139h129v-299h-729zM-250 1004q-57 94 -235 94q-35 0 -66 -7t-55.5 -19.5t-40 -29.5t-19.5 -38h416z" />
    <glyph glyph-name="uni0E38" unicode="&#xe38;" 
d="M-221 -326q-5 -2 -11.5 -2h-17.5q-32 0 -58.5 9.5t-45.5 26t-30 38.5t-11 47t10.5 48t29 40t45.5 27t60 10q158 0 158 -133v-260h-129v149zM-178 -207q0 57 -72 57q-69 0 -69 -57t69 -57q72 0 72 57z" />
    <glyph glyph-name="uni0E39" unicode="&#xe39;" 
d="M-92 -342q0 -113 -150 -113h-280v129q-5 -2 -11.5 -2h-17.5q-32 0 -58.5 9.5t-45.5 26t-30 38.5t-11 47t10.5 48t29 40t45.5 27t60 10q158 0 158 -133v-168h98q74 0 74 57v234h129v-250zM-479 -207q0 57 -72 57q-70 0 -70 -57t70 -57q72 0 72 57z" />
    <glyph glyph-name="uni0E3A" unicode="&#xe3a;" 
d="M-63 -164q0 -35 -25.5 -58.5t-67.5 -23.5t-67 23.5t-25 58.5t25 58.5t67 23.5t67.5 -23.5t25.5 -58.5z" />
    <glyph glyph-name="uni0E3F" unicode="&#xe3f;" horiz-adv-x="954" 
d="M893 268q0 -156 -82 -217q-35 -26 -92 -38.5t-135 -12.5h-64v-123h-108v123h-326v997h326v123h108v-123h55q291 0 291 -249q0 -174 -118 -226q145 -45 145 -254zM729 731q0 150 -156 150h-53v-310h62q147 0 147 160zM219 881v-310h193v310h-193zM762 289q0 164 -180 164
h-62v-334h62q99 0 133 26q47 36 47 144zM219 453v-334h193v334h-193z" />
    <glyph glyph-name="uni0E40" unicode="&#xe40;" horiz-adv-x="479" 
d="M459 139q0 -32 -11.5 -59t-32.5 -47t-50.5 -31.5t-65.5 -11.5q-37 0 -67.5 11t-52.5 31t-34 48t-12 63v676h129v-538q9 4 41 4q34 0 62.5 -11.5t49.5 -31.5t32.5 -46.5t11.5 -56.5zM379 139q0 26 -22 47t-54 21t-54 -21t-22 -47q0 -73 76 -73t76 73z" />
    <glyph glyph-name="uni0E41" unicode="&#xe41;" horiz-adv-x="887" 
d="M866 139q0 -32 -11.5 -59t-32 -47t-50 -31.5t-65.5 -11.5q-37 0 -67.5 11t-52.5 31t-34 48t-12 63v676h129v-538q9 4 41 4q34 0 62.5 -11.5t49 -31.5t32 -46.5t11.5 -56.5zM459 139q0 -32 -11.5 -59t-32.5 -47t-50.5 -31.5t-65.5 -11.5q-37 0 -67.5 11t-52.5 31t-34 48
t-12 63v676h129v-538q9 4 41 4q34 0 62.5 -11.5t49.5 -31.5t32.5 -46.5t11.5 -56.5zM786 139q0 26 -21.5 47t-53.5 21t-54 -21t-22 -47q0 -73 76 -73q75 0 75 73zM379 139q0 26 -22 47t-54 21t-54 -21t-22 -47q0 -73 76 -73t76 73z" />
    <glyph glyph-name="uni0E42" unicode="&#xe42;" horiz-adv-x="500" 
d="M479 139q0 -32 -11.5 -59t-32.5 -47t-50.5 -31.5t-65.5 -11.5q-37 0 -67.5 11t-52 31t-33.5 48t-12 63v951q0 77 -101 77h-157v76q0 69 56.5 107.5t153.5 38.5h175q95 0 145 -50q39 -39 39 -94h-139q0 72 -101 72h-88q-112 0 -112 -64v-18h106q152 0 152 -119v-839
q9 4 41 4q34 0 62.5 -11.5t49 -31.5t32 -46.5t11.5 -56.5zM399 139q0 26 -21.5 47t-53.5 21t-54 -21t-22 -47q0 -73 76 -73q75 0 75 73z" />
    <glyph glyph-name="uni0E43" unicode="&#xe43;" horiz-adv-x="500" 
d="M479 139q0 -32 -11.5 -59t-32.5 -47t-50.5 -31.5t-65.5 -11.5q-37 0 -67.5 11t-52 31t-33.5 48t-12 63v828q0 69 73 127q75 60 72 141q-3 99 -123 102q-23 2 -45.5 -0.5t-44.5 -7.5q82 -15 82 -104q0 -25 -10 -46.5t-28.5 -37.5t-43.5 -25.5t-55 -9.5t-56.5 10t-46 27.5
t-30.5 42.5t-11 55q0 75 68 125q64 43 156 43h96q221 0 221 -174q0 -78 -74 -143q-71 -65 -71 -121v-694q9 4 41 4q34 0 62.5 -11.5t49 -31.5t32 -46.5t11.5 -56.5zM90 1231q0 55 -57 55q-58 0 -58 -55t58 -55q57 0 57 55zM399 139q0 26 -21.5 47t-53.5 21t-54 -21t-22 -47
q0 -73 76 -73q75 0 75 73z" />
    <glyph glyph-name="uni0E44" unicode="&#xe44;" horiz-adv-x="500" 
d="M479 139q0 -32 -11.5 -59t-32.5 -47t-50.5 -31.5t-65.5 -11.5q-37 0 -67.5 11t-52 31t-33.5 48t-12 63v1151l-136 -145l-239 248h141l119 -125l102 100h142v-1091q9 4 41 4q34 0 62.5 -11.5t49 -31.5t32 -46.5t11.5 -56.5zM399 139q0 26 -21.5 47t-53.5 21t-54 -21
t-22 -47q0 -73 76 -73q75 0 75 73z" />
    <glyph glyph-name="uni0E45" unicode="&#xe45;" horiz-adv-x="762" 
d="M541 594q0 143 -189 143h-35q-188 0 -188 -143h-129v20q0 205 285 205h100q285 0 285 -205v-921h-129v901z" />
    <glyph glyph-name="uni0E46" unicode="&#xe46;" horiz-adv-x="825" 
d="M604 653q0 101 -90 101q-23 0 -41 -7.5t-31.5 -20t-22 -28t-11.5 -30.5q-34 88 -138 88q-22 0 -39 -4q91 -28 91 -107q0 -24 -10 -44.5t-28 -35.5t-43 -24t-55 -9q-31 0 -57.5 10t-46 28t-30.5 42.5t-11 53.5q0 34 17 64t45.5 52t67 34.5t81.5 12.5q115 0 156 -69
q40 69 143 69q40 0 73.5 -11.5t57.5 -33.5t37.5 -54.5t13.5 -74.5v-962h-129v960zM248 643q0 53 -62 53q-63 0 -63 -53t63 -53q62 0 62 53z" />
    <glyph glyph-name="uni0E47" unicode="&#xe47;" 
d="M-109 1038q0 -49 -38 -81.5t-107 -32.5q-63 0 -117 20t-100 62l-141 -74h-129v174q0 133 198 133h189q114 0 114 82h129q0 -143 -198 -143h-174q-129 0 -129 -88v-78l147 78q14 -14 40 -33.5t65 -42.5q-2 5 -2 10.5v13.5q0 22 9.5 42t26 35t40 23.5t50.5 8.5
q28 0 51 -8.5t40 -23.5t26.5 -35t9.5 -42zM-178 1038q0 52 -60 52q-61 0 -61 -52q0 -51 61 -51q60 0 60 51z" />
    <glyph glyph-name="uni0E48" unicode="&#xe48;" 
d="M-221 1518h129v-226h-129v226z" />
    <glyph glyph-name="uni0E49" unicode="&#xe49;" 
d="M61 1538q16 -246 -274 -246h-207v49q71 0 88 41h-10q-26 0 -47.5 7.5t-37.5 21t-25 31.5t-9 39t9 38.5t25 30t37.5 20t47.5 7.5q57 0 91 -28.5t34 -73.5q0 -78 -74 -129h55q202 0 187 192h110zM-285 1481q0 45 -57 45t-57 -45t57 -45t57 45z" />
    <glyph glyph-name="uni0E4A" unicode="&#xe4a;" 
d="M154 1559q-37 -22 -37 -64v-94q0 -109 -164 -109h-103v21q33 16 33 96q0 81 -59 84q-41 3 -70 -39q-17 45 -76 45t-75 -43q6 2 18 2q51 0 83 -24.5t32 -61.5t-32 -62.5t-83 -25.5q-28 0 -52 9t-41.5 26t-27.5 40t-10 52q0 28 12 55t33 47.5t49.5 33t61.5 12.5
q72 0 108 -46q22 23 49.5 35.5t61.5 10.5q28 0 50 -10.5t38 -28.5t24.5 -41t8.5 -47q0 -70 -27 -101q68 0 68 66v104q0 44 26 58h101zM-324 1372q0 39 -57 39q-53 0 -53 -39q0 -41 53 -41q57 0 57 41z" />
    <glyph glyph-name="uni0E4B" unicode="&#xe4b;" 
d="M-92 1292h-129v92h-107v72h107v92h129v-92h106v-72h-106v-92z" />
    <glyph glyph-name="uni0E4C" unicode="&#xe4c;" 
d="M-2 1487q2 -31 -7 -55.5t-25.5 -42t-39 -26.5t-47.5 -9q-43 0 -67 12q4 -7 4 -18q0 -48 -35 -78.5t-90 -30.5q-57 0 -91 30.5t-34 78.5q0 22 9.5 42t27 35t41 24t51.5 9q19 0 41 -4.5t41.5 -9.5t35 -9.5t21.5 -4.5q58 0 49 57h115zM-252 1348q0 49 -57 49q-60 0 -60 -49
q0 -52 60 -52q57 0 57 52z" />
    <glyph glyph-name="uni0E4D" unicode="&#xe4d;" 
d="M14 1077q0 -30 -12.5 -56t-35 -44.5t-54 -29.5t-68.5 -11t-68.5 11t-54.5 29.5t-36 44.5t-13 56t13 56t36 45t54.5 30t68.5 11t68.5 -11t54 -30t35 -45t12.5 -56zM-68 1077q0 76 -88 76q-90 0 -90 -76t90 -76q88 0 88 76z" />
    <glyph glyph-name="uni0E4E" unicode="&#xe4e;" 
d="M8 1356q-47 6 -96 6q-50 0 -92.5 -6.5t-74 -19t-49.5 -30t-18 -38.5q0 -62 119 -51v-76q-91 6 -172 -19q-90 -27 -90 -71q0 -41 72 -41q57 0 114 28l46 -67q-87 -41 -170 -41q-75 0 -121.5 29.5t-46.5 80.5q0 27 14 51t39 43t59.5 33t75.5 21q-45 28 -45 82q0 37 25 68
t70.5 53.5t108.5 35.5t140 13q23 0 46 -1t46 -3v-80v0z" />
    <glyph glyph-name="uni0E4F" unicode="&#xe4f;" horiz-adv-x="963" 
d="M901 410q0 -174 -123 -297t-297 -123t-297 123t-123 297t123 297q125 122 297 122t297 -122q123 -123 123 -297zM840 410q0 148 -107 252q-103 106 -252 106q-148 0 -254 -106q-104 -107 -104 -252q0 -147 104 -254q108 -105 254 -105q148 0 252 105q107 107 107 254z
M737 410q0 -107 -75 -183q-73 -73 -181 -73q-106 0 -182 73q-37 39 -55.5 84t-18.5 99q0 106 74 180q76 76 182 76t181 -76q75 -72 75 -180zM676 410q0 40 -15.5 75t-42 61.5t-62 42t-75.5 15.5t-75 -15.5t-61.5 -42t-42 -61.5t-15.5 -75t15.5 -75.5t42 -62t61.5 -42
t75 -15.5t75.5 15.5t62 42t42 62t15.5 75.5z" />
    <glyph glyph-name="uni0E50" unicode="&#xe50;" horiz-adv-x="872" 
d="M801 197q0 -197 -266 -197h-197q-266 0 -266 197v221q0 196 266 196h197q266 0 266 -196v-221zM672 397q0 76 -45.5 105.5t-143.5 29.5h-94q-98 0 -143 -29.5t-45 -105.5v-180q0 -75 45 -105t143 -30h94q99 0 144 30t45 105v180z" />
    <glyph glyph-name="uni0E51" unicode="&#xe51;" horiz-adv-x="913" 
d="M842 145q0 -104 -115 -186h-141q127 88 127 186v252q0 76 -45.5 105.5t-143.5 29.5h-135q-98 0 -143 -29.5t-45 -105.5v-219q0 -96 112 -96h113q76 0 76 57q-11 -6 -25.5 -9t-34.5 -3q-31 0 -57.5 10t-46 28.5t-30.5 43.5t-11 55q0 28 11.5 53.5t32 44.5t49 30t63.5 11
q33 0 61 -10.5t48.5 -29t32 -44t11.5 -55.5v-74q0 -190 -203 -190h-124q-207 0 -207 170v248q0 196 266 196h237q267 0 267 -196v-273zM514 264q0 26 -21.5 47t-50.5 21t-50 -21t-21 -47t21 -46.5t50 -20.5t50.5 20.5t21.5 46.5z" />
    <glyph glyph-name="uni0E52" unicode="&#xe52;" horiz-adv-x="1085" 
d="M1014 186q0 -186 -246 -186h-430q-246 0 -246 186v516q0 78 -53 117h145q37 -30 37 -102v-516q0 -32 8.5 -54.5t28.5 -36.5t52 -21t79 -7h328q47 0 79 7t52 21t28.5 36.5t8.5 54.5v237q0 101 -88 101q-39 0 -61.5 -25t-22.5 -57h-109q0 82 -84 82q-88 0 -88 -95v-38
q9 2 17 3t14 1q31 0 58 -11t46 -30t30 -44t11 -53q0 -30 -10.5 -55t-30 -44t-47 -29.5t-61.5 -10.5t-62.5 10t-49.5 28.5t-32.5 45t-11.5 59.5v175q0 42 14.5 74.5t41 54.5t63 33.5t80.5 11.5q118 0 157 -74q20 37 59 55.5t99 18.5q43 0 79 -11.5t62.5 -33.5t41 -54.5
t14.5 -74.5v-265zM535 272q0 25 -20.5 44.5t-51.5 19.5q-72 0 -72 -64q0 -67 72 -67t72 67z" />
    <glyph glyph-name="uni0E53" unicode="&#xe53;" horiz-adv-x="895" 
d="M694 438q0 101 -96 101q-45 0 -70.5 -30.5t-25.5 -72.5h-109q2 45 -23.5 74t-70.5 29q-98 0 -98 -101v-157q9 4 41 4q34 0 62.5 -11.5t49 -31.5t32 -46.5t11.5 -56.5q0 -32 -11.5 -59t-32 -47t-50 -31.5t-65.5 -11.5q-37 0 -67.5 11t-52.5 31t-34 48t-12 63v308
q0 42 15.5 74.5t43.5 54.5t66.5 33.5t83.5 11.5q139 0 168 -95q39 95 167 95q45 0 83 -11.5t65.5 -33.5t43 -54.5t15.5 -74.5v-451h-129v438zM317 139q0 26 -21.5 47t-53.5 21t-54 -21t-22 -47q0 -73 76 -73q75 0 75 73z" />
    <glyph glyph-name="uni0E54" unicode="&#xe54;" horiz-adv-x="895" 
d="M854 733q0 -201 -211 -201h-254q-50 0 -85.5 -7t-58.5 -23t-33.5 -43t-10.5 -66v-194q0 -66 34.5 -91.5t114.5 -25.5h152q-63 29 -95 74t-32 108q0 31 12 57.5t34 46t51.5 31t64.5 11.5q34 0 63 -11t50 -29.5t32.5 -44t11.5 -53.5t-11 -52.5t-31 -43t-48.5 -29
t-62.5 -10.5q45 -55 174 -55h119v-82h-539q-223 0 -223 170v244q0 200 266 200h248q139 0 139 113v92h129v-86zM614 272q0 66 -73 66q-76 0 -76 -66q0 -65 76 -65q73 0 73 65z" />
    <glyph glyph-name="uni0E55" unicode="&#xe55;" horiz-adv-x="895" 
d="M854 733q0 -201 -211 -201h-254q-50 0 -85.5 -7t-58.5 -23t-33.5 -43t-10.5 -66v-194q0 -66 34.5 -91.5t114.5 -25.5h152q-63 29 -95 74t-32 108q0 31 12 57.5t34 46t51.5 31t64.5 11.5q34 0 63 -11t50 -29.5t32.5 -44t11.5 -53.5t-11 -52.5t-31 -43t-48.5 -29
t-62.5 -10.5q45 -55 174 -55h119v-82h-539q-223 0 -223 170v244q0 188 229 200q-22 28 -22 66q0 30 12.5 56t34.5 44.5t52.5 29.5t67.5 11q38 0 69.5 -11.5t54.5 -30.5t35.5 -45t12.5 -54q0 -38 -22 -66q129 3 129 113v92h129v-86zM520 678q0 29 -21.5 48t-52.5 19
q-71 0 -71 -67q0 -66 71 -66q74 0 74 66zM614 272q0 66 -73 66q-76 0 -76 -66q0 -65 76 -65q73 0 73 65z" />
    <glyph glyph-name="uni0E56" unicode="&#xe56;" horiz-adv-x="872" 
d="M801 197q0 -197 -266 -197h-226q-50 0 -90.5 15t-69 40.5t-44 60t-15.5 74.5q0 31 11.5 57t32.5 45t49.5 29.5t62.5 10.5t61 -10t46 -27.5t29.5 -41t10.5 -50.5q0 -111 -125 -117q9 -4 51 -4h164q99 0 144 30t45 105v180q0 76 -45.5 105.5t-143.5 29.5h-75
q-150 0 -168 -108h-148v278q0 84 -55 117h145q39 -26 39 -108v-168q41 71 164 71h150q266 0 266 -196v-221zM317 203q0 59 -67 59q-70 0 -70 -59q0 -60 70 -60q67 0 67 60z" />
    <glyph glyph-name="uni0E57" unicode="&#xe57;" horiz-adv-x="1163" 
d="M1135 819q-64 -39 -64 -117v-505q0 -197 -231 -197h-146v438q0 101 -96 101q-45 0 -70.5 -30.5t-25.5 -72.5h-109q2 45 -23.5 74t-70.5 29q-98 0 -98 -101v-157q9 4 41 4q34 0 62.5 -11.5t49 -31.5t32 -46.5t11.5 -56.5q0 -32 -11.5 -59t-32 -47t-50 -31.5t-65.5 -11.5
q-37 0 -67.5 11t-52.5 31t-34 48t-12 63v308q0 42 15.5 74.5t43.5 54.5t66.5 33.5t83.5 11.5q139 0 168 -95q39 95 167 95q45 0 83 -11.5t65.5 -33.5t43 -54.5t15.5 -74.5v-379q119 0 119 133v504q0 71 47 110h146zM317 139q0 26 -21.5 47t-53.5 21t-54 -21t-22 -47
q0 -73 76 -73q75 0 75 73z" />
    <glyph glyph-name="uni0E58" unicode="&#xe58;" horiz-adv-x="901" 
d="M868 819q-39 -21 -39 -94v-51q0 -80 -44 -111t-138 -31h-262q-184 0 -184 -137v-221q0 -27 5 -44t15.5 -26t28 -12.5t43.5 -3.5l137 133l154 -139h30q86 0 86 61v15q-15 -4 -30 -4q-32 0 -58.5 11t-46 29.5t-30.5 43.5t-11 53q0 30 11 55.5t30.5 44t47 29t61.5 10.5
t62.5 -10t49 -28.5t32 -45t11.5 -59.5v-131q0 -37 -13.5 -66t-37.5 -49t-56 -30.5t-69 -10.5h-106l-113 106l-106 -106h-97q-159 0 -159 154v247q0 213 266 213h289q73 0 73 72v59q0 49 31 74h137zM741 291q0 67 -71 67q-72 0 -72 -67q0 -25 20.5 -44.5t51.5 -19.5
q71 0 71 64z" />
    <glyph glyph-name="uni0E59" unicode="&#xe59;" horiz-adv-x="1028" 
d="M1001 819q-45 -27 -45 -96v-277h-129q-28 82 -104 82h-33q-80 0 -80 -88q0 -15 6 -30l117 -299q14 -36 38 -63.5t56 -47.5h-143q-42 26 -68 90l-137 356q-33 86 -108 86h-52q-118 0 -118 -112v-139q9 4 41 4q34 0 62.5 -11.5t49 -31.5t32 -46.5t11.5 -56.5
q0 -32 -11.5 -59t-32 -47t-50 -31.5t-65.5 -11.5q-37 0 -67.5 11t-52.5 31t-34 48t-12 63v273q0 198 221 198h100q143 0 182 -77q20 77 111 77h39q75 0 102 -41v168q0 55 35 78h139zM317 139q0 26 -21.5 47t-53.5 21t-54 -21t-22 -47q0 -73 76 -73q75 0 75 73z" />
    <glyph glyph-name="uni0E5A" unicode="&#xe5a;" horiz-adv-x="1118" 
d="M897 717q-40 -52 -113 -80v-637h-129v700q-82 -159 -305 -178q-107 -9 -186 29q-94 46 -94 137q0 27 11 51t31.5 41.5t48 28t60.5 10.5t60 -9.5t46 -27t29.5 -40.5t10.5 -50q0 -62 -50 -98q114 -6 189 51q48 37 90 113q33 61 47 61h59q82 0 82 -88q28 9 66 51
q33 37 55 37h39q82 0 82 -88v-731h-129v717zM293 692q0 62 -72 62q-71 0 -71 -62q0 -61 71 -61q72 0 72 61z" />
    <glyph glyph-name="uni0E5B" unicode="&#xe5b;" horiz-adv-x="1516" 
d="M1475 434q0 -31 -56 -37l-172 -18q-17 -51 -49 -51q-17 0 -30 22.5t-27 46.5q-22 -94 -64 -94q-10 0 -19 8.5t-18 22t-17.5 30t-16.5 31.5q-23 -114 -70 -114q-22 0 -37 38q-32 90 -33 91q-36 -156 -98 -156q-33 0 -51 63l-23 95q-83 -353 -352 -353q-62 0 -114 26
t-89 72.5t-57.5 112t-20.5 144.5q0 150 74 254q77 104 184 104q46 0 86.5 -20t70 -55t46.5 -83t17 -104q0 -44 -10.5 -80.5t-29.5 -63t-45 -41t-57 -14.5q-27 0 -49.5 10.5t-39.5 29.5t-26.5 44.5t-9.5 55.5q0 28 10 53.5t27 45t39.5 31t46.5 11.5q5 0 25 -4
q-6 37 -33.5 63.5t-64.5 26.5q-33 0 -61.5 -20.5t-49.5 -56.5t-33 -86t-12 -109t13.5 -107t38.5 -82t59.5 -52t76.5 -18q48 0 91.5 27t78 75.5t59 117t35.5 151.5q13 88 60 88q71 0 104 -166q3 17 5 39t4 51q3 58 45 58q50 0 100 -125q5 26 6.5 41t3.5 18q9 27 31 27
q23 0 46.5 -26t49.5 -77q18 72 49 72q27 0 74 -65q15 37 45 34l178 -16q56 -3 56 -37zM451 453q0 63 -56 63q-53 0 -53 -63q0 -64 53 -64q56 0 56 64z" />
    <glyph glyph-name="zerowidthnonjoiner" unicode="&#x200c;" 
 />
    <glyph glyph-name="zerowidthjoiner" unicode="&#x200d;" 
 />
    <glyph glyph-name="endash" unicode="&#x2013;" horiz-adv-x="942" 
d="M61 461h820v-103h-820v103z" />
    <glyph glyph-name="emdash" unicode="&#x2014;" horiz-adv-x="1884" 
d="M61 461h1762v-103h-1762v103z" />
    <glyph glyph-name="quoteleft" unicode="&#x2018;" horiz-adv-x="342" 
d="M270 735q0 -37 -27.5 -61.5t-70.5 -24.5t-71.5 27t-28.5 72q0 27 9.5 53.5t25 50.5t36 44t41.5 32h86q-38 -23 -64 -49.5t-38 -57.5h4q98 0 98 -86z" />
    <glyph glyph-name="quoteright" unicode="&#x2019;" horiz-adv-x="342" 
d="M270 829q0 -27 -9.5 -53.5t-25 -50.5t-36 -44t-41.5 -32h-86q38 23 64 49.5t38 57.5h-4q-98 0 -98 86q0 37 27.5 61.5t70.5 24.5t71.5 -27t28.5 -72z" />
    <glyph glyph-name="quotedblleft" unicode="&#x201c;" horiz-adv-x="602" 
d="M530 735q0 -37 -27.5 -61.5t-70.5 -24.5t-71.5 27t-28.5 72q0 27 9.5 53.5t25 50.5t36 44t41.5 32h86q-38 -23 -64 -49.5t-38 -57.5h4q98 0 98 -86zM270 735q0 -37 -27.5 -61.5t-70.5 -24.5t-71.5 27t-28.5 72q0 27 9.5 53.5t25 50.5t36 44t41.5 32h86q-38 -23 -64 -49.5
t-38 -57.5h4q98 0 98 -86z" />
    <glyph glyph-name="quotedblright" unicode="&#x201d;" horiz-adv-x="602" 
d="M530 829q0 -27 -9.5 -53.5t-25 -50.5t-36 -44t-41.5 -32h-86q38 23 64 49.5t38 57.5h-4q-98 0 -98 86q0 37 27.5 61.5t70.5 24.5t71.5 -27t28.5 -72zM270 829q0 -27 -9.5 -53.5t-25 -50.5t-36 -44t-41.5 -32h-86q38 23 64 49.5t38 57.5h-4q-98 0 -98 86q0 37 27.5 61.5
t70.5 24.5t71.5 -27t28.5 -72z" />
    <glyph glyph-name="bullet" unicode="&#x2022;" horiz-adv-x="737" 
d="M676 410q0 -127 -90 -217q-91 -91 -217 -91q-129 0 -217 91q-91 88 -91 217q0 126 91 217q90 90 217 90q125 0 217 -90q90 -92 90 -217z" />
    <glyph glyph-name="ellipsis" unicode="&#x2026;" horiz-adv-x="1044" 
d="M963 72q0 -35 -25.5 -58.5t-67.5 -23.5t-67 23.5t-25 58.5t25 58.5t67 23.5t67.5 -23.5t25.5 -58.5zM614 72q0 -35 -25 -58.5t-67 -23.5t-67 23.5t-25 58.5t25 58.5t67 23.5t67 -23.5t25 -58.5zM266 72q0 -35 -25 -58.5t-67 -23.5t-67 23.5t-25 58.5t25 58.5t67 23.5
t67 -23.5t25 -58.5z" />
    <glyph glyph-name="thothannobasethai" unicode="&#xf700;" horiz-adv-x="872" 
d="M670 655q0 82 -172 82h-129q-189 0 -189 -104v-19h385q213 0 213 -143v-315q0 -156 -198 -156h-258l-27 188q-21 -10 -59 -10q-34 0 -62.5 11.5t-49.5 31.5t-32.5 46.5t-11.5 56.5q0 31 11.5 58.5t32.5 47.5t50.5 31.5t65.5 11.5q144 0 166 -154l30 -237h107
q106 0 106 78v270q0 59 -41 80q-27 12 -100 12h-457v115q0 182 268 182h236q134 0 201 -55q53 -44 53 -109h-139zM311 324q0 73 -75 73q-76 0 -76 -73q0 -26 22 -47t54 -21t53.5 21t21.5 47z" />
    <glyph glyph-name="saraileftthai" unicode="&#xf701;" 
d="M-1055 932q0 54 24.5 97.5t70 74t109.5 47t144 16.5q149 0 265 -65q110 -65 116 -170h-729zM-483 1004q-49 94 -219 94q-166 0 -199 -94h418z" />
    <glyph glyph-name="saraiileftthai" unicode="&#xf702;" 
d="M-1077 932q0 55 23 99t65 74t101 46t132 16q166 0 279 -75v139h129v-299h-729zM-506 1004q-57 94 -235 94q-35 0 -66 -7t-55.5 -19.5t-40 -29.5t-19.5 -38h416z" />
    <glyph glyph-name="saraueleftthai" unicode="&#xf703;" 
d="M-291 1130q0 -95 -106 -110q34 -41 49 -88h-729q0 55 23 99t65 74t101 46t132 16q103 0 187 -30q5 49 42 81.5t97 32.5q31 0 56.5 -9.5t44 -25.5t28.5 -38.5t10 -47.5zM-365 1130q0 56 -65 56q-64 0 -64 -56q0 -55 64 -55q65 0 65 55zM-522 1004q-58 94 -238 94
q-34 0 -64.5 -7t-54.5 -19.5t-40 -29.5t-21 -38h418z" />
    <glyph glyph-name="saraueeleftthai" unicode="&#xf704;" 
d="M-1077 932q0 55 23 99t65 74t101 46t132 16q29 0 56.5 -1.5t50.5 -6.5v72h108v-105q17 -8 33.5 -16.5t30.5 -17.5v139h129v-299h-729zM-506 1004q-57 94 -235 94q-35 0 -66 -7t-55.5 -19.5t-40 -29.5t-19.5 -38h416z" />
    <glyph glyph-name="maieklowleftthai" unicode="&#xf705;" 
d="M-500 1229h129v-287h-129v287z" />
    <glyph glyph-name="maitholowleftthai" unicode="&#xf706;" 
d="M-199 1231q16 -289 -323 -289h-244v57q89 0 104 50h-10q-31 0 -57 8.5t-44.5 24t-29 36.5t-10.5 45q0 51 39 83t102 32q66 0 106 -33.5t40 -87.5q0 -88 -86 -153h61q246 0 223 227h129zM-608 1163q0 54 -68 54q-65 0 -65 -54q0 -53 65 -53q68 0 68 53z" />
    <glyph glyph-name="maitrilowleftthai" unicode="&#xf707;" 
d="M-182 1257q-39 -20 -39 -75v-111q0 -129 -174 -129h-111v25q37 21 37 112q0 98 -63 101q-45 3 -74 -47q-20 53 -80 53q-61 0 -82 -49q6 2 23 2q25 0 47 -8t38 -22t25.5 -32.5t9.5 -40.5q0 -43 -33 -72.5t-87 -29.5q-30 0 -55.5 10.5t-44.5 30t-29.5 47t-10.5 61.5
t12.5 65.5t34 55.5t51 38.5t64.5 14.5q76 0 117 -53q23 28 52 41.5t65 11.5q28 -1 51.5 -13.5t41 -33t27 -47t9.5 -55.5q0 -75 -29 -119q72 0 72 78v123q0 53 26 67h109zM-690 1036q0 47 -58 47q-59 0 -59 -47t59 -47q58 0 58 47z" />
    <glyph glyph-name="maichattawalowleftthai" unicode="&#xf708;" 
d="M-414 936h-129v113h-129v71h129v113h129v-113h129v-71h-129v-113z" />
    <glyph glyph-name="thanthakhatlowleftthai" unicode="&#xf709;" 
d="M-182 1208q2 -35 -8.5 -62t-29 -46t-43.5 -29t-52 -10q-47 0 -74 12q4 -5 4 -20q0 -26 -10 -48t-28.5 -38t-44 -25.5t-56.5 -9.5t-56.5 9.5t-44 25.5t-29 38t-10.5 48q0 25 11 47.5t30.5 40t45.5 27.5t57 10q21 0 45.5 -5t46.5 -11.5t39 -11.5t24 -5q29 0 44 19.5
t10 43.5h129zM-461 1053q0 55 -63 55q-66 0 -66 -55q0 -56 66 -56q63 0 63 56z" />
    <glyph glyph-name="maieklowrightthai" unicode="&#xf70a;" 
d="M-221 1219h129v-287h-129v287z" />
    <glyph glyph-name="maitholowrightthai" unicode="&#xf70b;" 
d="M12 1221q22 -289 -321 -289h-244v57q89 0 104 49h-12q-63 0 -101 32t-38 83t38 83t101 32q69 0 108.5 -33.5t39.5 -87.5q0 -89 -86 -154h61q246 0 221 228h129zM-395 1153q0 53 -68 53q-65 0 -65 -53t65 -53q68 0 68 53z" />
    <glyph glyph-name="maitrilowrightthai" unicode="&#xf70c;" 
d="M4 1247q-43 -24 -43 -76v-110q0 -129 -192 -129h-121v24q41 24 41 113q0 19 -5 36.5t-14.5 31t-23 22.5t-31.5 10q-51 3 -80 -47q-23 54 -90 54q-69 0 -90 -50q5 2 10.5 2h13.5q60 0 97 -29.5t37 -72.5t-37 -72.5t-97 -29.5q-33 0 -61.5 10.5t-49 30t-32.5 47t-12 61.5
t14 65.5t38 55.5t57.5 38.5t72.5 14.5q82 0 129 -53q50 56 129 53q31 -1 57.5 -14t45.5 -34t29.5 -47.5t10.5 -53.5q0 -79 -30 -119q78 0 78 78v123q0 50 32 67h117zM-559 1026q0 47 -64 47q-65 0 -65 -47t65 -47q64 0 64 47z" />
    <glyph glyph-name="maichattawalowrightthai" unicode="&#xf70d;" 
d="M-92 932h-129v112h-129v72h129v113h129v-113h129v-72h-129v-112z" />
    <glyph glyph-name="thanthakhatlowrightthai" unicode="&#xf70e;" 
d="M2 1208q2 -35 -8 -62t-28.5 -46t-43.5 -29t-53 -10q-46 0 -74 12q4 -5 4 -20q0 -26 -10 -48t-28.5 -38t-44 -25.5t-56.5 -9.5t-56.5 9.5t-44 25.5t-28.5 38t-10 48q0 25 11 47.5t30 40t45 27.5t57 10q21 0 45.5 -5t46.5 -11.5t39.5 -11.5t24.5 -5q29 0 43.5 19.5
t9.5 43.5h129zM-276 1053q0 55 -64 55q-66 0 -66 -55q0 -56 66 -56q64 0 64 56z" />
    <glyph glyph-name="yoyingnobasethai" unicode="&#xf70f;" horiz-adv-x="1407" 
d="M1315 174q0 -174 -246 -174h-149q-67 0 -114 10t-77 31t-43.5 54t-13.5 79v420q0 143 -189 143h-84q-188 0 -188 -123v-30h180v-74q-63 -3 -112 -37q-58 -36 -58 -92v-100q9 4 41 4q34 0 62.5 -11.5t49.5 -31.5t32.5 -46.5t11.5 -56.5q0 -32 -11.5 -59t-32.5 -47
t-50.5 -31.5t-65.5 -11.5q-37 0 -67.5 11t-52.5 31t-34 48t-12 63v242q0 111 170 141h-180v105q0 43 20.5 77.5t58.5 59t90.5 38t117.5 13.5h147q285 0 285 -205v-419q0 -72 55 -97q36 -16 115 -16h47q79 0 115 16q53 26 53 97v624h129v-645zM338 139q0 26 -22 47t-54 21
t-54 -21t-22 -47q0 -73 76 -73t76 73z" />
    <glyph glyph-name="maihanakatleftthai" unicode="&#xf710;" 
d="M-70 1204q6 -65 -17 -116t-71.5 -86.5t-120.5 -55t-163 -20.5q-125 -4 -211 43q-92 53 -92 139q0 25 10 47.5t29 39.5t44.5 26.5t57.5 9.5q63 0 100 -32t37 -83q0 -39 -26.5 -69.5t-63.5 -38.5q45 -20 137 -17q211 6 211 168q0 11 -1 22t-3 23h143zM-537 1116
q0 53 -65 53q-64 0 -64 -53t64 -53q65 0 65 53z" />
    <glyph glyph-name="nikhahitleftthai" unicode="&#xf711;" 
d="M-256 1077q0 -27 -11.5 -50t-31.5 -40t-47 -27t-57 -10q-31 0 -58 10t-47 27t-31.5 40t-11.5 50t11.5 50t31.5 40.5t47 27t58 9.5q30 0 57 -9.5t47 -27t31.5 -40.5t11.5 -50zM-328 1077q0 68 -75 68q-76 0 -76 -68q0 -67 76 -67q75 0 75 67z" />
    <glyph glyph-name="maitaikhuleftthai" unicode="&#xf712;" 
d="M-285 1038q0 -49 -38 -81.5t-107 -32.5q-63 0 -117 20t-100 62l-141 -74h-130v174q0 133 197 133h191q112 0 112 82h129q0 -78 -46 -110.5t-150 -32.5h-174q-129 0 -129 -88v-78l147 78q14 -14 40 -33.5t64 -42.5q-2 5 -2 10.5v13.5q0 22 9.5 42t26.5 35t40.5 23.5
t50.5 8.5q28 0 51 -8.5t40 -23.5t26.5 -35t9.5 -42zM-354 1038q0 52 -60 52q-61 0 -61 -52q0 -51 61 -51q60 0 60 51z" />
    <glyph glyph-name="maiekupperleftthai" unicode="&#xf713;" 
d="M-477 1518h129v-226h-129v226z" />
    <glyph glyph-name="maithoupperleftthai" unicode="&#xf714;" 
d="M-154 1538q16 -246 -274 -246h-207v49q71 0 88 41h-10q-26 0 -47.5 7.5t-37.5 21t-25 31.5t-9 39t9 38.5t25 30t37.5 20t47.5 7.5q57 0 91 -28.5t34 -73.5q0 -78 -74 -129h55q202 0 187 192h110zM-500 1481q0 45 -57 45t-57 -45t57 -45t57 45z" />
    <glyph glyph-name="maitriupperleftthai" unicode="&#xf715;" 
d="M-45 1559q-37 -22 -37 -64v-94q0 -109 -164 -109h-102v21q35 20 35 96q0 81 -62 84q-42 3 -67 -39q-20 45 -78 45q-55 0 -76 -43q6 2 21 2q49 0 80.5 -24.5t31.5 -61.5t-31.5 -62.5t-80.5 -25.5q-57 0 -94.5 35t-37.5 92q0 28 11.5 55t32.5 47.5t49 33t61 12.5
q71 0 111 -46q21 23 48.5 35.5t59.5 10.5q28 0 50 -10.5t38 -28.5t24.5 -41t8.5 -47q0 -67 -25 -101q66 0 66 66v104q0 44 29 58h98zM-522 1372q0 39 -56 39q-55 0 -55 -39q0 -41 55 -41q56 0 56 41z" />
    <glyph glyph-name="maichattawaupperleftthai" unicode="&#xf716;" 
d="M-348 1292h-129v92h-107v72h107v92h129v-92h108v-72h-108v-92z" />
    <glyph glyph-name="thanthakhatupperleftthai" unicode="&#xf717;" 
d="M-207 1487q2 -31 -7 -55.5t-25.5 -42t-39 -26.5t-47.5 -9q-43 0 -67 12q4 -7 4 -18q0 -48 -34 -78.5t-91 -30.5t-91 30.5t-34 78.5q0 22 9.5 42t27 35t41 24t51.5 9q19 0 41 -4.5t41.5 -9.5t35 -9.5t21.5 -4.5q59 0 49 57h115zM-457 1348q0 49 -57 49q-59 0 -59 -49
q0 -52 59 -52q57 0 57 52z" />
    <glyph glyph-name="saraulowthai" unicode="&#xf718;" 
d="M-221 -674q-5 -2 -11.5 -2h-17.5q-32 0 -58.5 9.5t-45.5 25.5t-30 38t-11 48q0 25 10.5 48t29 40t45.5 27t60 10q158 0 158 -133v-260h-129v149zM-178 -555q0 57 -72 57q-69 0 -69 -57t69 -57q72 0 72 57z" />
    <glyph glyph-name="sarauulowthai" unicode="&#xf719;" 
d="M-92 -686q0 -113 -150 -113h-280v129q-5 -2 -11.5 -2h-17.5q-32 0 -58.5 9.5t-45.5 26t-30 38.5t-11 47t10.5 48t29 40t45.5 27t60 10q158 0 158 -133v-168h98q74 0 74 57v234h129v-250zM-479 -551q0 57 -72 57q-70 0 -70 -57t70 -57q72 0 72 57z" />
    <glyph glyph-name="phinthulowthai" unicode="&#xf71a;" 
d="M-92 -512q0 -35 -25 -58.5t-67 -23.5t-67 23.5t-25 58.5t25 58.5t67 23.5t67 -23.5t25 -58.5z" />
    <glyph glyph-name="lochula.short" unicode="&#xf71d;" 
 />
    <glyph glyph-name="fongmanfunnuthai" unicode="&#xf880;" 
 />
    <glyph glyph-name="uni0E33_1" horiz-adv-x="762" 
d="M541 594q0 143 -189 143h-35q-188 0 -188 -143h-129v20q0 205 285 205h100q285 0 285 -205v-614h-129v594zM-256 1077q0 -27 -11.5 -50t-31.5 -40t-47 -27t-57 -10q-31 0 -58 10t-47 27t-31.5 40t-11.5 50t11.5 50t31.5 40.5t47 27t58 9.5q30 0 57 -9.5t47 -27
t31.5 -40.5t11.5 -50zM-328 1077q0 68 -75 68q-76 0 -76 -68q0 -67 76 -67q75 0 75 67z" />
    <glyph glyph-name="uni0E4E_1" 
d="M-84 1356q-47 6 -96 6q-50 0 -92.5 -6.5t-74 -19t-49.5 -30t-18 -38.5q0 -62 119 -51v-76q-92 6 -172 -19q-90 -27 -90 -71q0 -41 72 -41q54 0 114 28l45 -67q-85 -41 -170 -41q-37 0 -67.5 8t-53 22t-35 34.5t-12.5 45.5q0 27 14 51t39.5 43t60 33t75.5 21
q-45 28 -45 82q0 37 25 68t70.5 53.5t108.5 35.5t140 13q23 0 46 -1t46 -3v-80v0z" />
    <glyph glyph-name="F881" 
 />
    <glyph glyph-name="F882" 
 />
    <glyph glyph-name="saraueesp2" 
d="M-563 1518h129v-226h-129v226zM-1077 932q0 55 23 99t65 74t101 46t132 16q29 0 56.5 -1.5t50.5 -6.5v72h108v-105q17 -8 33.5 -16.5t30.5 -17.5v139h129v-299h-729zM-506 1004q-57 94 -235 94q-35 0 -66 -7t-55.5 -19.5t-40 -29.5t-19.5 -38h416z" />
    <glyph glyph-name="saraisp" 
d="M-842 1059q0 54 24.5 97.5t70 74t109.5 47t144 16.5q76 0 141.5 -15.5t119.5 -47.5q117 -67 120 -172h-729zM-268 1130q-50 95 -219 95t-199 -95h418z" />
    <glyph glyph-name="saraiisp" 
d="M-842 1059q0 55 23 99t65 74t101.5 46t132.5 16q166 0 278 -75v139h129v-299h-729zM-270 1130q-59 95 -236 95q-35 0 -66 -7t-55 -19.5t-39.5 -30t-19.5 -38.5h416z" />
    </font>
</defs>
</svg>
