<?xml version="1.0" standalone="no"?>
<!DOCTYPE svg PUBLIC "-//W3C//DTD SVG 1.1//EN" "http://www.w3.org/Graphics/SVG/1.1/DTD/svg11.dtd" >
<svg xmlns="http://www.w3.org/2000/svg" xmlns:xlink="http://www.w3.org/1999/xlink" version="1.1">
<metadata>
Created by FontForge 20170731 at Wed Sep 16 21:06:49 2009
 By Aleksey,,,
Copyright (c) Phanlop Thongsuk, 1995-2009. All rights reserved.
</metadata>
<defs>
<font id="PSLEmpirePro" horiz-adv-x="0" >
  <font-face 
    font-family="PSL Empire Pro ()"
    font-weight="400"
    font-stretch="normal"
    units-per-em="2048"
    panose-1="2 0 5 6 0 0 0 2 0 4"
    ascent="1638"
    descent="-410"
    x-height="702"
    cap-height="965"
    bbox="-870 -645 1567 1599"
    underline-thickness="72"
    underline-position="-267"
    unicode-range="U+0020-F880"
  />
<missing-glyph horiz-adv-x="1599" 
d="M100 1599h1399v-1599h-1399v1599zM1401 1499h-1200v-1399h1200v1399z" />
    <glyph glyph-name="saraueesp1" unicode="&#xe37;&#xe48;" 
d="M-666 1044h236v103h123v-103h61v103h205v-225h-625v122zM-336 1362h205v-164h-205v164z" />
    <glyph glyph-name=".notdef" horiz-adv-x="1599" 
d="M100 1599h1399v-1599h-1399v1599zM1401 1499h-1200v-1399h1200v1399z" />
    <glyph glyph-name=".null" 
 />
    <glyph glyph-name="nonmarkingreturn" horiz-adv-x="573" 
 />
    <glyph glyph-name="space" unicode=" " horiz-adv-x="573" 
 />
    <glyph glyph-name="space" unicode="&#xa0;" horiz-adv-x="573" 
 />
    <glyph glyph-name="exclam" unicode="!" horiz-adv-x="387" 
d="M141 319l-61 396v250h227v-250l-61 -396h-105zM72 254h245v-254h-245v254z" />
    <glyph glyph-name="quotedbl" unicode="&#x22;" horiz-adv-x="655" 
d="M383 965h186v-488h-186v488zM84 965h186v-488h-186v488z" />
    <glyph glyph-name="numbersign" unicode="#" horiz-adv-x="766" 
d="M596 399h80v-141h-101l-34 -258h-156l35 258h-121l-35 -258h-155l34 258h-92v141h113l20 150h-96v141h115l35 252h155l-35 -252h121l35 252h156l-35 -252h78v-141h-97zM319 399h121l21 150h-121z" />
    <glyph glyph-name="dollar" unicode="$" horiz-adv-x="868" 
d="M842 305q0 -158 -115 -246q-94 -70 -256 -79v-119h-59v119q-85 3 -151.5 24.5t-117.5 63.5q-116 92 -116 256h243q0 -130 142 -148v217q-88 23 -146.5 43.5t-89.5 40.5q-121 73 -121 217q0 133 111 213q102 74 246 78v123h59v-125q76 -5 139 -29.5t108 -65t70 -95
t25 -119.5h-250q0 97 -92 112v-182q181 -47 246 -84q125 -74 125 -215zM412 791q-115 -4 -115 -76q0 -61 115 -94v170zM596 268q0 68 -125 109v-201q125 12 125 92z" />
    <glyph glyph-name="percent" unicode="%" horiz-adv-x="1133" 
d="M1096 246q0 -61 -17 -109t-47 -81.5t-72 -51.5t-92 -18t-91.5 18t-71.5 51.5t-47 81.5t-17 109t17 109t47 81.5t71.5 51.5t91.5 18t92 -18t72 -51.5t47 -81.5t17 -109zM240 -37l528 1016h131l-530 -1016h-129zM489 696q0 -60 -17 -108.5t-47 -82t-72 -51.5t-91 -18
q-50 0 -91.5 18t-71.5 51.5t-47 82t-17 108.5q0 61 17 109t47 81.5t71.5 51.5t91.5 18q49 0 91 -18t72 -51.5t47 -81.5t17 -109zM940 244q0 151 -72 151q-73 0 -73 -151q0 -152 71 -152q74 0 74 152zM334 694q0 152 -72 152q-74 0 -74 -152q0 -151 72 -151q74 0 74 151z" />
    <glyph glyph-name="ampersand" unicode="&#x26;" horiz-adv-x="948" 
d="M629 78q-126 -96 -267 -96q-135 0 -223 73q-96 82 -96 213q0 175 211 283q-80 110 -80 197q0 98 78 167q40 36 86 53t100 17q56 0 105.5 -18t86 -50.5t58 -77.5t21.5 -98q0 -152 -168 -243l100 -119q34 55 37 92h196q-27 -132 -106 -246l190 -225h-266zM524 745
q0 78 -75 78q-76 0 -76 -82q0 -39 55 -112q96 45 96 116zM367 408q-107 -62 -107 -138q0 -21 10 -40t27 -33.5t38 -22.5t44 -8q59 0 131 63z" />
    <glyph glyph-name="quotesingle" unicode="'" horiz-adv-x="387" 
d="M98 965h187v-488h-187v488z" />
    <glyph glyph-name="parenleft" unicode="(" horiz-adv-x="420" 
d="M215 -244q-85 154 -126.5 306t-41.5 309t41.5 308.5t126.5 305.5h186q-147 -311 -147 -614q0 -305 147 -615h-186v0z" />
    <glyph glyph-name="parenright" unicode=")" horiz-adv-x="420" 
d="M375 371q0 -311 -168 -615h-187q148 308 148 615q0 306 -148 614h187q168 -305 168 -614z" />
    <glyph glyph-name="asterisk" unicode="*" horiz-adv-x="600" 
d="M510 535l-109 -80l-102 151l-102 -151l-109 80l109 139l-164 49l41 127l159 -57v172h134v-170l157 55l41 -127l-164 -49z" />
    <glyph glyph-name="plus" unicode="+" horiz-adv-x="819" 
d="M494 2h-166v254h-256v166h256v256h166v-256h254v-166h-254v-254z" />
    <glyph glyph-name="comma" unicode="," horiz-adv-x="342" 
d="M281 25q0 -103 -76 -175q-34 -30 -69.5 -45.5t-74.5 -15.5q3 9 0 96q18 0 35.5 10t31 26t22 37t8.5 42h-97v209h220v-184v0z" />
    <glyph glyph-name="hyphen" unicode="-" horiz-adv-x="530" 
d="M61 455h408v-174h-408v174z" />
    <glyph glyph-name="period" unicode="." horiz-adv-x="342" 
d="M61 209h220v-209h-220v209z" />
    <glyph glyph-name="slash" unicode="/" horiz-adv-x="535" 
d="M-12 -20l354 1005h205l-354 -1005h-205z" />
    <glyph glyph-name="zero" unicode="0" horiz-adv-x="819" 
d="M770 471q0 -114 -24.5 -204t-71 -152.5t-114 -95.5t-154.5 -33q-86 0 -153.5 33t-113.5 95.5t-70 152.5t-24 204t24.5 204t71 152.5t114.5 95.5t155 33q86 0 153 -33t113 -95.5t70 -152.5t24 -204zM561 471q0 299 -151 299q-152 0 -152 -299t152 -299q151 0 151 299z" />
    <glyph glyph-name="one" unicode="1" horiz-adv-x="819" 
d="M354 578h-221v172q249 0 270 192h185v-942h-234v578z" />
    <glyph glyph-name="two" unicode="2" horiz-adv-x="819" 
d="M37 0q0 238 270 408q66 42 106 68t54 38q74 62 74 125q0 25 -9.5 46.5t-26 36.5t-38.5 23.5t-47 8.5q-152 0 -152 -191h-209q-15 164 86 279q51 57 117.5 84.5t151.5 27.5q146 0 241 -73q105 -81 105 -219q0 -125 -76 -207q-22 -23 -63.5 -54t-104.5 -69
q-126 -75 -178 -137h434v-195h-735v0z" />
    <glyph glyph-name="three" unicode="3" horiz-adv-x="819" 
d="M776 293q0 -70 -26.5 -126.5t-75.5 -96t-117 -61t-151 -21.5q-180 0 -277.5 90t-97.5 264h209q0 -168 161 -168q152 0 152 119q0 127 -152 127q-48 0 -69 -6v161q6 -2 21.5 -2h41.5q30 0 56 6.5t45.5 19t31 31t11.5 42.5q0 45 -43 73q-41 23 -93 23q-135 0 -135 -133
h-211q0 70 25.5 129t72 101t112 65.5t145.5 23.5q136 0 231 -65q107 -77 107 -197q0 -155 -129 -182v-6q30 -2 58 -19t49.5 -45.5t34.5 -66t13 -80.5z" />
    <glyph glyph-name="four" unicode="4" horiz-adv-x="819" 
d="M680 0h-219v209h-445v213l449 520h215v-539h119v-194h-119v-209zM209 403h252v293z" />
    <glyph glyph-name="five" unicode="5" horiz-adv-x="819" 
d="M768 332q0 -172 -109 -260q-100 -82 -270 -82q-83 0 -149.5 19.5t-113.5 58t-72 95t-25 130.5h219q0 -55 49 -88q40 -31 96 -31q31 0 59.5 11.5t50 31.5t34 47t12.5 58q0 36 -11 65.5t-30.5 51t-46.5 33t-58 11.5q-98 0 -147 -73h-203l92 532h576v-194h-406l-32 -177
q66 72 182 72q67 0 123 -21t96 -61t62 -98t22 -131z" />
    <glyph glyph-name="six" unicode="6" horiz-adv-x="819" 
d="M774 336q0 -81 -26.5 -145.5t-74 -109.5t-114 -69t-147.5 -24q-182 0 -279 139q-90 127 -90 338q0 111 27 201.5t78 154.5t125 98.5t169 34.5q269 0 324 -256h-211q-15 86 -106 86t-144 -86q-23 -35 -34 -72t-11 -79h8q59 98 207 98q127 0 213 -92t86 -217zM563 324
q0 31 -11.5 59t-31.5 48t-46.5 32t-57.5 12q-32 0 -59 -12t-47.5 -32t-32 -47t-11.5 -58q0 -32 11.5 -59.5t31.5 -48t47 -32.5t58 -12t58.5 12t47.5 32.5t31.5 47.5t11.5 58z" />
    <glyph glyph-name="seven" unicode="7" horiz-adv-x="819" 
d="M739 758q-48 -40 -95.5 -116.5t-98.5 -188.5q-96 -216 -96 -453h-240q12 222 121 453q23 49 49 95t57 91q52 78 76 92v2h-436v209h663v-184v0z" />
    <glyph glyph-name="eight" unicode="8" horiz-adv-x="819" 
d="M784 270q0 -139 -108 -215q-100 -67 -264 -67q-168 0 -265 67q-110 77 -110 215q0 179 170 232v2q-135 46 -135 196q0 107 98 181q100 73 242 73t239 -73q101 -74 101 -179q0 -148 -138 -200q170 -56 170 -232zM551 676q0 22 -11 41.5t-29.5 34.5t-43.5 23.5t-53 8.5
q-29 0 -54 -8.5t-44.5 -23.5t-30.5 -34.5t-11 -41.5q0 -23 11 -43t29.5 -35t43.5 -24t54 -9q28 0 53.5 8.5t44.5 23t30 35t11 44.5zM561 291q0 28 -12 52t-32 42t-48 28.5t-59 10.5q-33 0 -61 -10.5t-49 -28.5t-32.5 -42t-11.5 -52t12 -52t32.5 -42t48 -28.5t59.5 -10.5
q33 0 61 10.5t48.5 28.5t32 42t11.5 52z" />
    <glyph glyph-name="nine" unicode="9" horiz-adv-x="819" 
d="M774 477q0 -111 -27 -201.5t-78 -154.5t-125.5 -98.5t-168.5 -34.5q-269 0 -324 256h211q15 -86 107 -86q90 0 143 86q23 35 34 72t11 79h-8q-59 -98 -207 -98q-127 0 -213 92q-43 48 -64.5 101t-21.5 116q0 81 26.5 145.5t74 109.5t114.5 69t148 24q183 0 280 -139
q88 -124 88 -338zM551 618q0 31 -11.5 58t-31.5 47.5t-47 32.5t-58 12q-32 0 -59 -12t-47 -32.5t-31.5 -47.5t-11.5 -58t11.5 -58.5t31.5 -48t46.5 -32.5t57.5 -12t58.5 12t48 32.5t32 48t11.5 58.5z" />
    <glyph glyph-name="colon" unicode=":" horiz-adv-x="342" 
d="M61 696h220v-209h-220v209zM61 209h220v-209h-220v209z" />
    <glyph glyph-name="semicolon" unicode=";" horiz-adv-x="342" 
d="M61 696h220v-209h-220v209zM281 25q0 -103 -76 -175q-34 -30 -69.5 -45.5t-74.5 -15.5q3 9 0 96q18 0 35.5 10t31 26t22 37t8.5 42h-97v209h220v-184z" />
    <glyph glyph-name="less" unicode="&#x3c;" horiz-adv-x="758" 
d="M51 438l656 256v-207l-394 -141v-6l394 -141v-207l-656 256v190z" />
    <glyph glyph-name="equal" unicode="=" horiz-adv-x="819" 
d="M72 594h676v-166h-676v166zM72 254h676v-166h-676v166z" />
    <glyph glyph-name="greater" unicode="&#x3e;" horiz-adv-x="758" 
d="M51 199l393 141v6l-393 141v207l656 -256v-190l-656 -256v207z" />
    <glyph glyph-name="question" unicode="?" horiz-adv-x="754" 
d="M713 702q0 -97 -64 -161l-119 -88q-32 -23 -47.5 -49t-15.5 -52v-33h-211v66q0 85 55 143l105 82q55 43 55 99q0 82 -88 82q-113 0 -113 -142h-231q0 78 25 140t71 105.5t109.5 67t140.5 23.5q74 0 134.5 -21t103.5 -59t66.5 -90t23.5 -113zM238 252h245v-252h-245v252z
" />
    <glyph glyph-name="at" unicode="@" horiz-adv-x="1069" 
d="M1026 557q0 -148 -98 -258q-97 -106 -234 -106q-83 0 -69 65h-11q-62 -65 -139 -65q-90 0 -153 69q-64 70 -64 164q0 127 78 217t192 90q99 0 172 -94l17 82h106l-57 -311q-18 -97 20 -97q28 0 54 17t46.5 47t33 71t12.5 89q0 162 -111 258q-108 90 -278 90t-287 -117
q-115 -115 -115 -289q0 -165 119 -284t285 -119q169 0 272 92h135q-165 -188 -407 -188q-206 0 -355 145q-147 147 -147 354q0 208 145 357q145 147 353 147q198 0 338 -115q147 -120 147 -311zM668 483q0 25 -9 47t-25 39t-36.5 27t-44.5 10q-33 0 -61 -12t-49 -33
t-32.5 -50.5t-11.5 -64.5q0 -24 8 -46t23 -38.5t35.5 -26t46.5 -9.5q31 0 59.5 12t50 33.5t34 50t12.5 61.5z" />
    <glyph glyph-name="A" unicode="A" horiz-adv-x="924" 
d="M629 172h-334l-59 -172h-248l350 965h248l350 -965h-248zM461 702l-111 -342h223l-110 342h-2z" />
    <glyph glyph-name="B" unicode="B" horiz-adv-x="948" 
d="M899 295q0 -295 -377 -295h-438v965h438q338 0 338 -238q0 -149 -123 -195v-6q36 -9 66 -30t51.5 -51.5t33 -68.5t11.5 -81zM618 680q0 90 -100 90h-190v-184h186q48 0 76 28t28 66zM653 307q0 117 -139 117h-186v-223h194q131 0 131 106z" />
    <glyph glyph-name="C" unicode="C" horiz-adv-x="995" 
d="M705 621q-11 69 -59.5 109t-123.5 40q-52 0 -94 -21.5t-71.5 -59.5t-45.5 -90.5t-16 -113.5q0 -63 14 -112.5t43 -89.5q60 -88 168 -88q37 0 70 13.5t58 37.5t40.5 57t18.5 72h241q0 -171 -123 -285q-122 -110 -305 -110q-211 0 -342 149q-123 138 -123 346q0 114 32 204
t95 163q128 143 340 143q173 0 301 -108q127 -109 127 -256h-245v0z" />
    <glyph glyph-name="D" unicode="D" horiz-adv-x="995" 
d="M946 485q0 -114 -31 -204.5t-88.5 -152.5t-140.5 -95t-186 -33h-416v965h389q113 0 201 -32.5t148.5 -94t92 -150.5t31.5 -203zM700 481q0 269 -260 269h-112v-533h106q73 0 124 15t82.5 47t45.5 82t14 120z" />
    <glyph glyph-name="E" unicode="E" horiz-adv-x="897" 
d="M84 965h745v-201h-501v-170h458v-195h-458v-182h514v-217h-758v965z" />
    <glyph glyph-name="F" unicode="F" horiz-adv-x="801" 
d="M328 567h385v-194h-385v-373h-244v965h688v-201h-444v-197z" />
    <glyph glyph-name="G" unicode="G" horiz-adv-x="1020" 
d="M774 100q-102 -120 -260 -120q-211 0 -342 149q-123 138 -123 346q0 114 32 204t95 163q128 143 340 143q94 0 171 -29t140 -86q110 -102 113 -233h-246q-21 133 -178 133q-52 0 -94 -21.5t-71.5 -59.5t-45.5 -90.5t-16 -113.5q0 -63 14 -112.5t43 -89.5q60 -88 168 -88
q36 0 71 10t64 29t49.5 46t28.5 62h-172v186h393v-528h-155z" />
    <glyph glyph-name="H" unicode="H" horiz-adv-x="971" 
d="M647 397h-321v-397h-244v965h244v-351h321v351h244v-965h-244v397z" />
    <glyph glyph-name="I" unicode="I" horiz-adv-x="414" 
d="M84 965h244v-965h-244v965z" />
    <glyph glyph-name="J" unicode="J" horiz-adv-x="776" 
d="M694 334q0 -92 -20 -159t-61 -110.5t-104 -64t-149 -20.5q-325 0 -325 366v37h231v-76q0 -110 94 -110q91 0 91 127v641h243v-631v0z" />
    <glyph glyph-name="K" unicode="K" horiz-adv-x="971" 
d="M426 408l-98 -109v-299h-244v965h244v-369l307 369h305l-350 -381l393 -584h-303z" />
    <glyph glyph-name="L" unicode="L" horiz-adv-x="801" 
d="M84 965h244v-748h436v-217h-680v965z" />
    <glyph glyph-name="M" unicode="M" horiz-adv-x="1214" 
d="M901 735h-4l-197 -735h-186l-197 735h-4v-735h-227v965h360l160 -641h4l158 641h360v-965h-227v735z" />
    <glyph glyph-name="N" unicode="N" horiz-adv-x="971" 
d="M313 602h-4v-602h-227v965h250l325 -594h5v594h227v-965h-252z" />
    <glyph glyph-name="O" unicode="O" horiz-adv-x="1020" 
d="M969 481q0 -231 -129 -366q-127 -133 -332 -133q-203 0 -332 135q-127 136 -127 366q0 231 129 369q125 131 332 131q204 0 330 -135q129 -135 129 -367zM725 481q0 134 -56 210.5t-159 76.5q-52 0 -92.5 -20t-68 -57t-42 -90t-14.5 -118q0 -135 56 -210.5t159 -75.5
q52 0 92.5 20t68 57t42 89.5t14.5 117.5z" />
    <glyph glyph-name="P" unicode="P" horiz-adv-x="897" 
d="M866 655q0 -77 -20.5 -139t-61 -105t-99.5 -66t-136 -23h-221v-322h-244v965h432q83 0 148 -21t110 -61t68.5 -97.5t23.5 -130.5zM625 651q0 113 -138 113h-159v-248h161q136 0 136 135z" />
    <glyph glyph-name="Q" unicode="Q" horiz-adv-x="1020" 
d="M729 31q-94 -49 -221 -49q-203 0 -332 135q-127 136 -127 366q0 231 129 369q125 131 332 131q204 0 330 -135q129 -135 129 -367q0 -216 -113 -350l113 -115l-113 -114zM725 481q0 134 -56 210.5t-159 76.5q-52 0 -92.5 -20t-68 -57t-42 -90t-14.5 -118
q0 -135 56 -210.5t159 -75.5q29 0 53 6l-76 76l115 116l88 -90q37 70 37 176z" />
    <glyph glyph-name="R" unicode="R" horiz-adv-x="948" 
d="M678 0q-28 40 -31 186q-3 166 -149 166h-170v-352h-244v965h457q151 0 239 -58q54 -35 81.5 -87.5t27.5 -125.5q0 -187 -148 -241v-7q57 -9 97 -79q33 -65 41 -148q4 -60 9 -115.5t27 -103.5h-237zM645 659q0 105 -123 105h-194v-217h198q119 0 119 112z" />
    <glyph glyph-name="S" unicode="S" horiz-adv-x="874" 
d="M846 305q0 -169 -127 -254q-110 -71 -279 -71q-176 0 -284 81q-125 92 -125 263h243q0 -35 13 -62.5t35.5 -47t54 -30t69.5 -10.5q154 0 154 94q0 73 -139 113q-114 32 -179 53.5t-83 30.5q-140 77 -140 229q0 139 119 219q105 72 258 72q85 0 153 -21.5t122 -64.5
q106 -85 106 -225h-250q0 117 -141 117q-125 0 -125 -76q0 -63 141 -103q216 -58 263 -84q141 -74 141 -223z" />
    <glyph glyph-name="T" unicode="T" horiz-adv-x="829" 
d="M535 0h-244v750h-266v215h782v-215h-272v-750z" />
    <glyph glyph-name="U" unicode="U" horiz-adv-x="971" 
d="M893 381q0 -401 -408 -401q-407 0 -407 401v584h244v-598q0 -170 163 -170q164 0 164 170v598h244v-584v0z" />
    <glyph glyph-name="V" unicode="V" horiz-adv-x="850" 
d="M281 0l-295 965h254l184 -715h2l184 715h254l-295 -965h-288z" />
    <glyph glyph-name="W" unicode="W" horiz-adv-x="1264" 
d="M762 0l-129 666h-4l-129 -666h-248l-254 965h246l131 -715h2l139 715h229l140 -715h2l131 715h246l-254 -965h-248z" />
    <glyph glyph-name="X" unicode="X" horiz-adv-x="924" 
d="M463 322h-2l-191 -322h-280l332 506l-304 459h285l158 -297h2l155 297h285l-303 -459l332 -506h-281z" />
    <glyph glyph-name="Y" unicode="Y" horiz-adv-x="874" 
d="M561 0h-246v358l-340 607h277l186 -394l185 394h278l-340 -607v-358z" />
    <glyph glyph-name="Z" unicode="Z" horiz-adv-x="874" 
d="M33 207l479 543h-453v215h768v-193l-493 -555h508v-217h-809v207z" />
    <glyph glyph-name="bracketleft" unicode="[" horiz-adv-x="485" 
d="M92 985h385v-194h-180v-832h180v-195h-385v1221z" />
    <glyph glyph-name="backslash" unicode="\" horiz-adv-x="535" 
d="M-12 985h205l354 -1005h-205z" />
    <glyph glyph-name="bracketright" unicode="]" horiz-adv-x="485" 
d="M10 -41h180v832h-180v194h385v-1221h-385v195z" />
    <glyph glyph-name="asciicircum" unicode="^" horiz-adv-x="786" 
d="M393 768l-121 -319h-209l211 493h238l211 -493h-209z" />
    <glyph glyph-name="underscore" unicode="_" horiz-adv-x="819" 
d="M0 -102h819v-123h-819v123z" />
    <glyph glyph-name="grave" unicode="`" horiz-adv-x="387" 
d="M-47 979h235l129 -203h-155z" />
    <glyph glyph-name="a" unicode="a" horiz-adv-x="776" 
d="M506 0q-12 21 -12 70q-75 -90 -220 -90q-51 0 -94.5 14t-75 41t-49.5 66t-18 89q0 122 90 175q29 17 86 32t145 29l97 18q39 16 39 52q0 77 -109 77q-24 0 -44 -7t-35 -19t-23.5 -28t-8.5 -34h-208q0 236 325 236q158 0 232 -51q82 -58 82 -197v-301q0 -122 28 -172h-227
zM492 330q-57 -31 -138 -41q-94 -12 -94 -90t92 -78q91 0 119 63q21 43 21 146z" />
    <glyph glyph-name="b" unicode="b" horiz-adv-x="827" 
d="M780 365q0 -174 -75 -277q-84 -108 -224 -108q-106 0 -188 96h-4v-76h-213v965h221v-338h2q70 94 201 94q66 0 116 -26t89 -77q38 -51 56.5 -114.5t18.5 -138.5zM559 350q0 197 -135 197q-133 0 -133 -195q0 -196 133 -196q135 0 135 194z" />
    <glyph glyph-name="c" unicode="c" horiz-adv-x="776" 
d="M741 276q-45 -296 -344 -296q-168 0 -270 114q-88 100 -88 252q0 170 100 270q102 105 254 105q71 0 131 -18t105 -53.5t72.5 -87t33.5 -118.5h-217q-5 45 -35 74t-73 29q-146 0 -146 -193q0 -198 135 -198q113 0 125 120h217v0z" />
    <glyph glyph-name="d" unicode="d" horiz-adv-x="827" 
d="M537 76h-5q-83 -96 -188 -96q-71 0 -126.5 28t-93.5 78.5t-58.5 121.5t-20.5 157q0 152 76 253q76 103 205 103q130 0 200 -94h2v338h222v-965h-213v76zM535 352q0 195 -134 195q-135 0 -135 -195q0 -196 135 -196q134 0 134 196z" />
    <glyph glyph-name="e" unicode="e" horiz-adv-x="801" 
d="M264 295q-2 -33 8.5 -62t30.5 -51t48 -34.5t61 -12.5q94 0 135 78h205q-12 -54 -43 -97.5t-75 -73.5t-99.5 -46t-116.5 -16q-154 0 -260 86q-117 94 -117 262q0 174 102 282q102 111 269 111q174 0 270 -123q85 -112 82 -303h-500zM541 424q0 28 -10 54t-27 46t-40 31.5
t-50 11.5q-69 0 -113 -53q-35 -44 -35 -90h275z" />
    <glyph glyph-name="f" unicode="f" horiz-adv-x="485" 
d="M489 797q-39 6 -65 6q-80 0 -80 -78v-23h137v-149h-137v-553h-221v553h-107v149h107v17q0 67 13.5 114t43.5 76.5t78.5 42.5t118.5 13q35 0 63 -1.5t49 -5.5v-161v0z" />
    <glyph glyph-name="g" unicode="g" horiz-adv-x="801" 
d="M733 70q0 -316 -342 -316q-80 0 -141.5 16.5t-104 46.5t-64.5 71t-22 89h226q0 -75 108 -75q125 0 125 135v96h-4q-73 -100 -180 -100q-138 0 -215 86q-84 88 -84 260q0 149 80 244q80 98 213 98q141 0 188 -105h4v86h213v-632zM522 375q0 172 -131 172t-131 -172
q0 -170 131 -170t131 170z" />
    <glyph glyph-name="h" unicode="h" horiz-adv-x="827" 
d="M530 406q0 126 -108 126q-57 0 -91 -38t-34 -101v-393h-221v965h221v-367h2q10 28 30.5 51t48.5 39t61.5 24.5t70.5 8.5q244 0 244 -254v-467h-224v406z" />
    <glyph glyph-name="i" unicode="i" horiz-adv-x="387" 
d="M84 965h221v-177h-221v177zM84 702h221v-702h-221v702z" />
    <glyph glyph-name="j" unicode="j" horiz-adv-x="387" 
d="M84 965h221v-177h-221v177zM305 10q0 -132 -45 -186q-26 -29 -71 -44.5t-111 -15.5h-111v187h33q84 0 84 78v673h221v-692z" />
    <glyph glyph-name="k" unicode="k" horiz-adv-x="776" 
d="M352 281l-55 -58v-223h-221v965h221v-500l205 237h258l-254 -262l289 -440h-273z" />
    <glyph glyph-name="l" unicode="l" horiz-adv-x="387" 
d="M84 965h221v-965h-221v965z" />
    <glyph glyph-name="m" unicode="m" horiz-adv-x="1214" 
d="M913 393q0 139 -96 139q-102 0 -102 -151v-381h-223v393q0 139 -84 139q-115 0 -115 -151v-381h-221v702h217v-104h2q61 123 201 123q138 0 194 -113q74 113 207 113q244 0 244 -287v-434h-224v393z" />
    <glyph glyph-name="n" unicode="n" horiz-adv-x="827" 
d="M530 406q0 126 -108 126q-57 0 -91 -38t-34 -101v-393h-221v702h217v-104h2q58 123 215 123q244 0 244 -254v-467h-224v406z" />
    <glyph glyph-name="o" unicode="o" horiz-adv-x="801" 
d="M760 350q0 -155 -103 -264q-99 -106 -258 -106q-158 0 -260 108q-100 109 -100 266t100 260q51 54 116.5 80.5t143.5 26.5q158 0 258 -109q51 -54 77 -118.5t26 -143.5zM535 352q3 197 -134 197t-137 -197q0 -196 135 -196q132 0 136 196z" />
    <glyph glyph-name="p" unicode="p" horiz-adv-x="827" 
d="M780 334q0 -154 -75 -254q-39 -51 -89 -77t-116 -26q-130 0 -201 95h-2v-308h-221v938h213v-79h4q84 96 188 96q139 0 224 -109q38 -52 56.5 -120t18.5 -156zM559 348q0 195 -135 195q-133 0 -133 -195q0 -196 133 -196q135 0 135 196z" />
    <glyph glyph-name="q" unicode="q" horiz-adv-x="827" 
d="M528 72h-2q-71 -95 -200 -95t-205 103q-76 100 -76 254q0 86 20.5 157t58.5 121.5t93.5 78.5t126.5 28q104 0 188 -96h5v79h213v-938h-222v308zM535 348q0 195 -134 195q-135 0 -135 -195q0 -196 135 -196q134 0 134 196z" />
    <glyph glyph-name="r" unicode="r" horiz-adv-x="559" 
d="M559 498q-17 8 -41 11t-53 3q-32 0 -60.5 -12.5t-51 -33.5t-35.5 -49t-13 -59v-358h-221v702h213v-122h6q16 59 78 100q56 35 117 35q40 0 61 -6v-211v0z" />
    <glyph glyph-name="s" unicode="s" horiz-adv-x="729" 
d="M694 227q0 -59 -24.5 -105t-68.5 -77.5t-105 -48t-134 -16.5q-79 0 -140 18.5t-102.5 51.5t-63 79t-21.5 102h213q0 -48 34 -75t85 -27q106 0 106 68q0 58 -111 79q-88 20 -138.5 33t-65.5 21q-111 52 -111 178q0 103 96 162q85 51 217 51q150 0 231 -58t81 -167h-207
q0 79 -103 79q-90 0 -90 -55q0 -47 109 -71q85 -17 135 -30.5t70 -23.5q108 -53 108 -168z" />
    <glyph glyph-name="t" unicode="t" horiz-adv-x="510" 
d="M485 0h-21t-38 -2t-41 -3t-31 -1q-134 0 -182 51q-47 53 -47 205v303h-113v149h113v211h223v-211h137v-149h-137v-313q0 -76 64 -76q14 0 32 1t41 3v-168v0z" />
    <glyph glyph-name="u" unicode="u" horiz-adv-x="827" 
d="M535 104h-3q-57 -122 -215 -122q-243 0 -243 274v446h223v-405q0 -127 109 -127q57 0 90.5 38t33.5 101v393h222v-702h-217v104z" />
    <glyph glyph-name="v" unicode="v" horiz-adv-x="702" 
d="M223 0l-227 702h233l125 -466h2l127 466h224l-228 -702h-256z" />
    <glyph glyph-name="w" unicode="w" horiz-adv-x="1092" 
d="M653 0l-108 465l-109 -465h-223l-213 702h227l113 -462h2l96 462h213l97 -462h2l112 462h228l-213 -702h-224z" />
    <glyph glyph-name="x" unicode="x" horiz-adv-x="702" 
d="M352 201l-116 -201h-246l237 369l-217 333h244l96 -165l99 165h243l-217 -333l238 -369h-246z" />
    <glyph glyph-name="y" unicode="y" horiz-adv-x="702" 
d="M446 -55q-39 -111 -98 -146t-184 -35h-109v187h74q18 0 35 5.5t30 15.5t21 23.5t8 29.5q0 33 -30 116l-205 561h241l127 -464l133 464h228l-271 -757v0z" />
    <glyph glyph-name="z" unicode="z" horiz-adv-x="702" 
d="M31 180l336 346h-312v176h596v-176l-342 -350h369v-176h-647v180z" />
    <glyph glyph-name="braceleft" unicode="{" horiz-adv-x="485" 
d="M342 -238q-55 0 -94 11.5t-63.5 37t-36 66.5t-11.5 100v218q0 96 -119 96v166q117 0 117 96v217q0 59 11.5 100t36 66.5t63.5 37t94 11.5h127v-162h-37q-24 0 -40.5 -4.5t-26.5 -16.5t-14.5 -32t-4.5 -51v-201q0 -132 -151 -141v-6q153 -9 153 -142v-200q0 -31 4.5 -51
t14.5 -32t26.5 -17t40.5 -5h37v-162h-127v0z" />
    <glyph glyph-name="bar" unicode="|" horiz-adv-x="375" 
d="M92 985h189v-1005h-189v1005z" />
    <glyph glyph-name="braceright" unicode="}" horiz-adv-x="485" 
d="M467 291q-119 0 -119 -96v-218q0 -59 -11 -100t-36 -66.5t-64 -37t-94 -11.5h-127v162h37q25 0 41.5 5t26.5 17t14 32t4 51v200q0 133 154 142v6q-152 9 -152 141v201q0 30 -4.5 50t-14.5 32t-26.5 17t-40.5 5h-37v162h127q55 0 94 -11.5t64 -37t36 -66.5t11 -100v-217
q0 -96 117 -96v-166v0z" />
    <glyph glyph-name="asciitilde" unicode="~" horiz-adv-x="705" 
d="M653 315q-35 -58 -75.5 -87t-88.5 -29q-26 0 -59 11t-72 34q-77 45 -151 45q-76 0 -111 -101l-45 185q56 110 160 110q31 0 68.5 -11t82.5 -34q48 -21 80 -32t52 -11q65 0 114 94l45 -174v0z" />
    <glyph glyph-name="currency" unicode="&#xa4;" horiz-adv-x="840" 
d="M422 729q-96 0 -160 -67q-65 -74 -65 -160q0 -94 63 -164q65 -68 162 -68q92 0 158 68q63 63 63 164q0 46 -16.5 87t-45.5 72t-70 49.5t-89 18.5zM156 309q-62 83 -62 193q0 114 62 188l-148 150l76 71l145 -145q80 59 193 59q55 0 105.5 -16t82.5 -43l150 145l71 -71
l-145 -150q59 -80 59 -188q0 -113 -59 -193l145 -145l-71 -76l-150 148q-15 -13 -36 -23.5t-47 -20.5q-53 -18 -105 -18q-110 0 -193 62l-145 -148l-76 76z" />
    <glyph glyph-name="FL00A9h" unicode="&#xa9;" horiz-adv-x="1085" 
d="M1044 481q0 -207 -147 -354t-354 -147t-355 147q-147 147 -147 354q0 206 147 355q148 147 355 147t354 -147q147 -149 147 -355zM946 481q0 169 -119 285q-116 119 -284 119t-287 -119q-117 -117 -117 -285t117 -286q120 -117 287 -117q168 0 284 117q119 119 119 286z
M772 391q-47 -186 -221 -186q-118 0 -182 84q-62 77 -62 186q0 61 18.5 112.5t51 88.5t77 57.5t95.5 20.5q40 0 76.5 -12t65.5 -34t49.5 -54t29.5 -72h-111q-27 86 -100 86q-133 0 -133 -187q0 -192 127 -192q88 0 111 102h108z" />
    <glyph glyph-name="guillemotleft" unicode="&#xab;" horiz-adv-x="582" 
d="M313 469l209 174v-188l-114 -93l114 -90v-188l-209 174v211zM59 469l209 174v-188l-114 -93l114 -90v-188l-209 174v211z" />
    <glyph glyph-name="logicalnot" unicode="&#xac;" horiz-adv-x="819" 
d="M670 297h-609v90h691v-268h-82v178z" />
    <glyph glyph-name="minus" unicode="&#xad;" horiz-adv-x="819" 
d="M72 424h676v-166h-676v166z" />
    <glyph glyph-name="registered" unicode="&#xae;" horiz-adv-x="1085" 
d="M1044 481q0 -207 -147 -354t-354 -147t-355 147q-147 147 -147 354q0 206 147 355q148 147 355 147t354 -147q147 -149 147 -355zM946 481q0 169 -119 285q-116 119 -284 119t-287 -119q-117 -117 -117 -285t117 -286q120 -117 287 -117q168 0 284 117q119 119 119 286z
M762 590q0 -127 -141 -133l137 -236h-125l-125 228h-49v-228h-111v524h193q221 0 221 -155zM651 602q0 68 -112 68h-80v-146h106q86 0 86 78z" />
    <glyph glyph-name="degree" unicode="&#xb0;" horiz-adv-x="541" 
d="M266 915q43 0 80.5 -16t65 -43t43.5 -64t16 -79t-16 -79t-43.5 -64.5t-65 -43.5t-80.5 -16q-41 0 -77 15.5t-63.5 43t-43.5 64.5t-16 80q0 40 15.5 77t42.5 64.5t63.5 44t78.5 16.5zM266 858q-31 0 -57.5 -11t-46 -30.5t-30.5 -46t-11 -57.5q0 -30 11.5 -57t31 -47
t46 -32t56.5 -12q62 0 105 43q45 46 45 105q0 30 -12 56.5t-32.5 46t-47.5 31t-58 11.5z" />
    <glyph glyph-name="paragraph" unicode="&#xb6;" horiz-adv-x="727" 
d="M567 -244v1356h-145v-1356h-55v805q-168 0 -263 62q-104 74 -104 235q0 153 94 229q90 66 248 66h389v-41h-102v-1356h-62z" />
    <glyph glyph-name="periodcentered" unicode="&#xb7;" horiz-adv-x="338" 
d="M170 520q31 0 51.5 -21.5t20.5 -49.5q0 -31 -21.5 -52.5t-50.5 -21.5q-33 0 -53.5 20.5t-20.5 53.5q0 30 20.5 50.5t53.5 20.5z" />
    <glyph glyph-name="periodcentered" unicode="&#x2219;" horiz-adv-x="338" 
d="M170 520q31 0 51.5 -21.5t20.5 -49.5q0 -31 -21.5 -52.5t-50.5 -21.5q-33 0 -53.5 20.5t-20.5 53.5q0 30 20.5 50.5t53.5 20.5z" />
    <glyph glyph-name="guillemotright" unicode="&#xbb;" horiz-adv-x="582" 
d="M313 272l115 90l-115 93v188l209 -174v-211l-209 -174v188zM59 272l115 90l-115 93v188l209 -174v-211l-209 -174v188z" />
    <glyph glyph-name="multiply" unicode="&#xd7;" horiz-adv-x="819" 
d="M408 223l-224 -221l-116 117l223 223l-223 223l116 117l224 -223l225 225l117 -119l-226 -223l226 -225l-117 -117z" />
    <glyph glyph-name="divide" unicode="&#xf7;" horiz-adv-x="819" 
d="M309 711h199v-185h-199v185zM72 424h676v-166h-676v166zM309 156h199v-185h-199v185z" />
    <glyph glyph-name="uni0E00" unicode="&#xe00;" horiz-adv-x="205" 
 />
    <glyph glyph-name="uni0E01" unicode="&#xe01;" horiz-adv-x="748" 
d="M502 559q0 127 -129 127q-127 0 -127 -127v-559h-205v557q0 118 78 195q90 84 254 84t256 -84q78 -77 78 -195v-557h-205v559z" />
    <glyph glyph-name="uni0E02" unicode="&#xe02;" horiz-adv-x="707" 
d="M666 242q0 -58 -20 -105.5t-60 -81.5t-98.5 -52.5t-135.5 -18.5q-152 0 -235 73q-76 67 -76 185v219q0 71 49 104q51 34 51 60q-3 54 -100 51v143h147q60 0 103 -31q54 -35 57 -98q6 -86 -49 -141q-53 -56 -53 -96v-195q0 -125 106 -125q109 0 109 125v561h205v-577v0z
" />
    <glyph glyph-name="uni0E03" unicode="&#xe03;" horiz-adv-x="707" 
d="M666 242q0 -58 -20 -105.5t-60 -81.5t-98.5 -52.5t-135.5 -18.5q-152 0 -235 73q-76 67 -76 185v215q0 58 53 96q53 41 53 82h-127v184h91l75 -61l72 61h100v-145q0 -93 -57 -139q-55 -49 -55 -99v-178q0 -125 106 -125q109 0 109 125v561h205v-577v0z" />
    <glyph glyph-name="uni0E04" unicode="&#xe04;" horiz-adv-x="748" 
d="M502 561q0 125 -129 125q-127 0 -127 -125v-86h155v-186h-155v-289h-205v557q0 118 78 195q90 84 254 84t256 -84q78 -77 78 -195v-557h-205v561z" />
    <glyph glyph-name="uni0E05" unicode="&#xe05;" horiz-adv-x="748" 
d="M502 561q0 51 -37 88l-92 -74l-88 72q-39 -32 -39 -86v-98h155v-184h-155v-279h-205v584q0 49 16 93t44.5 78t69 55.5t89.5 25.5l113 -99l114 99q48 -4 88.5 -26t70 -56t45.5 -78t16 -92v-584h-205v561z" />
    <glyph glyph-name="uni0E06" unicode="&#xe06;" horiz-adv-x="748" 
d="M707 215q0 -103 -58 -164t-166 -61q-143 0 -237 112v-102h-205v457q0 58 53 96q53 41 53 82h-127v184h80l76 -61l72 61h110v-145q0 -93 -57 -139q-55 -49 -55 -99v-147q0 -29 10.5 -56t29.5 -48.5t46.5 -34.5t62.5 -13q107 0 107 125v557h205v-604v0z" />
    <glyph glyph-name="uni0E07" unicode="&#xe07;" horiz-adv-x="727" 
d="M696 440q0 -205 -67 -317q-71 -123 -209 -123h-297l-119 819h209l96 -665h56q49 0 84 63q43 77 43 219q0 60 -13 107.5t-39 79.5q-46 58 -118 53v143h84q147 0 223 -112q67 -97 67 -267z" />
    <glyph glyph-name="uni0E08" unicode="&#xe08;" horiz-adv-x="717" 
d="M686 428q-6 -428 -291 -428h-250l-41 256q-4 22 -9 37.5t-14 25t-23.5 13.5t-37.5 4v149h175q74 0 90 -88l41 -243h30q54 0 88 63q37 73 37 211q0 70 -7.5 119t-25 80t-44.5 45t-66 14q-27 0 -49 -9.5t-37.5 -25t-25 -35.5t-11.5 -41h-211q12 102 88 173q91 88 250 88
q178 0 266 -115q82 -106 78 -293z" />
    <glyph glyph-name="uni0E09" unicode="&#xe09;" horiz-adv-x="727" 
d="M481 92q-72 -102 -209 -102q-231 0 -231 221v59q0 80 -41 80v127h170q76 0 76 -82v-131q0 -131 114 -125q22 1 44 13.5t39 33.5t27.5 49.5t10.5 61.5v258q0 131 -127 131q-103 0 -125 -111h-209q14 113 91 183q90 78 239 78q336 0 336 -275v-561h-205v92z" />
    <glyph glyph-name="uni0E0A" unicode="&#xe0a;" horiz-adv-x="727" 
d="M694 301q0 -157 -94 -238q-82 -70 -227 -67l-332 4v819h205v-665h61q174 0 174 170q0 169 -176 172v153q176 0 176 152v18h205v-8q0 -185 -158 -238v-4q64 -29 111 -90q55 -76 55 -178z" />
    <glyph glyph-name="uni0E0B" unicode="&#xe0b;" horiz-adv-x="733" 
d="M702 301q0 -157 -94 -238q-82 -70 -227 -67l-330 4v459q0 59 39 98q20 20 30.5 39t10.5 39h-111v184h82l70 -61l66 61h100v-145q0 -72 -41 -119q-41 -44 -41 -90v-311h59q174 0 174 170q0 169 -135 172v153q36 0 62 7.5t42 25t23.5 46.5t7.5 73v18h205v-8
q0 -186 -147 -238v-4q155 -71 155 -268z" />
    <glyph glyph-name="uni0E0C" unicode="&#xe0c;" horiz-adv-x="1188" 
d="M1147 227q0 -109 -58.5 -173t-164.5 -64q-132 0 -217 112v-102h-205v551q0 135 -129 135q-106 0 -127 -94l61 -55q-61 -37 -61 -91v-292h73v-154h-278v434q0 68 72 103l-78 57q11 97 88 162q92 80 250 80q334 0 334 -285v-262q0 -33 10.5 -61t28 -48t39.5 -31.5t46 -11.5
q111 0 111 125v557h205v-592v0z" />
    <glyph glyph-name="uni0E0D" unicode="&#xe0d;" horiz-adv-x="1188" 
d="M1147 63q0 -307 -316 -307h-329v168h303q137 0 137 107v30q-68 -71 -182 -71q-258 0 -258 248v313q0 135 -129 135q-106 0 -127 -94l61 -55q-61 -37 -61 -91v-292h73v-154h-278v434q0 68 72 103l-78 57q11 97 88 162q92 80 250 80q334 0 334 -285v-291q0 -123 116 -123
q119 0 119 123v557h205v-754v0z" />
    <glyph glyph-name="uni0E0E" unicode="&#xe0e;" horiz-adv-x="768" 
d="M334 -225l-111 -82h-162v170h179l94 65l94 -65h94v688q0 135 -129 135q-105 0 -127 -94l62 -55q-62 -38 -62 -91v-446h-266v154h61v280q0 68 72 103l-78 57q11 97 88 162q95 80 250 80q334 0 334 -285v-858h-283z" />
    <glyph glyph-name="uni0E0F" unicode="&#xe0f;" horiz-adv-x="768" 
d="M395 -229l-108 -78h-226v235h205v-94l127 92l129 -92v717q0 135 -129 135q-105 0 -127 -94l62 -55q-62 -38 -62 -91v-446h-266v154h61v280q0 68 72 103l-78 57q11 97 88 162q95 80 250 80q334 0 334 -285v-858h-240z" />
    <glyph glyph-name="uni0E10" unicode="&#xe10;" horiz-adv-x="727" 
d="M727 881q0 -41 -39 -72q-23 -20 -51 -33t-64 -18q116 -104 113 -330q-6 -428 -291 -428h-250l-41 256q-4 22 -9 37.5t-14 25t-23.5 13.5t-37.5 4v149h175q74 0 90 -88l41 -243h30q54 0 88 63q37 73 37 211q0 70 -7.5 119t-25 80t-44.5 45t-66 14q-27 0 -49 -9.5
t-37.5 -25t-25 -35.5t-11.5 -41h-211q12 102 88 173q91 88 250 88q66 0 113 -15q36 25 39 60h233zM313 -225l-110 -82h-162v170h178l94 65l95 -65h53v63h205v-233h-242z" />
    <glyph glyph-name="uni0E11" unicode="&#xe11;" horiz-adv-x="758" 
d="M512 578l-246 -578h-215v463q0 53 43 90q43 40 43 82h-114v184h79l70 -61l66 61h110v-145q0 -66 -47 -113q-45 -45 -45 -92v-47q0 -17 -2.5 -54.5t-7.5 -97.5h4l41 148l180 401h113q133 0 133 -155v-664h-205v578z" />
    <glyph glyph-name="uni0E12" unicode="&#xe12;" horiz-adv-x="1198" 
d="M1157 227q0 -109 -58.5 -173t-164.5 -64q-132 0 -217 112v-102h-205v647l-113 -108l-110 104q-31 -22 -46.5 -81t-15.5 -161q0 -68 10.5 -114.5t32.5 -75t55.5 -40.5t80.5 -11v-160l-123 -4q-129 -3 -199 108q-64 106 -64 297q0 99 16 178.5t46.5 134.5t74 84t99.5 27
l53 -2l92 -92l88 88h228v-530q0 -33 10.5 -61t28 -48t40 -31.5t46.5 -11.5q110 0 110 125v557h205v-592v0z" />
    <glyph glyph-name="uni0E13" unicode="&#xe13;" horiz-adv-x="1188" 
d="M942 102q-85 -112 -217 -112q-106 0 -164.5 64t-58.5 173v324q0 135 -129 135q-106 0 -127 -94l61 -55q-61 -37 -61 -91v-292h73v-154h-278v434q0 68 72 103l-78 57q11 97 88 162q92 80 250 80q334 0 334 -285v-289q0 -125 110 -125q24 0 46.5 11.5t40 31.5t28 48
t10.5 61v528h205v-817h-205v102z" />
    <glyph glyph-name="uni0E14" unicode="&#xe14;" horiz-adv-x="758" 
d="M512 655l-98 2q-88 2 -137.5 -65t-49.5 -193q0 -68 10.5 -114.5t32 -74.5t55.5 -39.5t81 -10.5v-160l-123 -2q-62 -1 -111 27t-83 80t-51.5 125t-17.5 163q0 174 78 293q90 135 252 135l367 -2v-819h-205v655z" />
    <glyph glyph-name="uni0E15" unicode="&#xe15;" horiz-adv-x="758" 
d="M512 647l-113 -108l-110 104q-31 -22 -46.5 -81t-15.5 -161q0 -68 10.5 -114.5t32.5 -75t55.5 -40.5t80.5 -11v-160l-123 -4q-129 -3 -199 108q-64 106 -64 297q0 99 16 178.5t46.5 134.5t74 84t99.5 27l53 -2l92 -92l88 88h228v-819h-205v647z" />
    <glyph glyph-name="uni0E16" unicode="&#xe16;" horiz-adv-x="748" 
d="M502 551q0 135 -129 135q-106 0 -127 -94l61 -55q-61 -37 -61 -91v-292h73v-154h-278v434q0 68 72 103l-78 57q11 97 88 162q92 80 250 80q334 0 334 -285v-551h-205v551z" />
    <glyph glyph-name="uni0E17" unicode="&#xe17;" horiz-adv-x="748" 
d="M502 557q0 125 -107 125q-35 0 -62.5 -13t-46.5 -34.5t-29.5 -49t-10.5 -55.5v-530h-205v819h205v-102q93 112 237 112q108 0 166 -61t58 -164v-604h-205v557z" />
    <glyph glyph-name="uni0E18" unicode="&#xe18;" horiz-adv-x="737" 
d="M707 262q0 -262 -258 -262h-400v346h205v-192h121q129 0 129 96q0 93 -125 119l-229 41q-125 39 -125 172q0 54 24 100.5t68 80.5t106 53.5t139 19.5q161 0 254 -78q83 -71 86 -185h-204q-10 113 -150 113q-27 0 -49.5 -7t-39 -19t-25.5 -27t-9 -31q0 -43 125 -61
q85 -13 142.5 -27t89.5 -31q125 -65 125 -221z" />
    <glyph glyph-name="uni0E19" unicode="&#xe19;" horiz-adv-x="748" 
d="M502 102q-96 -112 -238 -112q-106 0 -164.5 61t-58.5 164v604h205v-557q0 -125 106 -125q70 0 113 49q18 23 27.5 48.5t9.5 54.5v530h205v-819h-205v102z" />
    <glyph glyph-name="uni0E1A" unicode="&#xe1a;" horiz-adv-x="748" 
d="M707 262q0 -119 -78 -194q-90 -84 -256 -84t-254 84q-78 75 -78 194v557h205v-559q0 -127 127 -127q129 0 129 127v559h205v-557v0z" />
    <glyph glyph-name="uni0E1B" unicode="&#xe1b;" horiz-adv-x="748" 
d="M707 262q0 -119 -78 -194q-90 -84 -256 -84t-254 84q-78 75 -78 194v557h205v-559q0 -127 127 -127q129 0 129 127v764h205v-762v0z" />
    <glyph glyph-name="uni0E1C" unicode="&#xe1c;" horiz-adv-x="905" 
d="M580 0l-117 500l-6 94h-4l-7 -94l-116 -500h-215l-119 819h280v-121h-73l28 -204q5 -38 8 -97t3 -141h4l24 160l107 403h155l107 -403l25 -160h4q0 85 2.5 143.5t7.5 94.5l47 325h184l-118 -819h-211z" />
    <glyph glyph-name="uni0E1D" unicode="&#xe1d;" horiz-adv-x="905" 
d="M580 0l-117 500l-6 94h-4l-7 -94l-116 -500h-215l-119 819h280v-121h-73l28 -204q5 -38 8 -97t3 -141h4l24 160l107 403h155l107 -403l25 -160h4q0 85 2.5 143.5t7.5 94.5l78 530h184l-149 -1024h-211z" />
    <glyph glyph-name="uni0E1E" unicode="&#xe1e;" horiz-adv-x="905" 
d="M580 0l-117 500l-6 94h-4l-7 -94l-116 -500h-215l-119 819h188l47 -325q5 -36 8 -94.5t3 -143.5h4l24 160l107 403h155l107 -403l25 -160h4q0 85 2.5 143.5t7.5 94.5l47 325h184l-118 -819h-211z" />
    <glyph glyph-name="uni0E1F" unicode="&#xe1f;" horiz-adv-x="905" 
d="M580 0l-117 500l-6 94h-4l-7 -94l-116 -500h-215l-119 819h188l47 -325q5 -36 8 -94.5t3 -143.5h4l24 160l107 403h155l107 -403l25 -160h4q0 85 2.5 143.5t7.5 94.5l78 530h184l-149 -1024h-211z" />
    <glyph glyph-name="uni0E20" unicode="&#xe20;" horiz-adv-x="768" 
d="M522 551q0 135 -129 135q-105 0 -127 -94l62 -55q-62 -38 -62 -91v-446h-266v154h61v280q0 68 72 103l-78 57q11 97 88 162q95 80 250 80q334 0 334 -285v-551h-205v551z" />
    <glyph glyph-name="uni0E21" unicode="&#xe21;" horiz-adv-x="748" 
d="M707 215q0 -103 -58 -164t-166 -61q-143 0 -237 112v-102h-205v819h205v-530q0 -29 10.5 -56t29.5 -48.5t46.5 -34.5t62.5 -13q107 0 107 125v557h205v-604v0z" />
    <glyph glyph-name="uni0E22" unicode="&#xe22;" horiz-adv-x="748" 
d="M299 -4q-279 -3 -279 233q0 87 52 148q38 45 100 65v4q-49 14 -86 54q-45 46 -45 125q0 43 16 79.5t45.5 62.5t72 40.5t95.5 13.5l111 -2v-151q-129 15 -129 -74q0 -87 129 -72v-160h-4q-57 6 -94 -21.5t-37 -82.5q0 -116 147 -108l109 4v665h205v-819l-408 -4v0z" />
    <glyph glyph-name="uni0E23" unicode="&#xe23;" horiz-adv-x="733" 
d="M702 252q0 -268 -342 -268q-329 0 -329 276h207q0 -127 133 -127q27 0 50 7t40 20t27 31t10 40q0 69 -119 101q-105 26 -159.5 41.5t-61.5 19.5q-119 59 -119 191q0 54 24 100.5t67.5 80t104 52.5t134.5 19q160 0 252 -78q79 -70 79 -183h-204q0 54 -37.5 82.5
t-91.5 28.5q-24 0 -46 -6.5t-39.5 -18.5t-27.5 -28t-10 -35q0 -54 118 -82q88 -20 143 -36t79 -29q118 -63 118 -199z" />
    <glyph glyph-name="uni0E24" unicode="&#xe24;" horiz-adv-x="748" 
d="M502 551q0 135 -129 135q-106 0 -127 -94l61 -55q-61 -37 -61 -91v-292h73v-154h-278v434q0 68 72 103l-78 57q11 97 88 162q92 80 250 80q334 0 334 -285v-797h-205v797z" />
    <glyph glyph-name="uni0E25" unicode="&#xe25;" horiz-adv-x="741" 
d="M496 264q0 31 -10.5 56.5t-28.5 44t-43.5 28.5t-55.5 10q-29 0 -53 -9.5t-42 -27t-28.5 -42t-11.5 -54.5q-2 -51 28.5 -82.5t78.5 -31.5q8 0 14 1t14 3v-160l-63 -4q-135 -9 -209 72q-66 72 -66 204q0 124 89 207q83 76 210 76q119 0 177 -55v78q0 108 -127 108
q-52 0 -86 -27q-39 -32 -39 -84h-209q0 59 22 107.5t64 82.5t103.5 52.5t140.5 18.5q335 0 335 -256v-580h-204v264z" />
    <glyph glyph-name="uni0E26" unicode="&#xe26;" horiz-adv-x="768" 
d="M522 551q0 135 -129 135q-105 0 -127 -94l62 -55q-62 -38 -62 -91v-446h-266v154h61v280q0 68 72 103l-78 57q11 97 88 162q95 80 250 80q334 0 334 -285v-797h-205v797z" />
    <glyph glyph-name="uni0E27" unicode="&#xe27;" horiz-adv-x="719" 
d="M692 410q0 -426 -344 -426q-328 0 -328 282h213q0 -133 115 -133q68 0 96 49q35 59 35 228q0 276 -135 276q-51 0 -81 -38t-30 -95h-213q0 121 82 199q91 84 246 84q344 0 344 -426z" />
    <glyph glyph-name="uni0E28" unicode="&#xe28;" horiz-adv-x="748" 
d="M502 555q0 125 -129 125q-127 0 -127 -125v-80h155v-186h-155v-289h-205v557q0 59 21 108.5t62.5 85t103.5 55t145 19.5q79 0 129 -24v80h205v-881h-205v555z" />
    <glyph glyph-name="uni0E29" unicode="&#xe29;" horiz-adv-x="748" 
d="M707 262q0 -119 -78 -194q-90 -84 -256 -84t-254 84q-78 75 -78 194v557h205v-559q0 -127 127 -127q129 0 129 127v139q-35 -63 -105 -63q-24 0 -45 9.5t-37.5 26t-26 38t-9.5 45.5t9.5 45t26 37.5t37.5 26t45 9.5q70 0 105 -63v309h205v-557v0z" />
    <glyph glyph-name="uni0E2A" unicode="&#xe2a;" horiz-adv-x="741" 
d="M496 264q0 31 -10.5 56.5t-28.5 44t-43.5 28.5t-55.5 10q-29 0 -53 -9.5t-42 -27t-28.5 -42t-11.5 -54.5q-2 -51 28.5 -82.5t78.5 -31.5q8 0 14 1t14 3v-160l-63 -4q-135 -9 -209 72q-66 72 -66 204q0 124 89 207q83 76 210 76q119 0 177 -55v78q0 104 -127 104
q-55 0 -86 -25q-39 -29 -39 -82h-209q0 120 85 185t245 65q72 0 131 -18v74h204v-881h-204v264z" />
    <glyph glyph-name="uni0E2B" unicode="&#xe2b;" horiz-adv-x="748" 
d="M358 819h349v-170h-349v170zM502 377q0 125 -107 125q-69 0 -112 -60q-37 -49 -37 -112v-330h-205v819h205v-282q103 112 237 112q108 0 166 -61t58 -164v-424h-205v377z" />
    <glyph glyph-name="uni0E2C" unicode="&#xe2c;" horiz-adv-x="905" 
d="M934 969q-18 -123 -127 -142q21 -6 38 -19t28.5 -32t16 -42t1.5 -48l-100 -686h-211l-117 500l-6 94h-4l-7 -94l-116 -500h-215l-119 819h188l47 -325q5 -36 8 -94.5t3 -143.5h4l24 160l107 403h155l107 -403l25 -160h4q0 85 2.5 143.5t7.5 94.5l22 147q2 9 2 17v16
q0 73 -71 82l18 123q82 0 99 104l6 41h188l-8 -55v0z" />
    <glyph glyph-name="uni0E2D" unicode="&#xe2d;" horiz-adv-x="774" 
d="M754 410q0 -426 -367 -426t-367 426q0 21 1.5 39.5t3.5 35.5h354v-151h-141q0 -195 149 -195q77 0 111 49q45 64 45 222q0 270 -166 270q-30 0 -55 -11t-42.5 -30t-27.5 -43t-10 -51h-209q3 64 28.5 117.5t71 92t109.5 60t145 21.5q367 0 367 -426z" />
    <glyph glyph-name="uni0E2E" unicode="&#xe2e;" horiz-adv-x="774" 
d="M778 881q0 -36 -37 -70q-43 -41 -108 -53q121 -103 121 -348q0 -426 -367 -426t-367 426q0 21 1.5 39.5t3.5 35.5h354v-151h-141q0 -195 149 -195q77 0 111 49q45 64 45 222q0 270 -166 270q-30 0 -55 -11t-42.5 -30t-27.5 -43t-10 -51h-209q3 64 28.5 117.5t71 92
t109.5 60t145 21.5q71 0 121 -15q33 27 37 60h233v0z" />
    <glyph glyph-name="uni0E2F" unicode="&#xe2f;" horiz-adv-x="696" 
d="M451 578q-84 -111 -211 -111q-49 0 -89.5 13t-69.5 38t-45 61t-16 83q0 34 13 64t36.5 52t55 34t68.5 11l73 -2v-133q-45 3 -45 -35q0 -46 70 -43q160 3 160 209h204v-819h-204v578z" />
    <glyph glyph-name="uni0E30" unicode="&#xe30;" horiz-adv-x="420" 
d="M31 737h194v-75h174v-154h-368v229zM31 311h194v-75h174v-154h-368v229z" />
    <glyph glyph-name="uni0E31" unicode="&#xe31;" 
d="M-455 1126h205v-82h359v-122h-564v204z" />
    <glyph glyph-name="uni0E32" unicode="&#xe32;" horiz-adv-x="492" 
d="M246 457q0 202 -174 202h-72v160h180q64 0 114.5 -20.5t85.5 -58t53 -89.5t18 -116v-535h-205v457z" />
    <glyph glyph-name="uni0E33" unicode="&#xe33;" horiz-adv-x="492" 
d="M6 1036q0 -55 -38.5 -90t-110.5 -35q-73 0 -111.5 35t-38.5 90q0 57 38.5 91t111.5 34q72 0 110.5 -34t38.5 -91zM246 457q0 202 -174 202h-72v160h180q64 0 114.5 -20.5t85.5 -58t53 -89.5t18 -116v-535h-205v457z" />
    <glyph glyph-name="uni0E34" unicode="&#xe34;" 
d="M-666 1044h625v-122h-625v122z" />
    <glyph glyph-name="uni0E35" unicode="&#xe35;" 
d="M-666 1044h420v103h205v-225h-625v122z" />
    <glyph glyph-name="uni0E36" unicode="&#xe36;" 
d="M-14 1038q0 -49 -33 -82.5t-96 -33.5h-523v122h394q3 111 129 111q63 0 96 -33t33 -84z" />
    <glyph glyph-name="uni0E37" unicode="&#xe37;" 
d="M-666 1044h236v103h123v-103h61v103h205v-225h-625v122z" />
    <glyph glyph-name="uni0E38" unicode="&#xe38;" 
d="M-246 -178h-71v117h276v-267h-205v150z" />
    <glyph glyph-name="uni0E39" unicode="&#xe39;" 
d="M-92 -168q0 -170 -246 -170t-246 160h-39v117h224v-113q0 -43 51 -43t51 43v113h205v-107v0z" />
    <glyph glyph-name="uni0E3A" unicode="&#xe3a;" 
d="M-246 -61h205v-203h-205v203z" />
    <glyph glyph-name="uni0E3F" unicode="&#xe3f;" horiz-adv-x="948" 
d="M899 295q0 -295 -377 -295h-28v-141h-62v141h-348v965h348v143h62v-143h28q338 0 338 -238q0 -149 -123 -195v-6q36 -9 66 -30t51.5 -51.5t33 -68.5t11.5 -81zM618 680q0 90 -100 90h-24v-184h20q48 0 76 28t28 66zM328 770v-184h104v184h-104zM653 307q0 117 -139 117
h-20v-223h28q131 0 131 106zM328 424v-223h104v223h-104z" />
    <glyph glyph-name="uni0E40" unicode="&#xe40;" horiz-adv-x="328" 
d="M61 819h205v-819h-205v819z" />
    <glyph glyph-name="uni0E41" unicode="&#xe41;" horiz-adv-x="614" 
d="M348 819h205v-819h-205v819zM61 819h205v-819h-205v819z" />
    <glyph glyph-name="uni0E42" unicode="&#xe42;" horiz-adv-x="369" 
d="M526 1098q-42 -11 -106 -11q-15 0 -35.5 1.5t-39.5 3t-34.5 3t-21.5 1.5q-39 0 -39 -25q0 -6 6 -17.5t12.5 -26.5t12.5 -31.5t6 -32.5v-963h-205v948q0 25 -7.5 51.5t-17 50.5t-17.5 44t-9 32q-2 30 9.5 54.5t33 42.5t52.5 27.5t67 9.5q27 0 58 -5.5t62 -12t59.5 -12.5
t49.5 -7q29 -2 55 -0.5t49 4.5v-129v0z" />
    <glyph glyph-name="uni0E43" unicode="&#xe43;" horiz-adv-x="369" 
d="M373 1120q2 -35 -9 -66.5t-34 -60.5q-43 -55 -43 -96v-897h-205v918q0 24 11 47t34 43q47 42 47 77q0 56 -59 56h-4q-62 0 -62 -56q0 -15 6 -30h-176q-6 30 -6 55q0 160 225 160h54q218 0 221 -150z" />
    <glyph glyph-name="uni0E44" unicode="&#xe44;" horiz-adv-x="369" 
d="M332 1157q0 -18 -7 -39.5t-15.5 -43t-15.5 -43t-7 -40.5v-991h-205v993q0 15 6 29t12.5 25.5t12.5 21t6 16.5q0 21 -29 21q-5 0 -18.5 -1.5t-30.5 -3t-35 -2.5t-33 -1q-34 0 -64 6t-56 20v127q73 -24 129 -24q16 0 40 5t51.5 11.5t57.5 11.5t57 5q144 0 144 -103z" />
    <glyph glyph-name="uni0E45" unicode="&#xe45;" horiz-adv-x="492" 
d="M246 457q0 202 -174 202h-72v160h180q64 0 114.5 -20.5t85.5 -58t53 -89.5t18 -116v-781h-205v703z" />
    <glyph glyph-name="uni0E46" unicode="&#xe46;" horiz-adv-x="717" 
d="M471 666l-104 -105l-99 90q-41 0 -41 -65q0 -80 76 -68v-151l-33 -5q-14 -2 -26 -3t-23 -1q-201 0 -201 222q0 239 216 239h32l103 -90l98 90h207v-1065h-205v912z" />
    <glyph glyph-name="uni0E47" unicode="&#xe47;" 
d="M-328 981l-84 -59h-217v90q0 176 203 176h311v-94h-258q-82 0 -82 -62v-14h33l94 61l95 -61h118v-96h-133z" />
    <glyph glyph-name="uni0E48" unicode="&#xe48;" 
d="M-246 1362h205v-164h-205v164z" />
    <glyph glyph-name="uni0E49" unicode="&#xe49;" 
d="M-344 1247q0 43 -37 43h-18v111h127q112 0 112 -82v-10h195v-111h-379v49z" />
    <glyph glyph-name="uni0E4A" unicode="&#xe4a;" 
d="M-143 1290l-68 -53l-65 53v-92h-158v74q0 127 135 127h23l65 -51l66 51h24q135 0 135 -94v-11h76v-96h-233v92z" />
    <glyph glyph-name="uni0E4B" unicode="&#xe4b;" 
d="M-61 1198h-164v62h-68v81h68v62h164v-62h67v-81h-67v-62z" />
    <glyph glyph-name="uni0E4C" unicode="&#xe4c;" 
d="M-76 1180q-57 0 -57 -54v-20h-184v51q0 78 49 109q42 24 139 24h88v-110h-35v0z" />
    <glyph glyph-name="uni0E4D" unicode="&#xe4d;" 
d="M6 1036q0 -55 -38.5 -90t-110.5 -35q-73 0 -111.5 35t-38.5 90q0 57 38.5 91t111.5 34q72 0 110.5 -34t38.5 -91z" />
    <glyph glyph-name="uni0E4E" unicode="&#xe4e;" 
d="M35 1331q-70 0 -146 -16q-108 -23 -108 -58q0 -38 121 -38v-95h-13q-239 0 -239 -84q6 -16 35 -16q78 0 129 39l53 -90q-60 -26 -107 -38.5t-86 -12.5q-52 0 -98 30q-51 34 -51 84q0 110 158 154q-29 21 -29 67q0 181 420 181h4v-107h-43z" />
    <glyph glyph-name="uni0E4F" unicode="&#xe4f;" horiz-adv-x="942" 
d="M891 410q0 -174 -123 -297t-297 -123t-297 123t-123 297t123 297q125 122 297 122t297 -122q123 -123 123 -297zM829 410q0 149 -106 252q-105 106 -252 106q-148 0 -254 -106q-104 -104 -104 -252t104 -254q108 -105 254 -105q147 0 252 105q106 105 106 254zM727 410
q0 -107 -76 -183q-73 -73 -180 -73q-106 0 -182 73q-37 39 -55.5 84t-18.5 99q0 106 74 180q76 76 182 76q107 0 180 -76q76 -73 76 -180z" />
    <glyph glyph-name="uni0E50" unicode="&#xe50;" horiz-adv-x="696" 
d="M676 307q0 -140 -82 -225q-89 -92 -246 -92t-246 92q-82 85 -82 225q0 70 21.5 128.5t63.5 100.5t103 65.5t140 23.5q157 0 246 -93q82 -85 82 -225zM498 307q0 36 -10.5 66t-30 52t-47.5 34t-62 12q-35 0 -62.5 -12t-46.5 -34t-29.5 -52t-10.5 -66t10.5 -66t29.5 -52
t46.5 -34t62.5 -12q34 0 62 12t47.5 34t30 52t10.5 66z" />
    <glyph glyph-name="uni0E51" unicode="&#xe51;" horiz-adv-x="696" 
d="M676 303q-2 -75 -30.5 -134.5t-79 -101t-121 -64t-156.5 -23.5q-60 -2 -113 3.5t-98 16.5l-41 150q63 -20 120 -29t111 -4q55 4 97.5 19.5t71.5 40t44.5 56.5t16.5 70q3 164 -162 164q-60 0 -98.5 -25t-38.5 -63q0 -60 75 -60q24 0 54 11v-150l-29 -4q-17 -2 -32.5 -3
t-30.5 -1q-216 0 -216 209q0 115 95 180q88 64 225 64q83 0 146.5 -22.5t106 -64.5t64 -101.5t19.5 -133.5z" />
    <glyph glyph-name="uni0E52" unicode="&#xe52;" horiz-adv-x="918" 
d="M41 598q0 87 -61 145l149 86q84 -56 84 -157v-533h492v334l-99 -98l-92 92q-71 0 -68 -86q2 -42 25.5 -59.5t71.5 -12.5v-129l-35 -2q-64 -4 -108 4t-71.5 31.5t-40.5 62.5t-14 97q-6 241 187 241h59l88 -88l82 88h187v-614h-836v598z" />
    <glyph glyph-name="uni0E53" unicode="&#xe53;" horiz-adv-x="711" 
d="M492 459l-111 -101l-113 101q-61 0 -61 -160q0 -164 123 -147v-154l-54 -2q-144 -6 -206 80q-50 71 -50 221q0 317 207 317h49l105 -88l94 88h195v-614h-178v459z" />
    <glyph glyph-name="uni0E54" unicode="&#xe54;" horiz-adv-x="737" 
d="M403 455q-204 0 -204 -160q0 -81 51 -115q43 -27 147 -30q-61 33 -61 106q0 25 9.5 47.5t26.5 39.5t39 26.5t48 9.5q25 0 47.5 -9.5t39 -26.5t26.5 -39.5t10 -47.5q0 -73 -62 -106h176v-150h-370q-306 0 -306 289q0 73 22.5 131t64.5 99t103 63t138 22h191v215h178v-364
h-314v0z" />
    <glyph glyph-name="uni0E55" unicode="&#xe55;" horiz-adv-x="758" 
d="M403 455q-204 0 -204 -160q0 -81 51 -115q43 -27 147 -30q-61 33 -61 106q0 25 9.5 47.5t26.5 39.5t39 26.5t48 9.5q25 0 47.5 -9.5t39 -26.5t26.5 -39.5t10 -47.5q0 -73 -62 -106h176v-150h-370q-306 0 -306 289q0 131 68 211.5t193 99.5q-48 33 -48 90q0 25 10 46.5
t28 37.5t43 25.5t55 9.5t55 -9.5t42.5 -25.5t27.5 -37.5t10 -46.5q0 -50 -41 -86h96v215h178v-364h-334v0z" />
    <glyph glyph-name="uni0E56" unicode="&#xe56;" horiz-adv-x="696" 
d="M676 303q0 -313 -326 -313q-297 0 -309 252h180q9 -111 135 -111q142 0 142 172q0 163 -146 166q-85 3 -131 -61h-180v190q0 87 -61 145l149 86q84 -56 84 -157v-148q59 92 182 92q281 0 281 -313z" />
    <glyph glyph-name="uni0E57" unicode="&#xe57;" horiz-adv-x="961" 
d="M981 745q-61 -57 -61 -137v-387q0 -221 -234 -221h-194v459l-111 -101l-113 101q-61 0 -61 -160q0 -164 123 -147v-154l-54 -2q-144 -6 -206 80q-50 71 -50 221q0 317 207 317h49l105 -88l94 88h195v-462q82 0 82 104v393q0 121 90 180l139 -84v0z" />
    <glyph glyph-name="uni0E58" unicode="&#xe58;" horiz-adv-x="711" 
d="M362 106l-94 -106h-61q-79 0 -129 74q-58 82 -58 227q0 303 289 303h183v215h178v-364h-308q-163 0 -163 -154q0 -117 63 -129l103 102l127 -110v137h178v-301h-195z" />
    <glyph glyph-name="uni0E59" unicode="&#xe59;" horiz-adv-x="803" 
d="M844 741q-62 -42 -62 -129v-157h-159q-78 0 -78 -136q0 -41 12 -71l96 -248h-176l-172 455q-106 0 -106 -154q0 -47 7 -77.5t22.5 -47.5t40.5 -23t61 -3v-152l-54 -2q-149 -6 -206 82q-50 71 -50 221q0 307 246 307h156l39 -98l10 22q34 76 109 76h24v72q0 118 101 151
l139 -88v0z" />
    <glyph glyph-name="uni0E5A" unicode="&#xe5a;" horiz-adv-x="901" 
d="M707 0v565q-20 -26 -47 -38t-56 -23v-504h-205v483q-47 -71 -174 -71q-91 0 -142.5 52.5t-51.5 143.5v211h205v-178q0 -74 79 -74q91 0 91 133q0 12 -1 30t-2.5 36t-2.5 32.5t-1 20.5h205v-170q103 0 103 170h143v-819h-143z" />
    <glyph glyph-name="uni0E5B" unicode="&#xe5b;" horiz-adv-x="1495" 
d="M1495 434q0 -40 -106 -55l-125 -6q-10 -40 -56 -54q-16 10 -32 39l-23 45q-34 -103 -66 -106q-11 6 -20 18.5t-20 32.5l-27 60q-3 -36 -25 -78q-27 -56 -49 -56q-15 0 -31 31q-10 21 -20 60q-5 11 -8 22.5t-6 22.5q-43 -160 -103 -160q-41 0 -57 57l-16 88
q-111 -336 -353 -336q-139 0 -219 113q-35 51 -53.5 110t-18.5 132q0 69 17 127.5t49 109.5q76 121 203 121q106 0 170 -82q59 -74 59 -182q0 -76 -35 -135q-42 -68 -116 -68q-30 0 -55 11t-43 30.5t-28 46t-10 56.5q0 66 39 106.5t105 40.5q-26 66 -84 66q-75 0 -115 -97
q-31 -72 -31 -159q0 -97 41 -162q46 -78 138 -78q103 0 165 96q41 65 68 191q30 127 43 143q16 16 47 16q47 0 103 -155q2 21 2 42.5v43.5q9 49 53 49q41 0 96 -127q0 26 10 53q16 37 35 37q36 0 94 -115q29 86 52 86q18 -10 41 -39l30 -47q29 59 49 56l131 -7
q111 -12 111 -55zM455 453q0 51 -49 51q-48 0 -48 -51q0 -52 48 -52q49 0 49 52z" />
    <glyph glyph-name="zerowidthnonjoiner" unicode="&#x200c;" 
 />
    <glyph glyph-name="zerowidthjoiner" unicode="&#x200d;" 
 />
    <glyph glyph-name="endash" unicode="&#x2013;" horiz-adv-x="819" 
d="M72 424h676v-166h-676v166z" />
    <glyph glyph-name="emdash" unicode="&#x2014;" horiz-adv-x="1638" 
d="M72 424h1495v-166h-1495v166z" />
    <glyph glyph-name="quoteleft" unicode="&#x2018;" horiz-adv-x="367" 
d="M74 727q0 60 19.5 105t58.5 77q57 46 141 56v-97q-84 -21 -96 -114h96v-209h-219v182z" />
    <glyph glyph-name="quoteright" unicode="&#x2019;" horiz-adv-x="367" 
d="M293 782q0 -60 -20 -105t-58 -77q-58 -46 -141 -55v96q84 21 96 115h-96v209h219v-183v0z" />
    <glyph glyph-name="quotedblleft" unicode="&#x201c;" horiz-adv-x="668" 
d="M375 727q0 60 19.5 105t58.5 77q58 46 141 56v-97q-84 -21 -96 -114h96v-209h-219v182zM74 727q0 60 19.5 105t58.5 77q57 46 141 56v-97q-84 -21 -96 -114h96v-209h-219v182z" />
    <glyph glyph-name="quotedblright" unicode="&#x201d;" horiz-adv-x="668" 
d="M594 782q0 -60 -20 -105t-58 -77q-58 -46 -141 -55v96q84 21 96 115h-96v209h219v-183zM293 782q0 -60 -20 -105t-58 -77q-58 -46 -141 -55v96q84 21 96 115h-96v209h219v-183z" />
    <glyph glyph-name="bullet" unicode="&#x2022;" horiz-adv-x="717" 
d="M666 410q0 -129 -91 -217q-88 -91 -217 -91q-126 0 -217 91q-90 90 -90 217q0 125 90 217q91 90 217 90q127 0 217 -90q91 -91 91 -217z" />
    <glyph glyph-name="ellipsis" unicode="&#x2026;" horiz-adv-x="1311" 
d="M971 252h243v-252h-243v252zM535 252h243v-252h-243v252zM98 252h244v-252h-244v252z" />
    <glyph glyph-name="thothannobasethai" unicode="&#xf700;" horiz-adv-x="727" 
d="M727 881q0 -41 -39 -72q-23 -20 -51 -33t-64 -18q116 -104 113 -330q-6 -428 -291 -428h-250l-41 256q-4 22 -9 37.5t-14 25t-23.5 13.5t-37.5 4v149h175q74 0 90 -88l41 -243h30q54 0 88 63q37 73 37 211q0 70 -7.5 119t-25 80t-44.5 45t-66 14q-27 0 -49 -9.5
t-37.5 -25t-25 -35.5t-11.5 -41h-211q12 102 88 173q91 88 250 88q66 0 113 -15q36 25 39 60h233v0z" />
    <glyph glyph-name="saraileftthai" unicode="&#xf701;" 
d="M-870 1044h583v-122h-583v122z" />
    <glyph glyph-name="saraiileftthai" unicode="&#xf702;" 
d="M-870 1044h378v103h205v-225h-583v122z" />
    <glyph glyph-name="saraueleftthai" unicode="&#xf703;" 
d="M-260 1038q0 -49 -33 -82.5t-96 -33.5h-481v122h352q3 111 129 111q63 0 96 -33t33 -84z" />
    <glyph glyph-name="saraueeleftthai" unicode="&#xf704;" 
d="M-870 1044h194v103h123v-103h61v103h205v-225h-583v122z" />
    <glyph glyph-name="maieklowleftthai" unicode="&#xf705;" 
d="M-512 1116h205v-205h-205v205z" />
    <glyph glyph-name="maitholowleftthai" unicode="&#xf706;" 
d="M-606 975q0 49 -41 49h-21v133h142q125 0 125 -96v-17h217v-122h-422v53z" />
    <glyph glyph-name="maitrilowleftthai" unicode="&#xf707;" 
d="M-502 1018l-76 -57l-73 57v-100h-174v81q0 142 149 142h25l73 -58l74 58h27q149 0 149 -105v-12h64v-106h-238v100z" />
    <glyph glyph-name="maichattawalowleftthai" unicode="&#xf708;" 
d="M-379 922h-184v71h-92v92h92v72h184v-72h92v-92h-92v-71z" />
    <glyph glyph-name="thanthakhatlowleftthai" unicode="&#xf709;" 
d="M-236 1069q-63 0 -63 -59v-23h-205v57q0 87 55 121q23 14 61.5 20.5t92.5 6.5h98v-123h-39v0z" />
    <glyph glyph-name="maieklowrightthai" unicode="&#xf70a;" 
d="M-246 1126h205v-204h-205v204z" />
    <glyph glyph-name="maitholowrightthai" unicode="&#xf70b;" 
d="M-369 975q0 49 -41 49h-20v123h141q125 0 125 -92v-11h217v-122h-422v53z" />
    <glyph glyph-name="maitrilowrightthai" unicode="&#xf70c;" 
d="M-305 1022l-76 -57l-74 57v-100h-174v82q0 141 150 141h24l74 -58l74 58h26q150 0 150 -105v-12h84v-106h-258v100z" />
    <glyph glyph-name="maichattawalowrightthai" unicode="&#xf70d;" 
d="M-133 922h-184v71h-93v92h93v72h184v-72h92v-92h-92v-71z" />
    <glyph glyph-name="thanthakhatlowrightthai" unicode="&#xf70e;" 
d="M-80 1004q-63 0 -63 -60v-22h-205v57q0 87 55 121q46 26 154 26h98v-122h-39v0z" />
    <glyph glyph-name="yoyingnobasethai" unicode="&#xf70f;" horiz-adv-x="1188" 
d="M1147 307q0 -307 -316 -307h-329v154h303q137 0 137 100v25q-68 -72 -192 -72q-107 0 -170 51q-78 58 -78 180v113q0 135 -129 135q-106 0 -127 -94l61 -55q-61 -37 -61 -91v-292h73v-154h-278v434q0 68 72 103l-78 57q11 97 88 162q92 80 250 80q334 0 334 -285v-90
q0 -107 108 -107q25 0 48 8.5t40.5 24.5t28 38.5t10.5 51.5v340h205v-510v0z" />
    <glyph glyph-name="maihanakatleftthai" unicode="&#xf710;" 
d="M-594 1126h205v-82h440v-122h-645v204z" />
    <glyph glyph-name="nikhahitleftthai" unicode="&#xf711;" 
d="M-240 1036q0 -55 -38.5 -90t-110.5 -35t-111 35t-39 90q0 57 39 91t111 34t110.5 -34t38.5 -91z" />
    <glyph glyph-name="maitaikhuleftthai" unicode="&#xf712;" 
d="M-500 981l-84 -59h-217v90q0 176 203 176h311v-94h-258q-82 0 -82 -62v-14h33l94 61l94 -61h119v-96h-133z" />
    <glyph glyph-name="maiekupperleftthai" unicode="&#xf713;" 
d="M-492 1362h205v-164h-205v164z" />
    <glyph glyph-name="maithoupperleftthai" unicode="&#xf714;" 
d="M-510 1247q0 43 -37 43h-18v111h127q112 0 112 -82v-10h195v-111h-379v49z" />
    <glyph glyph-name="maitriupperleftthai" unicode="&#xf715;" 
d="M-283 1290l-67 -53l-66 53v-92h-157v74q0 127 135 127h22l66 -51l65 51h25q135 0 135 -94v-11h76v-96h-234v92z" />
    <glyph glyph-name="maichattawaupperleftthai" unicode="&#xf716;" 
d="M-307 1198h-164v62h-68v81h68v62h164v-62h67v-81h-67v-62z" />
    <glyph glyph-name="thanthakhatupperleftthai" unicode="&#xf717;" 
d="M-322 1180q-57 0 -57 -54v-20h-184v51q0 78 49 109q43 24 139 24h88v-110h-35v0z" />
    <glyph glyph-name="saraulowthai" unicode="&#xf718;" 
d="M-246 -485h-71v116h276v-266h-205v150z" />
    <glyph glyph-name="sarauulowthai" unicode="&#xf719;" 
d="M-92 -475q0 -170 -246 -170t-246 160h-39v116h224v-112q0 -43 51 -43t51 43v112h205v-106v0z" />
    <glyph glyph-name="phinthulowthai" unicode="&#xf71a;" 
d="M-246 -369h205v-202h-205v202z" />
    <glyph glyph-name="lochula.short" unicode="&#xf71d;" 
 />
    <glyph glyph-name="fongmanfunnuthai" unicode="&#xf880;" 
 />
    <glyph glyph-name="uni0E33_1" horiz-adv-x="492" 
d="M246 457q0 202 -174 202h-72v160h180q64 0 114.5 -20.5t85.5 -58t53 -89.5t18 -116v-535h-205v457zM-240 1036q0 -55 -38.5 -90t-110.5 -35t-111 35t-39 90q0 57 39 91t111 34t110.5 -34t38.5 -91z" />
    <glyph glyph-name="uni0E4E_1" 
d="M-131 1331q-34 0 -70.5 -4t-74.5 -12q-109 -22 -109 -58q0 -38 121 -38v-95h-12q-240 0 -240 -84q6 -16 35 -16q78 0 129 39l53 -90q-60 -26 -107 -38.5t-86 -12.5q-52 0 -98 30q-51 34 -51 84q0 110 158 154q-29 21 -29 67q0 181 420 181h4v-107h-43z" />
    <glyph glyph-name="F881" 
 />
    <glyph glyph-name="F882" 
 />
    <glyph glyph-name="saraueesp2" 
d="M-870 1044h194v103h123v-103h61v103h205v-225h-583v122zM-582 1362h205v-164h-205v164z" />
    <glyph glyph-name="saraisp" 
d="M-815 1061h584v-123h-584v123z" />
    <glyph glyph-name="saraiisp" 
d="M-856 1061h420v102h205v-225h-625v123z" />
    </font>
</defs>
</svg>
