<?xml version="1.0" standalone="no"?>
<!DOCTYPE svg PUBLIC "-//W3C//DTD SVG 1.1//EN" "http://www.w3.org/Graphics/SVG/1.1/DTD/svg11.dtd" >
<svg xmlns="http://www.w3.org/2000/svg" xmlns:xlink="http://www.w3.org/1999/xlink" version="1.1">
<metadata>
Created by FontForge 20170731 at Fri May 21 13:27:42 2021
 By Aleksey,,,
Copyright (c) Phanlop Thongsuk, 1995-2011. All rights reserved.
</metadata>
<defs>
<font id="PSLKandaModernPro" horiz-adv-x="0" >
  <font-face 
    font-family="PSL KandaModern Pro"
    font-weight="400"
    font-stretch="normal"
    units-per-em="2048"
    panose-1="2 0 5 6 0 0 0 2 0 4"
    ascent="1638"
    descent="-410"
    x-height="694"
    cap-height="965"
    bbox="-791 -573 1499 1599"
    underline-thickness="49"
    underline-position="-196"
    unicode-range="U+0020-F880"
  />
<missing-glyph horiz-adv-x="1599" 
d="M100 0v1599h1399v-1599h-1399zM1401 100v1399h-1200v-1399h1200z" />
    <glyph glyph-name=".notdef" horiz-adv-x="1599" 
d="M100 0v1599h1399v-1599h-1399zM1401 100v1399h-1200v-1399h1200z" />
    <glyph glyph-name=".null" 
 />
    <glyph glyph-name="nonmarkingreturn" horiz-adv-x="682" 
 />
    <glyph glyph-name="space" unicode=" " horiz-adv-x="471" 
 />
    <glyph glyph-name="space" unicode="&#xa0;" horiz-adv-x="471" 
 />
    <glyph glyph-name="exclam" unicode="!" horiz-adv-x="350" 
d="M209 614l-16 -366h-33l-17 366v351h66v-351zM209 0h-68v139h68v-139z" />
    <glyph glyph-name="quotedbl" unicode="&#x22;" horiz-adv-x="425" 
d="M317 655h-51v310h51v-310zM160 655h-51v310h51v-310z" />
    <glyph glyph-name="numbersign" unicode="#" horiz-adv-x="751" 
d="M711 590h-156l-33 -234h152v-45h-158l-43 -311h-45l43 311h-227l-43 -311h-45q3 20 7.5 52t14 100t16 113.5t5.5 45.5h-158v45h166q2 15 5.5 39t10.5 75.5t11.5 85.5t3.5 34h-160v45h168l41 297h45l-43 -297h227l43 297h45l-43 -297h150v-45zM510 590h-227l-33 -234h1h2
h1h2h2h1h2h1h2h1h2h1h2h1h2h1h2h1h2h2h1h2h1h2h1h2h2h1h2h1h2h2h1h2h1h2h2h1h2h1h2h2h1h2h2h1h2h2h1h2h2h1h2h2h1h2h2h1h2h2h1h2h2h2h1h2h2h1h2h2h2h1h2h2h2h1h2h2h2h1h2h2h2h1h2h2h2h2h1h2h2h2h2h1h2h2h2h2h1h2h2h2h2h2h2h1h2h2h2h2h2h2h2h1h2h2h2h2h2h2h2h2h2h2h2h1h2h10z
" />
    <glyph glyph-name="dollar" unicode="$" horiz-adv-x="737" 
d="M715 248q0 -71 -27.5 -124.5t-75.5 -84t-105 -45.5t-124 -17v-118h-41v118q-147 6 -239.5 93.5t-86.5 246.5h50q0 -140 76 -211t200 -77v448q-59 13 -96 24t-79.5 31t-66 45t-39.5 64.5t-16 91.5q0 122 80.5 185.5t216.5 68.5v109h41v-109q295 -11 309 -297h-53
q1 45 -9.5 84t-37 77t-80 61t-129.5 26v-418q62 -14 104.5 -26t89 -33.5t74.5 -48.5t46 -68.5t18 -95.5zM342 528v410q-108 -5 -177 -54.5t-69 -150.5q0 -95 54.5 -136t191.5 -69zM664 256q0 42 -17 75t-40.5 53.5t-65.5 38t-74 26t-84 20.5v-440q281 8 281 227z" />
    <glyph glyph-name="percent" unicode="%" horiz-adv-x="1050" 
d="M997 236q0 -104 -64.5 -179t-160.5 -75q-94 0 -159.5 71t-65.5 168q0 101 62.5 172.5t164.5 71.5q105 0 164 -65.5t59 -163.5zM866 965l-624 -998h-56l627 998h53zM504 719q0 -104 -64.5 -179t-160.5 -75q-94 0 -160 71.5t-66 168.5q0 101 63 172t165 71q105 0 164 -65.5
t59 -163.5zM944 231q0 77 -48.5 133t-121.5 56q-78 0 -128 -58.5t-50 -140.5q0 -77 50.5 -134.5t123.5 -57.5q76 0 125 60t49 142zM451 715q0 77 -48.5 132.5t-121.5 55.5q-78 0 -128.5 -58.5t-50.5 -139.5q0 -77 50.5 -135t123.5 -58q76 0 125.5 60.5t49.5 142.5z" />
    <glyph glyph-name="ampersand" unicode="&#x26;" horiz-adv-x="800" 
d="M805 0h-70l-117 143q-48 -75 -119 -117t-153 -42q-131 0 -209 64t-78 171q0 97 52.5 162.5t197.5 148.5q-1 1 -33 41.5t-48 64.5t-34 68t-18 82q0 66 62 114t143 48q91 0 147 -45t56 -135q0 -33 -13 -64t-29 -53t-48.5 -50t-51.5 -42t-59 -41l231 -285q31 76 31 162h53
q-9 -111 -51 -200zM532 774q0 57 -45 94t-106 37q-60 0 -106 -35t-46 -90q0 -43 31.5 -98t62.5 -89l31 -34q7 4 19 10.5t43 29t54.5 46t42.5 59t19 70.5zM588 182l-250 312q-16 -10 -46.5 -29t-45 -28t-38 -26.5t-34.5 -29t-26.5 -30.5t-22 -37t-11.5 -42.5t-5 -52.5
q0 -84 71 -137t164 -53q72 0 137.5 40.5t106.5 112.5z" />
    <glyph glyph-name="quotesingle" unicode="'" horiz-adv-x="276" 
d="M164 655h-51v310h51v-310z" />
    <glyph glyph-name="parenleft" unicode="(" horiz-adv-x="364" 
d="M338 -209l-53 4q-193 254 -193 606q0 202 50 347.5t145 277.5h51q-110 -168 -151.5 -300.5t-41.5 -328.5q0 -335 193 -606z" />
    <glyph glyph-name="parenright" unicode=")" horiz-adv-x="364" 
d="M272 401q0 -353 -192 -606l-53 -4q192 270 192 606q0 196 -41 328.5t-151 300.5h51q94 -132 144 -277.5t50 -347.5z" />
    <glyph glyph-name="asterisk" unicode="*" horiz-adv-x="487" 
d="M444 807l-159 -57l94 -136l-31 -30l-104 137l-109 -137l-35 30l105 136l-164 57l14 41l164 -53v172h47v-172l162 53z" />
    <glyph glyph-name="plus" unicode="+" horiz-adv-x="747" 
d="M686 315h-287v-288h-51v288h-287v52h287v284h51v-284h287v-52z" />
    <glyph glyph-name="comma" unicode="," horiz-adv-x="288" 
d="M221 27q0 -43 -26 -90t-76 -78l-31 20q32 21 57.5 57t28.5 62q-16 -8 -37 -8q-24 0 -41.5 17.5t-17.5 41.5q0 26 19 46t46 20q36 0 57 -24.5t21 -63.5z" />
    <glyph glyph-name="hyphen" unicode="-" horiz-adv-x="475" 
d="M383 342h-289v51h289v-51z" />
    <glyph glyph-name="period" unicode="." horiz-adv-x="288" 
d="M207 51q0 -26 -18.5 -43.5t-45.5 -17.5q-26 0 -43.5 17.5t-17.5 43.5q0 27 17.5 45.5t43.5 18.5t45 -19t19 -45z" />
    <glyph glyph-name="slash" unicode="/" horiz-adv-x="450" 
d="M467 987l-430 -1010h-55l430 1010h55z" />
    <glyph glyph-name="zero" unicode="0" horiz-adv-x="747" 
d="M711 504q0 -520 -338 -520q-78 0 -138.5 29.5t-97.5 76.5t-60.5 113.5t-32.5 133t-9 142.5q0 94 18 175t56.5 148.5t106 106.5t157.5 39q75 0 134.5 -27.5t97 -71.5t62 -103.5t34.5 -119t10 -122.5zM659 502q0 60 -9.5 116t-31.5 109t-54 92t-81 62.5t-110 23.5
q-78 0 -136 -37.5t-89 -102t-45.5 -136t-14.5 -152.5q0 -133 27 -230t92.5 -157.5t165.5 -60.5q286 0 286 473z" />
    <glyph glyph-name="one" unicode="1" horiz-adv-x="747" 
d="M444 0h-51v758h-229v39q139 0 187 25t48 100v10h45v-932z" />
    <glyph glyph-name="two" unicode="2" horiz-adv-x="747" 
d="M682 0h-621q-1 35 6.5 67.5t19 58t35.5 54t43 47.5t55 46t58 42t65.5 44t64.5 44q106 73 157 140t51 162q0 85 -68 142.5t-159 57.5q-60 0 -107 -18t-73.5 -46.5t-45.5 -62.5t-23.5 -65.5t-7.5 -57.5t3 -37h-51q-2 21 -4 48t6.5 58.5t20.5 63t37.5 60.5t57 51t79.5 35.5
t106 13.5q127 0 204 -68.5t77 -179.5q0 -57 -14.5 -103.5t-45.5 -85.5t-63 -66.5t-84 -65.5q-26 -18 -89 -61.5t-95 -67.5t-73.5 -61t-60 -70.5t-18.5 -67.5h557v-51z" />
    <glyph glyph-name="three" unicode="3" horiz-adv-x="747" 
d="M688 256q0 -120 -87 -196t-222 -76q-73 0 -130 15t-104.5 50t-73.5 100t-26 158h51q0 -143 75.5 -210.5t207.5 -67.5q105 0 182.5 64.5t77.5 162.5q0 110 -79 166.5t-238 50.5v45q140 -7 216 46.5t76 156.5q0 82 -69 133t-160 51q-128 0 -201.5 -76t-68.5 -190h-47
q-3 135 80 222t237 87q118 0 199.5 -65t81.5 -168q0 -83 -50.5 -143.5t-132.5 -73.5q89 -9 147 -76t58 -166z" />
    <glyph glyph-name="four" unicode="4" horiz-adv-x="747" 
d="M700 238h-157v-238h-51v238h-455v51l455 643h51v-649h157v-45zM492 283v579l-404 -579h404z" />
    <glyph glyph-name="five" unicode="5" horiz-adv-x="747" 
d="M684 305q0 -139 -91 -230t-224 -91q-137 0 -234 82.5t-86 218.5h49q-1 -119 76.5 -187.5t192.5 -68.5q112 0 189 80.5t77 193.5q0 115 -75 197t-179 82q-91 0 -142.5 -30.5t-109.5 -100.5h-51l96 481h471v-49h-432l-76 -369q51 61 107.5 87t138.5 26q127 0 215 -92
t88 -230z" />
    <glyph glyph-name="six" unicode="6" horiz-adv-x="747" 
d="M700 291q0 -131 -89 -219t-230 -88q-267 0 -318 313q-29 181 19 375q34 133 116 204.5t199 71.5q129 0 201.5 -69.5t85.5 -176.5h-49q-17 86 -75.5 144.5t-162.5 58.5q-60 0 -108 -22t-78.5 -61t-52.5 -86.5t-32.5 -104.5t-14.5 -109t-2 -106q35 96 110 148t178 52
q130 0 216.5 -91.5t86.5 -233.5zM649 291q0 114 -76 197t-188 83q-108 0 -185 -79t-77 -195q0 -107 74 -187.5t188 -80.5q108 0 186 78t78 184z" />
    <glyph glyph-name="seven" unicode="7" horiz-adv-x="747" 
d="M676 879l-17 -17t-43 -48t-63 -77t-71 -101t-72 -122q-53 -101 -87 -229.5t-41 -206.5l-8 -78h-59q0 11 1.5 31t10.5 82t23.5 122.5t44.5 144.5t70 157q41 76 105.5 162.5t108.5 134.5l44 49h-549v49h602v-53z" />
    <glyph glyph-name="eight" unicode="8" horiz-adv-x="747" 
d="M696 262q0 -124 -87 -201t-232 -77q-140 0 -233 69t-93 201q0 114 58.5 179t150.5 75q-174 42 -174 211q0 106 79.5 168.5t207.5 62.5q125 0 207 -57.5t82 -159.5q0 -98 -44 -149.5t-129 -73.5q94 -12 150.5 -78t56.5 -170zM612 721q0 81 -63 132.5t-176 51.5
q-114 0 -176 -51.5t-62 -132.5q0 -82 63.5 -136.5t172.5 -54.5q115 0 178 54t63 137zM645 258q0 103 -65 165t-207 62q-136 0 -203.5 -62.5t-67.5 -162.5t72 -165.5t199 -65.5t199.5 65.5t72.5 163.5z" />
    <glyph glyph-name="nine" unicode="9" horiz-adv-x="747" 
d="M698 453q-2 -71 -13 -135.5t-35.5 -126.5t-61.5 -107t-95 -72.5t-131 -27.5q-121 0 -202 67t-88 178h53q9 -86 73.5 -143t151.5 -57q71 0 125 28.5t86.5 74.5t53 110.5t28 128.5t6.5 137q-36 -92 -106.5 -142.5t-167.5 -50.5q-142 0 -230 93.5t-86 228.5q2 133 88.5 222
t227.5 89q71 0 126.5 -20t90 -57.5t57.5 -82.5t33.5 -104.5t14 -113t1.5 -117.5zM639 635q0 114 -77 193t-187 79q-109 0 -186.5 -79t-77.5 -193t77.5 -194.5t186.5 -80.5q110 0 187 80.5t77 194.5z" />
    <glyph glyph-name="colon" unicode=":" horiz-adv-x="288" 
d="M207 598q0 -26 -18.5 -43.5t-45.5 -17.5q-26 0 -43.5 17.5t-17.5 43.5q0 27 17.5 45.5t43.5 18.5t45 -19t19 -45zM207 51q0 -26 -18.5 -43.5t-45.5 -17.5q-26 0 -43.5 17.5t-17.5 43.5q0 27 17.5 45.5t43.5 18.5t45 -19t19 -45z" />
    <glyph glyph-name="semicolon" unicode=";" horiz-adv-x="288" 
d="M207 598q0 -26 -18.5 -43.5t-45.5 -17.5q-26 0 -43.5 17.5t-17.5 43.5q0 27 17.5 45.5t43.5 18.5t45 -19t19 -45zM221 27q0 -43 -26 -90t-76 -78l-31 20q32 21 57.5 57t28.5 62q-16 -8 -37 -8q-24 0 -41.5 17.5t-17.5 41.5q0 26 19 46t46 20q36 0 57 -24.5t21 -63.5z" />
    <glyph glyph-name="less" unicode="&#x3c;" horiz-adv-x="811" 
d="M750 -10l-689 317v72l689 315v-55l-644 -295l644 -299v-55z" />
    <glyph glyph-name="equal" unicode="=" horiz-adv-x="747" 
d="M686 446h-625v52h625v-52zM686 184h-625v52h625v-52z" />
    <glyph glyph-name="greater" unicode="&#x3e;" horiz-adv-x="811" 
d="M750 305l-689 -315v55l644 295l-644 299v55l689 -319v-70z" />
    <glyph glyph-name="question" unicode="?" horiz-adv-x="686" 
d="M623 748q0 -56 -18.5 -101.5t-46.5 -73.5t-61 -57t-61 -53t-46.5 -60t-18.5 -79v-80h-52v82q0 41 14 75.5t36 60t49 48.5t54 46.5t49 49.5t36 62.5t14 79.5q0 86 -63 139t-164 53q-70 0 -120.5 -23.5t-77 -62.5t-36 -87t-1.5 -101h-52q-17 146 62.5 233.5t226.5 87.5
q120 0 198.5 -65.5t78.5 -173.5zM412 57q0 -28 -20 -48t-48 -19q-26 2 -44.5 20.5t-18.5 44.5q0 28 19 48t46 20q28 0 47 -19t19 -47z" />
    <glyph glyph-name="at" unicode="@" horiz-adv-x="1093" 
d="M1001 408q-43 -101 -120 -165.5t-156 -64.5q-41 0 -63.5 27.5t-24.5 68.5q-42 -51 -81 -72.5t-114 -21.5q-52 0 -94.5 38.5t-60 110t9.5 171.5q34 125 114.5 204.5t194.5 79.5q63 0 98.5 -39t47.5 -86l32 99h56l-142 -439q-15 -47 2.5 -70.5t48.5 -22.5t56 18
q86 57 133 146t47 194q0 78 -38 147t-99.5 115t-137 72t-151.5 26q-110 0 -211.5 -59t-167 -162t-69.5 -223q-4 -125 54.5 -235t162.5 -176t225 -66q128 0 230 59t153 145h59q-55 -108 -171.5 -179t-272.5 -71q-143 0 -258 72.5t-176 192.5t-56 260q5 133 75.5 245
t183.5 176t241 64q110 0 201 -35t149.5 -94t91.5 -133t32.5 -156.5t-34.5 -160.5zM686 446q29 74 26.5 139.5t-32 109.5t-72.5 44q-176 0 -252 -223q-30 -90 -21 -154.5t40.5 -100.5t73.5 -36q78 0 131 48.5t106 172.5z" />
    <glyph glyph-name="A" unicode="A" horiz-adv-x="792" 
d="M803 0h-62l-118 309h-457l-121 -309h-61l378 965h66zM604 360l-207 549l-213 -549h420z" />
    <glyph glyph-name="B" unicode="B" horiz-adv-x="835" 
d="M793 270q0 -55 -18.5 -101t-48.5 -76.5t-69.5 -52t-80.5 -31t-82 -9.5h-410v965h356q146 0 224.5 -52.5t95.5 -177.5q10 -76 -41.5 -144.5t-145.5 -82.5q99 -12 159.5 -78.5t60.5 -159.5zM702 725q0 65 -34.5 109t-84.5 61.5t-112 17.5h-328v-387h326q98 0 165.5 50
t67.5 149zM735 270q0 99 -71 152t-201 53h-320v-424h320q124 0 198 56t74 163z" />
    <glyph glyph-name="C" unicode="C" horiz-adv-x="933" 
d="M895 375q-3 -45 -18 -95t-47 -105t-76.5 -98t-114 -71.5t-152.5 -28.5q-103 0 -187.5 42t-138.5 113.5t-83.5 162.5t-30.5 192q-1 105 32.5 198t92.5 159t143 104.5t181 38.5q87 0 156.5 -27.5t108.5 -63.5t67.5 -85t37.5 -77.5t15 -55.5h-58q-24 117 -109.5 187.5
t-219.5 70.5q-116 0 -205.5 -61.5t-136 -162.5t-46.5 -223q0 -90 25 -171.5t72.5 -146.5t124 -103.5t170.5 -38.5q75 0 140 34.5t106.5 87.5t65.5 112t26 112h59z" />
    <glyph glyph-name="D" unicode="D" horiz-adv-x="882" 
d="M831 520q9 -247 -108.5 -384.5t-347.5 -137.5h-291v967h317q190 0 305.5 -111.5t124.5 -333.5zM772 522q-13 210 -113.5 300.5t-279.5 90.5h-236v-862h256q190 0 287.5 131t85.5 340z" />
    <glyph glyph-name="E" unicode="E" horiz-adv-x="743" 
d="M727 0h-643v965h635v-52h-576v-387h541v-51h-541v-424h584v-51z" />
    <glyph glyph-name="F" unicode="F" horiz-adv-x="679" 
d="M676 913h-533v-387h482v-51h-482v-475h-59v965h592v-52z" />
    <glyph glyph-name="G" unicode="G" horiz-adv-x="980" 
d="M905 0h-51v203q-102 -226 -360 -226q-203 0 -324 140t-121 354q0 100 29.5 191.5t83.5 164.5t141 116.5t193 43.5q72 0 133 -17.5t100 -46t70 -63t47 -68.5t26.5 -62.5t13.5 -45.5l3 -18h-55q-29 129 -124.5 199.5t-230.5 70.5q-115 0 -202.5 -69t-130 -173t-42.5 -223
q0 -194 109 -318t285 -124q164 0 259.5 99.5t96.5 293.5h-348v51h399v-473z" />
    <glyph glyph-name="H" unicode="H" horiz-adv-x="886" 
d="M805 0h-57v475h-605v-475h-59v965h59v-439h605v439h57v-965z" />
    <glyph glyph-name="I" unicode="I" horiz-adv-x="225" 
d="M143 0h-59v965h59v-965z" />
    <glyph glyph-name="J" unicode="J" horiz-adv-x="636" 
d="M553 260q0 -285 -264 -285q-144 0 -207.5 90.5t-52.5 241.5h55q-1 -55 2.5 -93t16 -75.5t34.5 -60t60.5 -36t93.5 -13.5q111 0 158 55t47 176v705h57v-705z" />
    <glyph glyph-name="K" unicode="K" horiz-adv-x="813" 
d="M842 0h-76l-426 522l-197 -184v-340l-59 2v965h59v-555l596 555h76l-434 -404z" />
    <glyph glyph-name="L" unicode="L" horiz-adv-x="661" 
d="M678 0h-594v965h59v-914h535v-51z" />
    <glyph glyph-name="M" unicode="M" horiz-adv-x="1071" 
d="M987 0h-57v895l-365 -895h-57l-365 893v-893h-59v965h82l373 -902l366 902h82v-965z" />
    <glyph glyph-name="N" unicode="N" horiz-adv-x="897" 
d="M815 0h-67l-605 893v-893h-59v965h72l600 -885v885h59v-965z" />
    <glyph glyph-name="O" unicode="O" horiz-adv-x="980" 
d="M942 506q0 -107 -27.5 -201t-81.5 -168.5t-142.5 -118t-201.5 -43.5q-140 0 -244 73.5t-154 188t-50 250.5q0 140 53.5 253t157 180t240.5 67q194 0 322 -137t128 -344zM883 506q-4 86 -31.5 162.5t-75.5 136.5t-121.5 95.5t-162.5 35.5q-123 0 -214 -64.5t-134.5 -164.5
t-43.5 -220q0 -126 44 -229t133.5 -167t209.5 -64q95 0 173.5 40.5t127.5 108t74.5 153.5t20.5 177z" />
    <glyph glyph-name="P" unicode="P" horiz-adv-x="782" 
d="M760 700q0 -128 -77 -199t-222 -71h-318v-430h-59v965h405q137 0 204 -73.5t67 -191.5zM702 696q0 99 -56.5 158t-176.5 59h-326v-432h322q115 0 176 59t61 156z" />
    <glyph glyph-name="Q" unicode="Q" horiz-adv-x="980" 
d="M946 -8l-33 -39l-155 106q-111 -84 -269 -84q-140 0 -244 73.5t-154 188t-50 250.5q0 140 53.5 253t157 180t240.5 67q194 0 322 -137t128 -344q0 -259 -141 -406zM883 506q-4 86 -31.5 162.5t-75.5 136.5t-121.5 95.5t-162.5 35.5q-123 0 -214 -64.5t-134.5 -164.5
t-43.5 -220q0 -126 44 -229t133.5 -167t209.5 -64q128 0 224 71l-142 105l31 41l152 -109q68 68 102 166t29 205z" />
    <glyph glyph-name="R" unicode="R" horiz-adv-x="835" 
d="M793 0h-64q-27 33 -27 121v121q0 105 -58.5 150.5t-166.5 45.5h-334v-438h-59v965h410q130 0 206 -62t76 -176q0 -107 -53 -174t-152 -86q58 -6 96.5 -27.5t58.5 -60.5t28 -87t8 -118v-47q0 -44 8 -75.5t16 -41.5zM719 705q0 112 -69.5 160t-198.5 48h-308v-421h324
q109 0 180.5 51t71.5 162z" />
    <glyph glyph-name="S" unicode="S" horiz-adv-x="835" 
d="M782 238q0 -123 -99.5 -192t-256.5 -69q-83 0 -149 20t-107.5 53t-69 78t-38.5 92t-11 99h60q-8 -134 77 -212t238 -78q58 0 108.5 11t95.5 35.5t71 70.5t26 108q0 37 -11.5 66t-37 51t-53 37.5t-71.5 28.5t-80 21.5t-91 18.5q-161 31 -232 90t-71 185q0 73 49 128
t121 81t153 26q67 0 121.5 -13.5t90.5 -34.5t63.5 -50t42 -56.5t23.5 -57.5t11.5 -49.5t2.5 -35.5h-56q-8 110 -82.5 178t-216.5 68q-66 0 -124 -19t-99 -62.5t-41 -102.5q0 -35 8 -63.5t18.5 -48.5t32.5 -37t38 -26.5t49 -19.5t51 -14.5t57 -12.5q64 -13 102 -22t85 -23
t73.5 -28t54.5 -35t42 -46.5t23 -60t9 -77.5z" />
    <glyph glyph-name="T" unicode="T" horiz-adv-x="688" 
d="M707 913h-336v-913h-58v913h-331v52h725v-52z" />
    <glyph glyph-name="U" unicode="U" horiz-adv-x="890" 
d="M807 381q0 -193 -91.5 -299.5t-275.5 -106.5q-182 0 -269 106.5t-87 299.5v584h59v-584q0 -174 75.5 -264t221.5 -90q160 0 235 94.5t75 259.5v584h57v-584z" />
    <glyph glyph-name="V" unicode="V" horiz-adv-x="737" 
d="M752 965l-351 -965h-67l-352 965h61l326 -916l325 916h58z" />
    <glyph glyph-name="W" unicode="W" horiz-adv-x="1177" 
d="M1186 965l-273 -965h-65l-262 920l-254 -920h-68l-272 965h61l246 -904l252 904h74l256 -902l243 902h62z" />
    <glyph glyph-name="X" unicode="X" horiz-adv-x="737" 
d="M760 0h-72l-321 453l-320 -453h-70l357 498l-332 467h68l297 -420l305 420h69l-333 -467z" />
    <glyph glyph-name="Y" unicode="Y" horiz-adv-x="759" 
d="M788 965l-380 -562v-403h-58v403l-379 562h68l340 -508l344 508h65z" />
    <glyph glyph-name="Z" unicode="Z" horiz-adv-x="710" 
d="M713 0h-715v49l639 864h-600v52h663v-52l-643 -862h656v-51z" />
    <glyph glyph-name="bracketleft" unicode="[" horiz-adv-x="325" 
d="M311 -207h-184v1233h184v-43h-133v-1147h133v-43z" />
    <glyph glyph-name="backslash" unicode="\" horiz-adv-x="450" 
d="M467 -23h-55l-430 1010h55z" />
    <glyph glyph-name="bracketright" unicode="]" horiz-adv-x="325" 
d="M199 -207h-185v43h133v1147h-133v43h185v-1233z" />
    <glyph glyph-name="asciicircum" unicode="^" horiz-adv-x="811" 
d="M758 319h-56l-294 570l-299 -570h-56l318 613h71z" />
    <glyph glyph-name="underscore" unicode="_" horiz-adv-x="747" 
d="M748 -152h-748v52h748v-52z" />
    <glyph glyph-name="grave" unicode="`" horiz-adv-x="225" 
d="M190 799h-49l-182 188h70z" />
    <glyph glyph-name="a" unicode="a" horiz-adv-x="661" 
d="M655 8q-17 -9 -39.5 -9.5t-43 7.5t-34.5 28t-14 48v57q-32 -75 -101 -114t-153 -39q-48 0 -86 8.5t-72 29t-52.5 61t-18.5 99.5q0 91 63.5 141t165.5 58q13 1 38 3q40 3 59.5 5t50.5 6.5t45.5 10.5t31 16t23 24.5t6.5 34.5v43q0 138 -196 138q-180 0 -201 -181h-51
q4 111 71.5 169.5t171.5 58.5q103 0 178.5 -42.5t75.5 -127.5v-428q0 -91 82 -62v-43zM524 276v121q-6 -9 -18.5 -17t-31.5 -13t-35.5 -9t-42 -7t-40 -4.5t-40 -3.5t-31.5 -3q-195 -20 -195 -156q0 -71 50.5 -113t138.5 -42q109 0 177 72.5t68 174.5z" />
    <glyph glyph-name="b" unicode="b" horiz-adv-x="737" 
d="M692 371q0 -185 -80 -286t-223 -101q-84 0 -149.5 45t-102.5 127v-156h-51v965h51v-418q35 77 101.5 120.5t156.5 43.5q147 0 222 -98t75 -242zM643 358q0 82 -25.5 149.5t-84.5 113t-144 45.5q-81 0 -139.5 -43t-84.5 -108t-26 -144q0 -149 65 -245.5t185 -96.5
q69 0 121 31t79.5 81.5t40.5 105t13 111.5z" />
    <glyph glyph-name="c" unicode="c" horiz-adv-x="688" 
d="M645 244q-14 -111 -91.5 -186.5t-199.5 -75.5q-144 0 -226.5 102t-82.5 266q0 96 32.5 175.5t104.5 132.5t172 53q133 0 204.5 -66.5t78.5 -165.5h-49q-10 80 -67.5 133.5t-166.5 53.5q-117 0 -188.5 -92t-71.5 -224q0 -147 68.5 -234t191.5 -87q97 0 162.5 61t77.5 154
h51z" />
    <glyph glyph-name="d" unicode="d" horiz-adv-x="737" 
d="M651 0h-51v156h-2q-5 -18 -20.5 -43t-44.5 -56t-80 -52t-113 -21q-33 0 -67 7t-77 32t-75 64t-54 111t-22 167q0 153 75.5 249.5t219.5 96.5q88 0 159.5 -43t98.5 -121h2v418h51v-965zM598 365q0 136 -65.5 218.5t-192.5 82.5q-115 0 -180.5 -88.5t-65.5 -212.5
q0 -63 14 -120.5t42 -107t77 -79t113 -29.5q88 0 148 49.5t85 122.5t25 164z" />
    <glyph glyph-name="e" unicode="e" horiz-adv-x="688" 
d="M645 340h-551q0 -141 67.5 -226t186.5 -85q102 0 163.5 61t76.5 146h51q-21 -119 -93.5 -185.5t-197.5 -66.5q-79 0 -138.5 29t-94.5 79.5t-52.5 113t-17.5 134.5q0 101 32 183t102.5 135t168.5 53q71 0 127 -26t88.5 -66.5t52.5 -91.5t26 -97.5t3 -89.5zM594 385
q0 44 -15 91t-43 90.5t-77.5 71.5t-110.5 28q-62 0 -113 -29.5t-80.5 -74.5t-45 -91.5t-15.5 -85.5h500z" />
    <glyph glyph-name="f" unicode="f" horiz-adv-x="319" 
d="M332 922q-67 18 -109 2q-51 -19 -51 -82v-148h141v-45h-141v-649h-49v649h-123v45h123v148q0 57 33.5 93t99.5 42q16 2 35 0t30 -5l11 -3v-47z" />
    <glyph glyph-name="g" unicode="g" horiz-adv-x="710" 
d="M637 41q0 -162 -74.5 -233.5t-226.5 -71.5q-58 0 -103 12.5t-72.5 32.5t-46 49.5t-27 58t-11.5 62.5h53q0 -66 54 -119t153 -53q125 0 187.5 63.5t62.5 198.5v145q-76 -159 -250 -159q-63 0 -113 19.5t-82.5 52.5t-54.5 78.5t-31.5 95t-9.5 104.5q0 142 80.5 238
t210.5 96q87 0 153.5 -41.5t96.5 -118.5v143h51v-653zM586 377q0 120 -66 204.5t-184 84.5q-110 0 -176 -86.5t-66 -202.5q0 -132 62 -219.5t180 -87.5q116 0 183 82.5t67 224.5z" />
    <glyph glyph-name="h" unicode="h" horiz-adv-x="688" 
d="M614 0h-53v430q0 236 -180 236q-126 0 -191 -80.5t-65 -200.5v-385h-51v965h51v-418q31 82 102.5 123t159.5 41q105 0 166 -68.5t61 -198.5v-444z" />
    <glyph glyph-name="i" unicode="i" horiz-adv-x="223" 
d="M137 825h-51v140h51v-140zM137 0h-51v694h51v-694z" />
    <glyph glyph-name="j" unicode="j" horiz-adv-x="223" 
d="M137 825h-51v140h51v-140zM137 -72q0 -105 -44 -144.5t-138 -31.5v43q29 -4 53 -0.5t41.5 15t27 41t9.5 77.5v766h51v-766z" />
    <glyph glyph-name="k" unicode="k" horiz-adv-x="614" 
d="M641 0h-68l-288 395l-158 -135v-260h-51v965h51v-639l422 368h69l-294 -258z" />
    <glyph glyph-name="l" unicode="l" horiz-adv-x="223" 
d="M137 0h-51v965h51v-965z" />
    <glyph glyph-name="m" unicode="m" horiz-adv-x="1052" 
d="M979 0h-49v475q0 84 -41 137.5t-121 53.5q-93 0 -155 -65.5t-62 -182.5v-418h-49v465q0 55 -13 97.5t-51 73t-98 30.5q-92 0 -152.5 -73t-60.5 -157v-436h-51v694h51v-141q23 72 83 115t130 43q163 0 211 -148q26 70 81 109t136 39q109 0 160 -67t51 -169v-475z" />
    <glyph glyph-name="n" unicode="n" horiz-adv-x="688" 
d="M614 0h-53v453q0 93 -45 153t-143 60q-117 0 -182.5 -82t-65.5 -185v-399h-51v694h51v-147q29 79 99.5 121.5t148.5 42.5q126 0 183.5 -70t57.5 -188v-453z" />
    <glyph glyph-name="o" unicode="o" horiz-adv-x="710" 
d="M668 356q0 -166 -83.5 -270t-230.5 -104q-139 0 -225 106.5t-86 267.5q0 146 83.5 250.5t227.5 104.5q140 0 227 -101t87 -254zM618 356q0 81 -29.5 150.5t-91 114.5t-143.5 45q-115 0 -188.5 -92t-73.5 -218q0 -86 27 -158t88 -120.5t147 -48.5q84 0 145.5 48.5t90 121
t28.5 157.5z" />
    <glyph glyph-name="p" unicode="p" horiz-adv-x="737" 
d="M692 336q0 -68 -18.5 -129.5t-54 -112t-95.5 -80.5t-135 -30q-91 0 -158.5 39.5t-93.5 123.5v-395h-51v942h51v-155q37 82 102.5 127t149.5 45q140 0 221.5 -96.5t81.5 -278.5zM643 336q0 57 -13 111.5t-40.5 105.5t-79.5 82t-121 31q-123 0 -187.5 -89.5t-64.5 -252.5
q0 -130 63 -212.5t189 -82.5q125 0 189.5 89.5t64.5 217.5z" />
    <glyph glyph-name="q" unicode="q" horiz-adv-x="737" 
d="M651 -248h-51v395q-49 -88 -107.5 -125.5t-144.5 -37.5q-75 0 -135 30t-95.5 80.5t-54 112t-18.5 129.5q0 184 81 279.5t222 95.5q84 0 149.5 -45t102.5 -127v155h51v-942zM600 354q0 127 -67 219.5t-185 92.5q-56 0 -101 -20t-73 -52t-46.5 -75.5t-26 -88.5t-7.5 -94
q0 -128 64.5 -217.5t189.5 -89.5q84 0 142.5 48.5t84 120t25.5 156.5z" />
    <glyph glyph-name="r" unicode="r" horiz-adv-x="366" 
d="M389 647q-119 7 -191.5 -70.5t-72.5 -197.5v-379h-51v694h51v-153q2 6 7 17t25.5 38t47.5 47.5t76 37.5t108 17v-51z" />
    <glyph glyph-name="s" unicode="s" horiz-adv-x="636" 
d="M590 178q0 -95 -73.5 -144.5t-199.5 -49.5q-129 0 -198.5 72.5t-69.5 174.5h49q0 -78 59 -140t160 -62q43 0 80.5 7t71 23t53 46.5t19.5 72.5q0 64 -53.5 99.5t-182.5 58.5q-48 9 -85 20.5t-73 32.5t-55.5 54.5t-19.5 78.5q0 92 63.5 140.5t181.5 48.5q73 0 124.5 -19.5
t78 -53t38 -70t11.5 -79.5h-49q0 82 -53.5 129.5t-149.5 47.5q-52 0 -93 -11.5t-71 -45.5t-30 -87q0 -25 11.5 -45t27.5 -33t42.5 -24.5t47.5 -17.5t53 -13q17 -4 47 -11t45.5 -10.5t40 -10.5t38 -12t32.5 -14.5t29 -19t22 -23t17.5 -29.5t9.5 -36.5t4 -44.5z" />
    <glyph glyph-name="t" unicode="t" horiz-adv-x="344" 
d="M326 649h-150v-495q0 -67 38 -91t110 -18v-47q-93 -5 -145 26.5t-52 122.5v502h-127v45h127v217h49v-217h150v-45z" />
    <glyph glyph-name="u" unicode="u" horiz-adv-x="688" 
d="M614 0h-53v152q-29 -82 -94 -125t-154 -43q-239 0 -239 268v442h51v-442q0 -223 188 -223q62 0 111 24.5t78 64.5t44 87t15 96v393h53v-694z" />
    <glyph glyph-name="v" unicode="v" horiz-adv-x="587" 
d="M590 694l-256 -694h-64l-272 694h57l248 -637l234 637h53z" />
    <glyph glyph-name="w" unicode="w" horiz-adv-x="933" 
d="M936 694l-219 -694h-64l-186 635l-191 -635h-63l-215 694h53l195 -639l186 639h68l188 -639l191 639h57z" />
    <glyph glyph-name="x" unicode="x" horiz-adv-x="587" 
d="M596 0h-68l-233 326l-240 -326h-63l266 365l-248 329h70l215 -291l213 291h65l-245 -329z" />
    <glyph glyph-name="y" unicode="y" horiz-adv-x="587" 
d="M594 694l-311 -817q-31 -81 -72 -103t-148 -22v43q84 0 120 23.5t63 99.5l30 86l-284 690h59l254 -631l234 631h55z" />
    <glyph glyph-name="z" unicode="z" horiz-adv-x="563" 
d="M551 0h-539v49l457 600h-420v45h483v-49l-460 -600h479v-45z" />
    <glyph glyph-name="braceleft" unicode="{" horiz-adv-x="409" 
d="M375 -248h-39q-148 0 -148 195v192q0 85 -27 148.5t-73 85.5q48 20 74 86.5t26 169.5v184q0 25 5.5 52.5t18.5 58t40.5 50t64.5 19.5h58v-43h-37q-98 0 -98 -153v-176q0 -89 -19 -142t-76 -108q44 -32 69.5 -90.5t25.5 -130.5v-191q0 -90 23.5 -127t78.5 -37h33v-43z" />
    <glyph glyph-name="bar" unicode="|" horiz-adv-x="301" 
d="M176 -23h-51v1010h51v-1010z" />
    <glyph glyph-name="braceright" unicode="}" horiz-adv-x="409" 
d="M319 373q-46 -22 -73 -85.5t-27 -148.5v-192q0 -195 -147 -195h-39v43h33q55 0 78.5 37t23.5 127v191q0 72 25 130.5t69 90.5q-57 55 -75.5 107.5t-18.5 142.5v176q0 153 -98 153h-37v43h57q37 0 64.5 -19.5t40.5 -50t18.5 -58t5.5 -52.5v-184q0 -103 26 -169.5t74 -86.5
z" />
    <glyph glyph-name="asciitilde" unicode="~" horiz-adv-x="811" 
d="M713 381q-81 -113 -156 -113q-46 0 -105.5 23t-109 46t-70.5 23q-29 0 -52.5 -10t-40 -28t-24.5 -30.5t-18 -31.5l-39 41q62 111 174 111q54 0 144.5 -46.5t144.5 -46.5q28 0 60.5 33t54.5 70z" />
    <glyph glyph-name="cent" unicode="&#xa2;" horiz-adv-x="757" 
 />
    <glyph glyph-name="sterling" unicode="&#xa3;" horiz-adv-x="854" 
 />
    <glyph glyph-name="currency" unicode="&#xa4;" horiz-adv-x="839" 
d="M422 729q-96 0 -160 -67q-65 -74 -65 -160q0 -95 63 -164q65 -68 162 -68q93 0 158 68q63 63 63 164q0 94 -63 160.5t-158 66.5zM8 164l148 145q-62 83 -62 193q0 114 62 188l-148 150l76 71l145 -145q80 59 193 59q119 0 188 -59l150 145l71 -71l-145 -150
q59 -80 59 -188q0 -113 -59 -193l145 -145l-71 -76l-150 148q-31 -25 -84 -43q-55 -19 -104 -19q-110 0 -193 62l-145 -148z" />
    <glyph glyph-name="yen" unicode="&#xa5;" horiz-adv-x="1042" 
 />
    <glyph glyph-name="copyright" unicode="&#xa9;" horiz-adv-x="1134" 
d="M1069 483q0 -138 -67.5 -255.5t-183.5 -186t-253 -68.5t-253 68.5t-183.5 186t-67.5 255.5t67.5 255t183.5 185t253 68t253 -68t183.5 -185t67.5 -255zM1024 483q0 192 -134.5 327.5t-324.5 135.5q-189 0 -322.5 -135.5t-133.5 -327.5t133.5 -327.5t322.5 -135.5
q190 0 324.5 135.5t134.5 327.5zM836 592h-50q-46 166 -208 166q-118 0 -184 -79t-66 -194q0 -114 67 -195t180 -81q85 0 137 45t72 125h50q-14 -99 -82 -158t-179 -59q-131 0 -214 93t-83 224q0 138 78 230t221 92q108 0 181.5 -60t79.5 -149z" />
    <glyph glyph-name="guillemotleft" unicode="&#xab;" horiz-adv-x="514" 
d="M434 115l-14 -37l-158 287l158 286l14 -35l-94 -251zM365 43l-13 -41l-295 363l295 364l13 -41l-218 -323z" />
    <glyph glyph-name="logicalnot" unicode="&#xac;" horiz-adv-x="747" 
d="M584 119v178h-523v90h605v-268h-82z" />
    <glyph glyph-name="minus" unicode="&#xad;" horiz-adv-x="747" 
d="M686 315h-625v52h625v-52z" />
    <glyph glyph-name="registered" unicode="&#xae;" horiz-adv-x="1134" 
d="M1069 483q0 -138 -67.5 -255.5t-183.5 -186t-253 -68.5t-253 68.5t-183.5 186t-67.5 255.5t67.5 255t183.5 185t253 68t253 -68t183.5 -185t67.5 -255zM1024 483q0 192 -134.5 327.5t-324.5 135.5q-189 0 -322.5 -135.5t-133.5 -327.5t133.5 -327.5t322.5 -135.5
q190 0 324.5 135.5t134.5 327.5zM827 184h-57l-180 275h-156v-275h-51v596h227q85 0 139 -39.5t54 -113.5q0 -76 -43 -119.5t-111 -46.5zM752 614q0 123 -162 123h-156v-233h107q31 0 48.5 0.5t46.5 3.5t46 10t35 18.5t26.5 31.5t8.5 46z" />
    <glyph glyph-name="degree" unicode="&#xb0;" horiz-adv-x="540" 
d="M266 915q86 0 145.5 -58.5t59.5 -143.5t-59.5 -144t-145.5 -59q-82 0 -141 59t-59 144q0 83 58 142.5t142 59.5zM266 858q-63 0 -104 -41t-41 -104q0 -60 42.5 -104t102.5 -44q62 0 105 43q45 45 45 105t-44 102.5t-106 42.5z" />
    <glyph glyph-name="paragraph" unicode="&#xb6;" horiz-adv-x="727" 
d="M629 -244h-62v1356h-145v-1356h-55v805q-168 0 -263 62q-104 73 -104 235q0 153 94 229q91 66 248 66h389v-41h-102v-1356z" />
    <glyph glyph-name="middot" unicode="&#xb7;" horiz-adv-x="337" 
d="M170 520q30 0 51 -21.5t21 -49.5q0 -31 -21.5 -52.5t-50.5 -21.5q-32 0 -53 21t-21 53q0 31 21 51t53 20z" />
    <glyph glyph-name="middot" unicode="&#x2219;" horiz-adv-x="337" 
d="M170 520q30 0 51 -21.5t21 -49.5q0 -31 -21.5 -52.5t-50.5 -21.5q-32 0 -53 21t-21 53q0 31 21 51t53 20z" />
    <glyph glyph-name="guillemotright" unicode="&#xbb;" horiz-adv-x="514" 
d="M459 365l-295 -363l-12 41l217 322l-217 323l12 41zM254 365l-158 -287l-14 37l94 250l-94 251l14 35z" />
    <glyph glyph-name="onequarter" unicode="&#xbc;" horiz-adv-x="1327" 
 />
    <glyph glyph-name="onehalf" unicode="&#xbd;" horiz-adv-x="1357" 
 />
    <glyph glyph-name="threequarters" unicode="&#xbe;" horiz-adv-x="1327" 
 />
    <glyph glyph-name="multiply" unicode="&#xd7;" horiz-adv-x="747" 
d="M672 80l-37 -37l-262 262l-260 -260l-37 35l260 262l-258 258l35 37l260 -260l260 262l37 -37l-260 -260z" />
    <glyph glyph-name="divide" unicode="&#xf7;" horiz-adv-x="747" 
d="M434 600q0 -24 -18.5 -42.5t-42.5 -18.5q-23 0 -42.5 19t-19.5 42q0 25 18.5 43.5t43.5 18.5t43 -18.5t18 -43.5zM686 315h-625v52h625v-52zM434 102q0 -24 -18.5 -42.5t-42.5 -18.5q-23 0 -42.5 19t-19.5 42q0 25 18.5 43.5t43.5 18.5t43 -18.5t18 -43.5z" />
    <glyph glyph-name="uni0E00" unicode="&#xe00;" horiz-adv-x="204" 
 />
    <glyph glyph-name="uni0E01" unicode="&#xe01;" horiz-adv-x="757" 
d="M633 0v567q0 111 -70 164t-192 53q-110 0 -181 -44t-79 -97q14 -7 32 -25q35 -27 35 -53q0 -13 -26.5 -47t-26.5 -57v-461h-53v461q0 24 14 44t27.5 35.5t13.5 26.5q0 12 -37 41l-35 23q12 90 103.5 146.5t214.5 56.5q87 0 155 -24t113 -82.5t45 -145.5v-582h-53z" />
    <glyph glyph-name="uni0E02" unicode="&#xe02;" horiz-adv-x="655" 
d="M584 217q0 -52 -15.5 -93t-40 -66.5t-59 -42t-69 -23t-72.5 -6.5q-47 0 -89.5 11.5t-81.5 36t-62 72t-23 111.5v313q0 41 23.5 70.5t52 43t52 33.5t23.5 46q0 51 -90 51h-74v45h74q143 0 143 -94q0 -31 -15.5 -54t-37.5 -36.5t-44.5 -26t-38 -31.5t-15.5 -45v-301
q0 -196 203 -196q202 0 202 196v588h54v-602z" />
    <glyph glyph-name="uni0E03" unicode="&#xe03;" horiz-adv-x="655" 
d="M584 217q0 -52 -15.5 -93t-40 -66.5t-59 -42t-69 -23t-72.5 -6.5q-47 0 -89.5 11.5t-81.5 36t-62 72t-23 111.5v313q0 34 15.5 59t38 40t44.5 27.5t37.5 29t15.5 37.5q0 49 -22 49l-68 -72l-92 107l51 18l45 -55l47 49q47 1 69.5 -21.5t22.5 -72.5q0 -31 -15.5 -54
t-37.5 -36.5t-44.5 -26t-38 -31.5t-15.5 -45v-301q0 -196 203 -196q202 0 202 196v588h54v-602z" />
    <glyph glyph-name="uni0E04" unicode="&#xe04;" horiz-adv-x="757" 
d="M633 0v567q0 109 -71.5 163t-182.5 54t-182.5 -54t-71.5 -163v-98h250v-49h-250v-420h-53v582q0 65 27.5 115.5t73 79t98 43t108.5 14.5t108.5 -14.5t98 -43t73 -79t27.5 -115.5v-582h-53z" />
    <glyph glyph-name="uni0E05" unicode="&#xe05;" horiz-adv-x="757" 
d="M633 0v600q0 72 -33.5 121.5t-93.5 62.5l-127 -114l-127 114q-60 -13 -93.5 -62.5t-33.5 -121.5v-131h252v-49h-252v-420h-53v610q0 89 54 153t138 71l115 -99l115 99q84 -7 138 -71t54 -153v-610h-53z" />
    <glyph glyph-name="uni0E06" unicode="&#xe06;" horiz-adv-x="757" 
d="M686 231q0 -123 -66.5 -183t-177.5 -60q-107 0 -189.5 60.5t-127.5 139.5v-188h-53v510q0 36 17.5 62.5t43 42.5t51 30.5t43 33.5t17.5 44q0 22 -9 35.5t-22 13.5l-74 -72l-98 107l51 18l51 -55l54 49q49 1 74.5 -24t25.5 -70q0 -33 -17.5 -58.5t-43 -41.5t-51 -31
t-43 -35.5t-17.5 -46.5v-186q0 -56 41 -122.5t114.5 -116.5t151.5 -50q201 0 201 205v577h53v-588z" />
    <glyph glyph-name="uni0E07" unicode="&#xe07;" horiz-adv-x="651" 
d="M608 530q10 -97 -12 -192t-71 -173t-133.5 -125t-190.5 -44l-201 690l47 31l195 -674q83 8 148 54t101.5 115.5t53 151t10.5 166.5q-8 121 -89 191t-200 55v49q143 17 234 -63t108 -232z" />
    <glyph glyph-name="uni0E08" unicode="&#xe08;" horiz-adv-x="679" 
d="M639 469q0 -236 -108.5 -358.5t-280.5 -114.5l-125 502l-29 34h74l121 -487q133 8 214 119.5t81 304.5q0 148 -76 231.5t-201 83.5q-100 0 -172 -46.5t-84 -123.5h-53q8 93 94 156.5t215 63.5q151 0 240.5 -95t89.5 -270z" />
    <glyph glyph-name="uni0E09" unicode="&#xe09;" horiz-adv-x="747" 
d="M623 0v135q-36 -67 -112.5 -108t-174.5 -41q-254 0 -254 243v238h-64v49h117v-274q0 -115 52.5 -161t148.5 -46q119 0 203 74.5t84 162.5v295q0 109 -74.5 163t-190.5 54q-104 0 -173.5 -42t-86.5 -128h-55q8 74 58 125.5t116 73t141 21.5q61 0 116 -14t101 -43t73.5 -79
t27.5 -116v-582h-53z" />
    <glyph glyph-name="uni0E0A" unicode="&#xe0a;" horiz-adv-x="708" 
d="M668 315q0 -158 -96 -236.5t-248 -78.5h-252v819h53v-770h192q126 0 211.5 65.5t85.5 198.5q0 113 -67.5 182.5t-171.5 69.5h-119v49h119q92 0 157 54.5t58 150.5h53q12 -81 -40 -152t-138 -75q91 -15 147 -90t56 -187z" />
    <glyph glyph-name="uni0E0B" unicode="&#xe0b;" horiz-adv-x="718" 
d="M678 315q0 -158 -96 -236.5t-248 -78.5h-252v530q0 33 11.5 58t28 39.5t32.5 27t27.5 29.5t11.5 39q0 49 -23 49l-68 -72l-92 107l51 18l45 -55l48 49q46 3 69 -20t23 -74q0 -27 -11.5 -48.5t-27.5 -36t-32.5 -28.5t-28 -34.5t-11.5 -45.5v-483h193q61 0 113 15t94 45.5
t66 82.5t24 121q0 113 -67.5 182.5t-172.5 69.5h-98v49h98q93 0 157.5 54.5t57.5 150.5h53q12 -82 -40.5 -152.5t-137.5 -74.5q90 -18 146.5 -91.5t56.5 -185.5z" />
    <glyph glyph-name="uni0E0C" unicode="&#xe0c;" horiz-adv-x="1236" 
d="M1165 229q0 -67 -20.5 -116.5t-55.5 -75t-74 -37.5t-83 -12q-82 0 -145.5 40t-100.5 107v-135h-53v567q0 111 -70 164t-192 53q-110 0 -181 -44t-79 -97q14 -7 32 -25q35 -27 35 -53q0 -13 -26.5 -47t-26.5 -57v-412h147v-49h-200v461q0 24 14 44t27.5 35.5t13.5 26.5
q0 12 -37 41l-35 23q12 90 103.5 146.5t214.5 56.5q87 0 155 -24t113 -82.5t45 -145.5v-310q0 -86 75 -161.5t171 -75.5q180 0 180 205v579h53v-590z" />
    <glyph glyph-name="uni0E0D" unicode="&#xe0d;" horiz-adv-x="1236" 
d="M1165 61q0 -61 -23 -107t-62 -73t-86 -40t-101 -13h-260v49h260q96 0 157.5 45t61.5 127v47q-83 -108 -248 -108q-34 0 -65 6.5t-62 22t-53.5 40t-36.5 63.5t-14 89v358q0 111 -70 164t-192 53q-110 0 -181 -44t-79 -97q14 -7 32 -25q35 -27 35 -53q0 -13 -26.5 -47
t-26.5 -57v-412h147v-49h-200v461q0 24 14 44t27.5 35.5t13.5 26.5q0 12 -37 41l-35 23q12 90 103.5 146.5t214.5 56.5q87 0 155 -24t113 -82.5t45 -145.5v-355q0 -107 51.5 -148.5t141.5 -41.5q94 0 163.5 59t69.5 166v557h53v-758z" />
    <glyph glyph-name="uni0E0E" unicode="&#xe0e;" horiz-adv-x="768" 
d="M643 -307l-151 151l-152 -151h-203v49h185l170 168l151 -150v807q0 111 -70 164t-192 53q-110 0 -181 -44t-79 -97q16 -8 33 -25q34 -26 34 -53q0 -13 -26.5 -47t-26.5 -57v-461h-125v49h72v412q0 24 14 44t27.5 35.5t13.5 26.5q0 12 -37 41l-34 23q12 90 103 146.5
t214 56.5q86 0 154 -24t113.5 -82.5t45.5 -145.5v-889h-53z" />
    <glyph glyph-name="uni0E0F" unicode="&#xe0f;" horiz-adv-x="768" 
d="M643 -307l-106 139l-107 -139l-106 139l-107 -139h-141v49h114l134 168l106 -137l107 137l106 -139v796q0 111 -70 164t-192 53q-110 0 -181 -44t-79 -97q16 -8 33 -25q34 -26 34 -53q0 -13 -26.5 -47t-26.5 -57v-461h-125v49h72v412q0 24 14 44t27.5 35.5t13.5 26.5
q0 12 -37 41l-34 23q12 90 103 146.5t214 56.5q86 0 154 -24t113.5 -82.5t45.5 -145.5v-889h-53z" />
    <glyph glyph-name="uni0E10" unicode="&#xe10;" horiz-adv-x="679" 
d="M639 469q0 -236 -108.5 -358.5t-280.5 -114.5l-125 502l-29 34h74l121 -487q133 8 214 119.5t81 304.5q0 148 -76 231.5t-201 83.5q-100 0 -172 -46.5t-84 -123.5h-53q8 93 94 156.5t215 63.5q90 0 152 -33q42 33 45 80h59q-4 -32 -21.5 -62.5t-37.5 -44.5
q133 -93 133 -305zM567 -307l-106 119l-107 -119l-106 119l-107 -119h-141v49h115l133 147l106 -118l107 118l106 -116v137h-37v49h91v-266h-54z" />
    <glyph glyph-name="uni0E11" unicode="&#xe11;" horiz-adv-x="757" 
d="M633 0v606q0 74 -25 125t-82 51q-35 0 -86 -53t-96 -133q-85 -143 -152 -324.5t-67 -259.5v-12h-53v510q0 36 15.5 62.5t38 42.5t44.5 30.5t37.5 33.5t15.5 44q0 22 -8.5 35.5t-21.5 13.5l-74 -72l-99 107l52 18l51 -55l53 49q47 1 73.5 -24t26.5 -70q0 -30 -15.5 -54.5
t-37.5 -41.5t-44.5 -33t-38 -37.5t-15.5 -46.5v-305q8 60 61 184t119 234q61 98 115 152t108 54q45 0 77 -19t49 -51.5t24.5 -68t7.5 -76.5v-616h-53z" />
    <glyph glyph-name="uni0E12" unicode="&#xe12;" horiz-adv-x="1247" 
d="M1176 229q0 -67 -20.5 -116.5t-55.5 -75.5t-74 -37.5t-84 -11.5q-162 0 -246 147v-135h-53v754l-141 -140l-166 160q-107 -25 -174.5 -121.5t-67.5 -234.5q0 -129 47 -224t126 -131t171 -4v-53q-94 -22 -170.5 1.5t-125 82.5t-75 143t-26.5 183q0 168 85.5 278t223.5 135
l152 -141l141 131h53v-547q0 -86 75 -161.5t171 -75.5q180 0 180 205v579h54v-590z" />
    <glyph glyph-name="uni0E13" unicode="&#xe13;" horiz-adv-x="1236" 
d="M1112 0v135q-37 -67 -101 -107t-145 -40q-44 0 -83 12t-74 37.5t-55.5 75t-20.5 116.5v338q0 111 -70 164t-192 53q-110 0 -181 -44t-79 -97q14 -7 32 -25q35 -27 35 -53q0 -13 -26.5 -47t-26.5 -57v-412h147v-49h-200v461q0 24 14 44t27.5 35.5t13.5 26.5q0 12 -37 41
l-35 23q12 90 103.5 146.5t214.5 56.5q87 0 155 -24t113 -82.5t45 -145.5v-342q0 -205 180 -205q94 0 170 75.5t76 161.5v547h53v-819h-53z" />
    <glyph glyph-name="uni0E14" unicode="&#xe14;" horiz-adv-x="763" 
d="M639 0v770h-248q-84 0 -153 -51.5t-106.5 -134t-37.5 -174.5q0 -129 46 -221.5t124 -127.5t170 -2v-53q-77 -18 -139.5 -6.5t-110 46.5t-79.5 90t-48 124t-16 148q0 174 101.5 292.5t256.5 118.5h293v-819h-53z" />
    <glyph glyph-name="uni0E15" unicode="&#xe15;" horiz-adv-x="768" 
d="M643 0v754l-141 -140l-166 160q-107 -25 -174.5 -121.5t-67.5 -234.5q0 -129 47 -224t126 -131t171 -4v-53q-94 -22 -170.5 1.5t-125 82.5t-75 143t-26.5 183q0 168 85.5 278t223.5 135l152 -141l141 131h53v-819h-53z" />
    <glyph glyph-name="uni0E16" unicode="&#xe16;" horiz-adv-x="759" 
d="M633 0v567q0 111 -70 164t-192 53q-110 0 -181 -44t-79 -97q14 -7 32 -25q35 -27 35 -53q0 -13 -26.5 -47t-26.5 -57v-412h106v-49h-159v461q0 24 14 44t27.5 35.5t13.5 26.5q0 12 -37 41l-35 23q12 90 103.5 146.5t214.5 56.5q87 0 155 -24t113 -82.5t45 -145.5v-582
h-53z" />
    <glyph glyph-name="uni0E17" unicode="&#xe17;" horiz-adv-x="757" 
d="M633 0v578q0 204 -201 204q-59 0 -117.5 -29.5t-99 -73t-65.5 -93.5t-25 -92v-494h-53v819h53v-188q21 35 49 67t67.5 63.5t91.5 50.5t109 19q111 0 177.5 -60t66.5 -183v-588h-53z" />
    <glyph glyph-name="uni0E18" unicode="&#xe18;" horiz-adv-x="700" 
d="M659 268q0 -66 -17.5 -115.5t-44.5 -78t-66.5 -46t-77 -23t-82.5 -5.5h-310v440h54v-391h243q52 0 91.5 8t77.5 29.5t58.5 67t20.5 112.5q0 53 -17.5 91.5t-50.5 62t-69.5 36.5t-85.5 21q-24 4 -64.5 10t-68 10.5t-63 12t-59 18t-45 26t-32 38.5t-10.5 53q0 57 42.5 101
t108.5 66t142 22q57 0 109.5 -11.5t100 -36t75.5 -69t28 -103.5h-53q0 61 -42.5 101.5t-98 54.5t-119.5 14q-97 0 -168.5 -38.5t-71.5 -104.5q0 -18 8.5 -32t26.5 -24t37 -17t49 -13t53.5 -9.5t60 -8.5t58.5 -9q45 -7 80.5 -16.5t73 -29.5t62 -47t40.5 -70t16 -97z" />
    <glyph glyph-name="uni0E19" unicode="&#xe19;" horiz-adv-x="757" 
d="M633 0v188q-38 -80 -120.5 -140t-197.5 -60q-111 0 -177 60t-66 183v588h53v-577q0 -205 201 -205q83 0 156 50t112 116t39 123v493h53v-819h-53z" />
    <glyph glyph-name="uni0E1A" unicode="&#xe1a;" horiz-adv-x="757" 
d="M686 238q0 -65 -27.5 -114.5t-73 -78.5t-98 -43t-108.5 -14t-108.5 14t-98 43t-73 78.5t-27.5 114.5v581h53v-565q0 -109 71.5 -163t182.5 -54t182.5 54t71.5 163v565h53v-581z" />
    <glyph glyph-name="uni0E1B" unicode="&#xe1b;" horiz-adv-x="757" 
d="M686 238q0 -65 -27.5 -114.5t-73 -78.5t-98 -43t-108.5 -14t-108.5 14t-98 43t-73 78.5t-27.5 114.5v581h53v-565q0 -109 71.5 -163t182.5 -54t182.5 54t71.5 163v770h53v-786z" />
    <glyph glyph-name="uni0E1C" unicode="&#xe1c;" horiz-adv-x="1009" 
d="M762 0h-53l-203 739l-203 -739h-53l-240 819h189v-49h-121l198 -692l203 741h53l203 -741l213 741h53z" />
    <glyph glyph-name="uni0E1D" unicode="&#xe1d;" horiz-adv-x="1009" 
d="M762 0h-53l-203 739l-203 -739h-53l-240 819h189v-49h-121l198 -692l203 741h53l203 -741l271 946h53z" />
    <glyph glyph-name="uni0E1E" unicode="&#xe1e;" horiz-adv-x="1009" 
d="M762 0h-53l-203 739l-203 -739h-53l-240 819h53l213 -741l203 741h53l203 -741l213 741h53z" />
    <glyph glyph-name="uni0E1F" unicode="&#xe1f;" horiz-adv-x="1009" 
d="M762 0h-53l-203 739l-203 -739h-53l-240 819h53l213 -741l203 741h53l203 -741l271 946h53z" />
    <glyph glyph-name="uni0E20" unicode="&#xe20;" horiz-adv-x="768" 
d="M643 0v567q0 111 -70 164t-192 53q-110 0 -181 -44t-79 -97q16 -8 33 -25q34 -26 34 -53q0 -13 -26.5 -47t-26.5 -57v-461h-125v49h72v412q0 24 14 44t27.5 35.5t13.5 26.5q0 12 -37 41l-34 23q12 90 103 146.5t214 56.5q86 0 154 -24t113.5 -82.5t45.5 -145.5v-582h-53z
" />
    <glyph glyph-name="uni0E21" unicode="&#xe21;" horiz-adv-x="757" 
d="M686 231q0 -123 -66.5 -183t-177.5 -60q-115 0 -197 60t-120 140v-188h-53v819h53v-493q0 -57 39 -123t112 -116t156 -50q201 0 201 205v577h53v-588z" />
    <glyph glyph-name="uni0E22" unicode="&#xe22;" horiz-adv-x="761" 
d="M406 0h-15h-57.5t-54.5 2.5t-54.5 6.5t-48.5 13t-45.5 21.5t-36 31.5t-29.5 44t-17 59t-7 76q0 105 54.5 163.5t119.5 67.5q-162 13 -162 160q0 100 87 149.5t216 24.5v-49q-109 18 -179.5 -13t-70.5 -110q0 -27 8 -48.5t18.5 -35t31 -23t36 -14.5t44 -7.5t43.5 -2.5h46
h7h6h291v303h53v-819h-284zM637 467h-291q-112 0 -182 -53.5t-70 -161.5q0 -59 18 -99.5t40 -60.5t68 -30t75 -11.5t88 -1.5h20h234v418z" />
    <glyph glyph-name="uni0E23" unicode="&#xe23;" horiz-adv-x="690" 
d="M649 248q0 -75 -26 -128.5t-72 -81.5t-98 -40t-115 -12q-62 0 -113.5 13t-98 43.5t-72 89t-23.5 140.5h53q-2 -57 12.5 -100t38.5 -68.5t59 -41.5t69.5 -21.5t74.5 -5.5q258 0 258 211q0 53 -14.5 87.5t-50.5 54.5t-63 27.5t-85 18.5q-7 1 -10 2q-17 3 -57.5 9.5t-59 10
t-52.5 11.5t-50.5 16t-40 22.5t-34.5 31.5t-19.5 41.5t-8.5 54.5q0 92 84.5 146.5t198.5 54.5q55 0 106.5 -12t97 -36.5t72.5 -68.5t27 -103h-53q0 60 -39.5 100t-93 55t-117.5 15q-93 0 -161.5 -41.5t-68.5 -111.5q0 -47 39.5 -76.5t76.5 -38.5t123 -23q23 -4 34 -6
q49 -7 81 -14.5t72 -24.5t63 -40.5t39.5 -64.5t16.5 -95z" />
    <glyph glyph-name="uni0E24" unicode="&#xe24;" horiz-adv-x="759" 
d="M633 -246v813q0 111 -70 164t-192 53q-110 0 -181 -44t-79 -97q14 -7 32 -25q35 -27 35 -53q0 -13 -26.5 -47t-26.5 -57v-412h106v-49h-159v461q0 24 14 44t27.5 35.5t13.5 26.5q0 12 -37 41l-35 23q12 90 103.5 146.5t214.5 56.5q87 0 155 -24t113 -82.5t45 -145.5v-828
h-53z" />
    <glyph glyph-name="uni0E25" unicode="&#xe25;" horiz-adv-x="763" 
d="M639 0v524q-49 -80 -330 -102q-98 -8 -156.5 -58t-58.5 -143q0 -72 33 -116t87 -56.5t103.5 -11.5t102.5 12v-49q-51 -9 -97.5 -11t-100 7.5t-92 33t-64 72.5t-25.5 119q0 103 59 163.5t168 78.5q25 5 70.5 10.5t81 10t78 15t70 25t46.5 40t19 59.5q0 74 -65 117.5
t-169 43.5q-101 0 -175.5 -43t-88.5 -127h-55q8 74 57.5 125.5t115 73t140.5 21.5q57 0 107 -11t95 -36t71 -72t26 -111v-604h-53z" />
    <glyph glyph-name="uni0E26" unicode="&#xe26;" horiz-adv-x="768" 
d="M643 -246v813q0 111 -70 164t-192 53q-110 0 -181 -44t-79 -97q16 -8 33 -25q34 -26 34 -53q0 -13 -26.5 -47t-26.5 -57v-461h-125v49h72v412q0 24 14 44t27.5 35.5t13.5 26.5q0 12 -37 41l-34 23q12 90 103 146.5t214 56.5q86 0 154 -24t113.5 -82.5t45.5 -145.5v-828
h-53z" />
    <glyph glyph-name="uni0E27" unicode="&#xe27;" horiz-adv-x="753" 
d="M713 410q0 -219 -95 -321.5t-249 -102.5q-121 0 -209 64t-119 196h57q28 -109 100 -160t171 -51q132 0 211 90.5t79 284.5q0 193 -79 283.5t-211 90.5q-99 0 -171 -51t-100 -160h-57q31 133 119.5 197t208.5 64q154 0 249 -102.5t95 -321.5z" />
    <glyph glyph-name="uni0E28" unicode="&#xe28;" horiz-adv-x="757" 
d="M633 0v567q0 109 -71.5 163t-182.5 54t-182.5 -54t-71.5 -163v-98h250v-49h-250v-420h-53v582q0 65 27.5 115.5t73 79t98 43t108.5 14.5q73 0 149 -29l19 20q22 31 24 56h60q-3 -39 -31 -72q-8 -13 -25 -27q111 -72 111 -200v-582h-53z" />
    <glyph glyph-name="uni0E29" unicode="&#xe29;" horiz-adv-x="768" 
d="M686 455v-217q0 -65 -27.5 -114.5t-73 -78.5t-98 -43t-108.5 -14t-108.5 14t-98 43t-73 78.5t-27.5 114.5v581h53v-565q0 -109 71.5 -163t182.5 -54t182.5 54t71.5 163v201h-254v106h53v-57h201v315h53v-315h62v-49h-62z" />
    <glyph glyph-name="uni0E2A" unicode="&#xe2a;" horiz-adv-x="763" 
d="M639 0v524q-49 -80 -330 -102q-98 -8 -156.5 -58t-58.5 -143q0 -72 33 -116t87 -56.5t103.5 -11.5t102.5 12v-49q-51 -9 -97.5 -11t-100 7.5t-92 33t-64 72.5t-25.5 119q0 103 59 163.5t168 78.5q25 5 70.5 10.5t81 10t78 15t70 25t46.5 40t19 59.5q0 74 -65 117.5
t-169 43.5q-101 0 -175.5 -43t-88.5 -127h-55q8 74 57.5 125.5t115 73t140.5 21.5q84 0 166 -29q35 49 37 76h59q-8 -60 -49 -101q86 -61 86 -176v-604h-53z" />
    <glyph glyph-name="uni0E2B" unicode="&#xe2b;" horiz-adv-x="757" 
d="M317 770v49h328v-49h-328zM633 0v485q0 205 -201 205q-78 0 -151.5 -50t-114.5 -116.5t-41 -122.5v-401h-53v819h53v-280q21 35 49 67t67.5 63.5t91.5 50.5t109 19q111 0 177.5 -60t66.5 -183v-496h-53z" />
    <glyph glyph-name="uni0E2C" unicode="&#xe2c;" horiz-adv-x="1009" 
d="M1055 1018q-18 -84 -72.5 -132t-138.5 -48q68 -24 95.5 -80t6.5 -123l-184 -635h-53l-203 739l-203 -739h-53l-240 819h53l213 -741l203 741h53l203 -741l164 567q20 73 -23 123.5t-120 50.5h-111v47h127q198 0 232 152h51z" />
    <glyph glyph-name="uni0E2D" unicode="&#xe2d;" horiz-adv-x="843" 
d="M803 410q0 -210 -106 -317t-275 -107q-81 0 -149 25.5t-120.5 76t-82 133t-29.5 189.5q0 71 8 102h225v-49h-178q-2 -16 -2 -53q0 -187 89.5 -281t238.5 -94t238.5 94t89.5 281t-89.5 280.5t-238.5 93.5q-207 0 -287 -170h-59q43 111 134 165.5t212 54.5
q170 0 275.5 -106t105.5 -318z" />
    <glyph glyph-name="uni0E2E" unicode="&#xe2e;" horiz-adv-x="843" 
d="M803 410q0 -210 -106 -317t-275 -107q-81 0 -149 25.5t-120.5 76t-82 133t-29.5 189.5q0 71 8 102h225v-49h-178q-2 -16 -2 -53q0 -187 89.5 -281t238.5 -94t238.5 94t89.5 281t-89.5 280.5t-238.5 93.5q-207 0 -287 -170h-59q43 111 134 165.5t212 54.5q80 0 151 -27
q29 21 39 74h60q-4 -28 -19.5 -56.5t-29.5 -40.5q180 -104 180 -374z" />
    <glyph glyph-name="uni0E2F" unicode="&#xe2f;" horiz-adv-x="681" 
d="M559 0v717q-14 -84 -97.5 -152.5t-213.5 -68.5q-49 0 -94.5 17.5t-79 58.5t-33.5 98q0 43 20 75.5t52 49.5t69.5 25t73 5.5t63.5 -12.5v-51q-27 16 -66 18t-74.5 -9t-61 -38t-25.5 -65q0 -57 45 -91t109 -34q135 0 211.5 78.5t95.5 197.5h57v-819h-51z" />
    <glyph glyph-name="uni0E30" unicode="&#xe30;" horiz-adv-x="327" 
d="M287 608h-236v109h55v-60h181v-49zM287 102h-236v109h55v-59h181v-50z" />
    <glyph glyph-name="uni0E31" unicode="&#xe31;" 
d="M150 922h-484v108h55v-59h429v-49z" />
    <glyph glyph-name="uni0E32" unicode="&#xe32;" horiz-adv-x="378" 
d="M307 0h-53v629q0 89 -64 121.5t-170 19.5v49q45 10 95 3.5t93 -23t71 -56t28 -94.5v-649z" />
    <glyph glyph-name="uni0E33" unicode="&#xe33;" horiz-adv-x="378" 
d="M-14 1008q0 -37 -24.5 -61.5t-61.5 -24.5t-61.5 24.5t-24.5 61.5t24.5 61.5t61.5 24.5t61.5 -24.5t24.5 -61.5zM307 0h-53v629q0 89 -64 121.5t-170 19.5v49q45 10 95 3.5t93 -23t71 -56t28 -94.5v-649zM-51 1008q0 20 -14.5 34.5t-34.5 14.5t-35 -14.5t-15 -34.5t15 -35
t35 -15t34.5 15t14.5 35z" />
    <glyph glyph-name="uni0E34" unicode="&#xe34;" 
d="M-72 922h-583v49h583v-49z" />
    <glyph glyph-name="uni0E35" unicode="&#xe35;" 
d="M-72 922h-583v49h530v104h53v-153z" />
    <glyph glyph-name="uni0E36" unicode="&#xe36;" 
d="M-14 1004q0 -34 -25 -58t-59 -24h-557v49h477q-6 15 -6 33q0 34 25.5 57.5t60.5 23.5t59.5 -23.5t24.5 -57.5zM-55 1004q0 19 -12.5 31t-32.5 12q-19 0 -31 -12t-12 -31q0 -20 12 -33t31 -13q20 0 32.5 13t12.5 33z" />
    <glyph glyph-name="uni0E37" unicode="&#xe37;" 
d="M-72 922h-583v49h415v104h54v-104h61v104h53v-153z" />
    <glyph glyph-name="uni0E38" unicode="&#xe38;" 
d="M-72 -297h-53v166h-61v49h114v-215z" />
    <glyph glyph-name="uni0E39" unicode="&#xe39;" 
d="M-72 -193q0 -56 -39.5 -85t-111.5 -29q-73 0 -112.5 29t-39.5 85v62h-41v49h94v-104q0 -74 99 -74q98 0 98 74v104h53v-111z" />
    <glyph glyph-name="uni0E3A" unicode="&#xe3a;" 
d="M-45 -135q0 -22 -15.5 -37.5t-37.5 -15.5t-38 15.5t-16 37.5t16 37.5t38 15.5t37.5 -15.5t15.5 -37.5z" />
    <glyph glyph-name="uni0E3F" unicode="&#xe3f;" horiz-adv-x="835" 
d="M793 270q0 -129 -90 -199.5t-242 -70.5h-37v-141h-43v141h-297v965h297v131h43v-131h37q82 0 142 -21t93 -57.5t48.5 -79t15.5 -92.5q0 -79 -50 -138t-132 -69v-2q10 1 33 -4t54.5 -21.5t59.5 -41.5t48 -69.5t20 -99.5zM702 725q0 97 -68 142.5t-173 45.5h-37v-387h37
q117 0 179 54t62 145zM381 526v387h-238v-387h238zM735 270q0 59 -24.5 101.5t-66.5 64t-86.5 30.5t-96.5 9h-37v-424h37q128 0 201 56.5t73 162.5zM381 51v424h-238v-424h238z" />
    <glyph glyph-name="uni0E40" unicode="&#xe40;" horiz-adv-x="258" 
d="M156 0h-54v819h54v-819z" />
    <glyph glyph-name="uni0E41" unicode="&#xe41;" horiz-adv-x="454" 
d="M352 0h-53v819h53v-819zM156 0h-54v819h54v-819z" />
    <glyph glyph-name="uni0E42" unicode="&#xe42;" horiz-adv-x="286" 
d="M412 1221h-222q-26 0 -41.5 -1t-33 -5t-25.5 -13t-8 -24q0 -18 14.5 -34t32.5 -27.5t32.5 -37.5t14.5 -63v-1016h-53v999q0 31 -9.5 52t-23.5 33t-28 23.5t-23.5 30t-9.5 44.5q0 40 36 64t105 24h242v-49z" />
    <glyph glyph-name="uni0E43" unicode="&#xe43;" horiz-adv-x="286" 
d="M272 1135q0 -31 -15 -55t-33 -37.5t-33 -39.5t-15 -59v-944h-53v948q0 32 9.5 57t23.5 39.5t28 27.5t23.5 28.5t9.5 34.5q0 40 -32 63t-95 23q-73 0 -109 -38t-28 -89h-53q-9 74 45 125t145 51q88 0 135 -35t47 -100z" />
    <glyph glyph-name="uni0E44" unicode="&#xe44;" horiz-adv-x="286" 
d="M233 1145q1 -29 -28 -65t-29 -68v-1012h-53v1020q0 23 9.5 42.5t21 30t20.5 22.5t8 22q-3 37 -69 37h-35l-84 -54l-133 74l37 33l96 -56l82 50h39q116 0 118 -76z" />
    <glyph glyph-name="uni0E45" unicode="&#xe45;" horiz-adv-x="378" 
d="M307 -246h-53v875q0 89 -64 121.5t-170 19.5v49q45 10 95 3.5t93 -23t71 -56t28 -94.5v-895z" />
    <glyph glyph-name="uni0E46" unicode="&#xe46;" horiz-adv-x="686" 
d="M614 -246h-53v1002l-145 -158l-160 168q-65 -2 -112.5 -40.5t-47.5 -96.5q0 -70 50 -102.5t104 -26.5v-51q-91 0 -150 45t-59 135q0 80 66.5 135t166.5 55l142 -147l141 147h57v-1065z" />
    <glyph glyph-name="uni0E47" unicode="&#xe47;" 
d="M-70 1092h-368q-64 0 -99.5 -19.5t-35.5 -52.5q0 -14 5.5 -26t11.5 -18l5 -5h102l173 71l174 -71v-49l-174 73l-166 -73h-131q-56 33 -56 98q0 50 47 85.5t131 35.5h381v-49z" />
    <glyph glyph-name="uni0E48" unicode="&#xe48;" 
d="M-72 1137h-53v123h53v-123z" />
    <glyph glyph-name="uni0E49" unicode="&#xe49;" 
d="M47 1137h-287v45q0 20 -7.5 29.5t-26.5 9.5h-31v45h37q37 0 57.5 -15t20.5 -43v-24h237v-47z" />
    <glyph glyph-name="uni0E4A" unicode="&#xe4a;" 
d="M172 1137h-135v51q0 32 -16.5 50.5t-47.5 18.5h-8l-90 -69l-92 69h-6q-31 0 -47.5 -18.5t-16.5 -50.5v-4h74v-47h-121v59q0 50 33 78.5t84 28.5h6l86 -62l84 62h8q51 0 85 -28.5t34 -78.5v-12h86v-47z" />
    <glyph glyph-name="uni0E4B" unicode="&#xe4b;" 
d="M6 1214h-78v-77h-53v77h-78v39h78v78h53v-78h78v-39z" />
    <glyph glyph-name="uni0E4C" unicode="&#xe4c;" 
d="M-14 1145h-80q-32 0 -50 -14.5t-18 -40.5v-17h-55v23q0 50 27 74t71 24h105v-49z" />
    <glyph glyph-name="uni0E4D" unicode="&#xe4d;" 
d="M-14 1008q0 -37 -24.5 -61.5t-61.5 -24.5t-61.5 24.5t-24.5 61.5t24.5 61.5t61.5 24.5t61.5 -24.5t24.5 -61.5zM-51 1008q0 20 -14.5 34.5t-34.5 14.5t-35 -14.5t-15 -34.5t15 -35t35 -15t34.5 15t14.5 35z" />
    <glyph glyph-name="uni0E4E" unicode="&#xe4e;" 
d="M68 1358q-64 6 -132 -4.5t-117.5 -39t-49.5 -69.5q0 -38 38 -54.5t82 -14.5v-46q-56 1 -114 -11.5t-100.5 -42t-36.5 -68.5q3 -20 25.5 -31.5t49.5 -11.5q57 0 109 26l22 -39q-86 -38 -157 -30q-46 6 -74.5 30.5t-30.5 57.5q-1 34 21 64t55 46q62 32 115 35v6
q-62 22 -62 86q0 34 32 69.5t81 55.5q51 22 123.5 28.5t120.5 4.5v-47z" />
    <glyph glyph-name="uni0E4F" unicode="&#xe4f;" horiz-adv-x="962" 
d="M901 410q0 -173 -123.5 -296.5t-296.5 -123.5t-296.5 123.5t-123.5 296.5t123.5 296t296.5 123t296.5 -123t123.5 -296zM840 410q0 148 -105.5 253t-253.5 105t-253 -105t-105 -253t105 -253.5t253 -105.5t253.5 105.5t105.5 253.5zM737 410q0 -106 -75 -181t-181 -75
t-181 75t-75 181t75 181t181 75t181 -75t75 -181z" />
    <glyph glyph-name="uni0E50" unicode="&#xe50;" horiz-adv-x="712" 
d="M672 307q0 -132 -92.5 -225.5t-223.5 -93.5q-130 0 -222.5 93.5t-92.5 225.5t92.5 226t222.5 94t223 -94t93 -226zM621 307q0 112 -78.5 191.5t-188.5 79.5t-188 -79.5t-78 -191.5t78 -191t188 -79t188.5 79t78.5 191z" />
    <glyph glyph-name="uni0E51" unicode="&#xe51;" horiz-adv-x="761" 
d="M721 313q0 -78 -35 -149t-91 -121t-123 -83.5t-134 -43.5l-25 47q86 12 166 58t134.5 124t54.5 168q0 116 -85 190.5t-208 74.5q-113 0 -197 -71t-84 -177q0 -77 50 -134t126 -57q32 0 70 11q-98 34 -98 124q0 54 37.5 93t91.5 39t91.5 -39t37.5 -93q0 -81 -67 -135.5
t-163 -54.5q-101 0 -165 71.5t-64 174.5q0 131 100 214t232 83q147 0 247.5 -86t100.5 -228zM453 274q0 34 -24 58t-58 24t-58 -24t-24 -58t24 -57.5t58 -23.5t58 23.5t24 57.5z" />
    <glyph glyph-name="uni0E52" unicode="&#xe52;" horiz-adv-x="1052" 
d="M981 172q0 -74 -45.5 -123t-116.5 -49h-565q-71 0 -116.5 49t-45.5 123v518q0 49 -27.5 74.5t-72.5 28.5l22 45q58 -6 94.5 -39t36.5 -90v-525q0 -56 30.5 -95.5t84.5 -39.5h553q54 0 84.5 39.5t30.5 95.5v252q0 66 -34.5 101.5t-100.5 35.5q-49 0 -89 -33t-40 -81v-303
h-54v305q0 51 -44.5 81.5t-102.5 30.5q-69 0 -114.5 -36t-45.5 -103v-78q25 21 62 21q49 0 82.5 -33.5t33.5 -83.5q0 -49 -33 -82t-83 -33q-48 0 -81.5 33t-33.5 82v174q0 90 61.5 139.5t151.5 49.5q110 0 176 -82q55 82 160 82q83 0 132.5 -46.5t49.5 -130.5v-274zM434 260
q0 28 -20 49t-49 21q-28 0 -48 -21t-20 -49q0 -29 20 -49.5t48 -20.5q29 0 49 20.5t20 49.5z" />
    <glyph glyph-name="uni0E53" unicode="&#xe53;" horiz-adv-x="915" 
d="M844 0h-53v422q0 73 -39.5 112t-100.5 39q-60 0 -102.5 -36.5t-42.5 -92.5v-444h-53v449q0 60 -48.5 92t-109.5 32q-74 0 -122 -42.5t-48 -110.5v-193q31 21 76 21q54 0 91.5 -37.5t37.5 -91.5q0 -55 -37.5 -92t-91.5 -37t-91.5 37t-37.5 92v299q0 97 65.5 151t157.5 54
q64 0 113.5 -28.5t72.5 -72.5q21 42 68 71.5t102 29.5q84 0 138.5 -51.5t54.5 -139.5v-432zM283 119q0 34 -24 58t-58 24t-58 -24t-24 -58q0 -35 24 -59.5t58 -24.5t58 24.5t24 59.5z" />
    <glyph glyph-name="uni0E54" unicode="&#xe54;" horiz-adv-x="823" 
d="M823 860q1 -69 -27.5 -137.5t-83.5 -115t-120 -46.5q-40 0 -108.5 4t-125.5 4q-113 0 -190 -75.5t-74 -194.5q3 -120 79.5 -190t178.5 -70q53 0 116.5 16t88.5 15l2 2q-57 15 -111.5 67.5t-54.5 126.5q0 58 38.5 97.5t92.5 39.5t91.5 -38t37.5 -93q0 -51 -36 -88.5
t-87 -40.5q17 -20 69.5 -39.5t86.5 -25.5q2 0 20 -4t23.5 -5t21 -5t23.5 -7.5t19 -9.5t18 -12l-33 -43q-64 37 -164 37q-35 0 -116.5 -19.5t-153.5 -19.5q-122 0 -211 81.5t-92 227.5q-3 140 90 232t227 92q62 0 127 -4.5t107 -4.5q71 0 123.5 82t54.5 164h53zM606 272
q0 34 -24 59t-58 25t-58 -25t-24 -59t24 -58t58 -24t58 24t24 58z" />
    <glyph glyph-name="uni0E55" unicode="&#xe55;" horiz-adv-x="823" 
d="M823 860q1 -69 -27.5 -137.5t-83.5 -115t-120 -46.5q-40 0 -108.5 4t-125.5 4q-113 0 -190 -75.5t-74 -194.5q3 -120 79.5 -190t178.5 -70q53 0 116.5 16t88.5 15l2 2q-57 15 -111.5 67.5t-54.5 126.5q0 58 38.5 97.5t92.5 39.5t91.5 -38t37.5 -93q0 -51 -36 -88.5
t-87 -40.5q17 -20 69.5 -39.5t86.5 -25.5q2 0 20 -4t23.5 -5t21 -5t23.5 -7.5t19 -9.5t18 -12l-33 -43q-64 37 -164 37q-35 0 -116.5 -19.5t-153.5 -19.5q-122 0 -211 81.5t-92 227.5q-3 133 80.5 223t208.5 99q-33 29 -33 77q0 56 39 93.5t100 37.5t100 -37t39 -94
q0 -53 -36 -82q16 -2 53 -2q71 0 123.5 82t54.5 164h53zM522 698q0 34 -25.5 58t-60.5 24t-60.5 -24t-25.5 -58t25.5 -57t60.5 -23t60.5 23t25.5 57zM606 272q0 34 -24 59t-58 25t-58 -25t-24 -59t24 -58t58 -24t58 24t24 58z" />
    <glyph glyph-name="uni0E56" unicode="&#xe56;" horiz-adv-x="770" 
d="M729 311q0 -141 -101 -233t-249 -92q-133 0 -221 72t-88 167q0 58 38 95.5t93 37.5q54 0 91.5 -38t37.5 -93q0 -51 -35.5 -87t-93.5 -40q70 -61 178 -61q124 0 210.5 76.5t86.5 195.5q0 112 -83 185t-198 73q-87 0 -151.5 -35.5t-89.5 -80.5h-52q-14 104 -65 196.5
t-123 159.5l45 33q76 -65 124 -152.5t58 -165.5q39 44 109 72.5t145 28.5q140 0 237 -88.5t97 -225.5zM283 227q0 35 -24 59.5t-58 24.5t-58 -24.5t-24 -59.5q0 -34 24 -58t58 -24t58 24t24 58z" />
    <glyph glyph-name="uni0E57" unicode="&#xe57;" horiz-adv-x="1122" 
d="M1159 811q-29 -23 -54.5 -63t-33.5 -89q-12 -52 -1 -156.5t7 -156.5q-12 -141 -76 -232.5t-159 -113.5h-51v422q0 73 -39.5 112t-100.5 39q-60 0 -102.5 -36.5t-42.5 -92.5v-444h-53v449q0 60 -48.5 92t-109.5 32q-74 0 -122 -42.5t-48 -110.5v-193q31 21 76 21
q54 0 91.5 -37.5t37.5 -91.5q0 -55 -37.5 -92t-91.5 -37t-91.5 37t-37.5 92v299q0 97 65.5 151t157.5 54q64 0 113.5 -28.5t72.5 -72.5q21 42 68 71.5t102 29.5q84 0 138.5 -51.5t54.5 -139.5v-379q63 13 117.5 91t62.5 200q5 58 -6.5 164t0.5 160q9 59 38.5 104.5
t61.5 71.5zM283 119q0 34 -24 58t-58 24t-58 -24t-24 -58q0 -35 24 -59.5t58 -24.5t58 24.5t24 59.5z" />
    <glyph glyph-name="uni0E58" unicode="&#xe58;" horiz-adv-x="839" 
d="M840 844q-4 -49 -18 -99.5t-38 -98.5t-64 -78.5t-89 -30.5t-129.5 16t-136.5 16q-122 0 -196.5 -65.5t-74.5 -179.5q0 -101 54.5 -176.5t119.5 -94.5l117 164q4 -7 12 -19t31.5 -42t46.5 -52.5t52.5 -41.5t54.5 -19q29 0 63 31.5t53 58.5q-51 -8 -95 24.5t-44 92.5
q0 47 34 82t81 35q49 0 85 -33.5t36 -85.5q0 -90 -76.5 -175t-147.5 -85q-24 0 -52.5 14.5t-52 35t-43.5 41.5t-31 35l-11 15l-94 -141q-110 31 -178 117.5t-68 218.5q0 139 89 219t237 80q36 0 126 -16.5t132 -16.5q37 0 67 24.5t49 64t30 81.5t15 84h54zM741 250
q0 28 -19.5 47.5t-47.5 19.5t-48 -19.5t-20 -47.5t20 -48t48 -20t47.5 20t19.5 48z" />
    <glyph glyph-name="uni0E59" unicode="&#xe59;" horiz-adv-x="933" 
d="M963 848q14 -105 -14.5 -213t-74.5 -170l-38 16q-2 31 -31 61.5t-74 30.5q-49 0 -73.5 -38t-22.5 -86q57 -89 92.5 -207.5t48.5 -237.5l-53 -8q-10 83 -26.5 157t-47 153.5t-70 136t-100 93.5t-133.5 37q-106 0 -179 -76.5t-73 -189.5q0 -116 66 -193t151 -77
q-63 38 -63 113q0 54 37.5 91.5t91.5 37.5t91.5 -37.5t37.5 -91.5q0 -72 -58 -117t-131 -45q-90 0 -154 47.5t-93 119.5t-29 158q0 133 88.5 223.5t216.5 90.5q144 0 246 -117q11 51 45.5 83.5t85.5 33.5q54 1 89 -22t50 -54q28 51 42 134t5 163h54zM459 150q0 34 -24 57.5
t-58 23.5t-58 -23.5t-24 -57.5t24 -59t58 -25t58 25t24 59z" />
    <glyph glyph-name="uni0E5A" unicode="&#xe5a;" horiz-adv-x="815" 
d="M743 0h-51v819h51v-819zM610 0h-51v717q-14 -83 -98 -152t-213 -69q-80 0 -143.5 45t-63.5 129q0 42 20 74t52 50t69.5 26.5t73.5 6t63 -13.5v-51q-26 16 -65 18.5t-75 -8t-61.5 -38t-25.5 -66.5q0 -58 44.5 -91.5t109.5 -33.5q136 0 211 78t96 198h57v-819z" />
    <glyph glyph-name="uni0E5B" unicode="&#xe5b;" horiz-adv-x="1392" 
d="M1360 434q0 -2 -2 -3.5t-5.5 -2.5t-7 -1.5t-8.5 -1.5t-8 -1l-123 -10q-1 -3 -4.5 -15.5t-5.5 -18t-6 -13.5t-8.5 -11.5t-10.5 -3.5q-11 0 -22.5 21.5t-24 53t-20.5 44.5q-1 -5 -9.5 -48.5t-18.5 -69t-25 -25.5q-13 0 -26.5 27t-30.5 68t-31 60q-4 -15 -11.5 -66.5
t-17 -81.5t-25.5 -30t-30 36t-30.5 88.5t-33.5 76.5q-8 -85 -26.5 -156t-47.5 -71q-7 0 -11 4.5t-5 9.5t-4 18q-30 154 -62 215l-2 -18q-7 -85 -43.5 -175t-81.5 -143q-99 -110 -217 -110q-113 0 -183.5 92.5t-70.5 241.5q0 143 66 240.5t166 97.5q82 0 137 -69.5t55 -170.5
q0 -78 -30.5 -127t-83.5 -49q-41 0 -70 34t-29 81q0 46 29 81t68 35q36 0 55 -16q-9 69 -45.5 111.5t-83.5 42.5q-75 0 -128.5 -83.5t-53.5 -215.5q0 -130 60.5 -205.5t154.5 -75.5q106 0 186.5 106.5t103.5 286.5q4 29 6 39.5t8.5 18.5t18.5 8q27 0 54.5 -72.5t42.5 -165.5
l8 -2q10 36 15.5 95t12.5 91.5t25 32.5q23 0 52 -63t44 -140h8q3 15 7.5 62.5t11 74.5t18.5 27q24 0 44.5 -38.5t56.5 -129.5q8 20 15 58t15 59t23 21q13 0 24 -14.5t26.5 -50.5t19.5 -44q1 5 3.5 14.5t3.5 13.5t3.5 11t4 10l4 8t5 7t5.5 4.5t7 3t9 0.5l110 -15
q3 -1 12.5 -1.5t14 -1.5t4.5 -5zM426 453q0 29 -17 49t-40 20q-21 0 -38.5 -20.5t-17.5 -48.5t17.5 -49t38.5 -21q23 0 40 20.5t17 49.5z" />
    <glyph glyph-name="zerowidthnonjoiner" unicode="&#x200c;" 
 />
    <glyph glyph-name="zerowidthjoiner" unicode="&#x200d;" 
 />
    <glyph glyph-name="endash" unicode="&#x2013;" horiz-adv-x="747" 
d="M686 315h-625v52h625v-52z" />
    <glyph glyph-name="emdash" unicode="&#x2014;" horiz-adv-x="1495" 
d="M1434 315h-1373v52h1373v-52z" />
    <glyph glyph-name="quoteleft" unicode="&#x2018;" horiz-adv-x="321" 
d="M240 821q0 -29 -21.5 -50t-50.5 -21q-40 0 -63 27t-23 69q0 47 28.5 98.5t84.5 85.5l32 -22q-35 -22 -63 -61.5t-31 -67.5q18 8 41 8q25 0 45.5 -19.5t20.5 -46.5z" />
    <glyph glyph-name="quoteright" unicode="&#x2019;" horiz-adv-x="321" 
d="M240 934q0 -47 -28.5 -98.5t-84.5 -85.5l-33 22q35 22 63 61.5t31 67.5q-18 -8 -41 -8q-25 0 -45 19t-20 46q0 29 21.5 50.5t50.5 21.5q40 0 63 -27t23 -69z" />
    <glyph glyph-name="quotedblleft" unicode="&#x201c;" horiz-adv-x="548" 
d="M467 821q0 -29 -21.5 -50t-50.5 -21q-40 0 -63 27t-23 69q0 47 28.5 98.5t84.5 85.5l33 -22q-35 -22 -63.5 -62t-31.5 -67q18 8 41 8q25 0 45.5 -19.5t20.5 -46.5zM240 821q0 -29 -21.5 -50t-50.5 -21q-40 0 -63 27t-23 69q0 47 28.5 98.5t84.5 85.5l32 -22
q-35 -22 -63 -61.5t-31 -67.5q18 8 41 8q25 0 45.5 -19.5t20.5 -46.5z" />
    <glyph glyph-name="quotedblright" unicode="&#x201d;" horiz-adv-x="548" 
d="M467 934q0 -47 -28.5 -98.5t-84.5 -85.5l-32 22q35 22 63 61.5t31 67.5q-18 -8 -41 -8q-26 0 -46 19t-20 46q0 29 21.5 50.5t50.5 21.5q40 0 63 -27t23 -69zM240 934q0 -47 -28.5 -98.5t-84.5 -85.5l-33 22q35 22 63 61.5t31 67.5q-18 -8 -41 -8q-25 0 -45 19t-20 46
q0 29 21.5 50.5t50.5 21.5q40 0 63 -27t23 -69z" />
    <glyph glyph-name="bullet" unicode="&#x2022;" horiz-adv-x="737" 
d="M676 410q0 -128 -90 -218t-217 -90t-217.5 90t-90.5 218q0 127 90 217t218 90q127 0 217 -89.5t90 -217.5z" />
    <glyph glyph-name="ellipsis" unicode="&#x2026;" horiz-adv-x="866" 
d="M784 51q0 -26 -18.5 -43.5t-44.5 -17.5t-44 17.5t-18 43.5t18 45t44 19t44.5 -19t18.5 -45zM496 51q0 -26 -18.5 -43.5t-45.5 -17.5q-26 0 -43.5 17.5t-17.5 43.5q0 27 17.5 45.5t43.5 18.5t45 -19t19 -45zM207 51q0 -26 -18.5 -43.5t-45.5 -17.5q-26 0 -43.5 17.5
t-17.5 43.5q0 27 17.5 45.5t43.5 18.5t45 -19t19 -45z" />
    <glyph glyph-name="trademark" unicode="&#x2122;" horiz-adv-x="1196" 
d="M1094 416h-54v450l-190 -450h-49l-189 448v-448h-55v549h66l204 -476l201 476h66v-549zM475 918h-192v-502h-54v502h-188v47h434v-47z" />
    <glyph glyph-name="thothannobasethai" unicode="&#xf700;" horiz-adv-x="679" 
d="M639 469q0 -236 -108.5 -358.5t-280.5 -114.5l-125 502l-29 34h74l121 -487q133 8 214 120.5t81 303.5q0 147 -76 231t-201 84q-100 0 -171.5 -46.5t-84.5 -123.5h-53q8 92 94 156t215 64q90 0 152 -33q39 27 45 80h59q-1 -31 -19.5 -61t-39.5 -46q133 -93 133 -305z" />
    <glyph glyph-name="saraileftthai" unicode="&#xf701;" 
d="M-227 922h-564v49h564v-49z" />
    <glyph glyph-name="saraiileftthai" unicode="&#xf702;" 
d="M-227 922h-564v49h510v104h54v-153z" />
    <glyph glyph-name="saraueleftthai" unicode="&#xf703;" 
d="M-168 1004q0 -34 -25 -58t-59 -24h-539v49h459q-6 15 -6 33q0 34 25.5 57.5t60.5 23.5t59.5 -23.5t24.5 -57.5zM-209 1004q0 19 -12.5 31t-32.5 12q-19 0 -31 -12t-12 -31q0 -20 12 -33t31 -13q20 0 32.5 13t12.5 33z" />
    <glyph glyph-name="saraueeleftthai" unicode="&#xf704;" 
d="M-227 922h-564v49h396v104h53v-104h61v104h54v-153z" />
    <glyph glyph-name="maieklowleftthai" unicode="&#xf705;" 
d="M-272 922h-54v153h54v-153z" />
    <glyph glyph-name="maitholowleftthai" unicode="&#xf706;" 
d="M0 922h-354v47q0 22 -8.5 32.5t-30.5 10.5h-33v51h33q92 0 92 -72v-20h301v-49z" />
    <glyph glyph-name="maitrilowleftthai" unicode="&#xf707;" 
d="M0 922h-272v57q0 36 -18.5 56t-53.5 20h-8l-101 -76l-102 76h-6q-72 0 -72 -76v-8h82v-49h-135v65q0 55 36.5 86t94.5 31h6l96 -70l95 70h8q58 0 94.5 -31t36.5 -86v-16h219v-49z" />
    <glyph glyph-name="maichattawalowleftthai" unicode="&#xf708;" 
d="M-225 1020h-99v-98h-53v98h-98v45h98v98h53v-98h99v-45z" />
    <glyph glyph-name="thanthakhatlowleftthai" unicode="&#xf709;" 
d="M-186 997h-80q-32 0 -50 -14.5t-18 -40.5v-20h-57v26q0 50 27 74.5t71 24.5h107v-50z" />
    <glyph glyph-name="maieklowrightthai" unicode="&#xf70a;" 
d="M-72 922h-53v153h53v-153z" />
    <glyph glyph-name="maitholowrightthai" unicode="&#xf70b;" 
d="M47 922h-317v47q0 22 -8.5 32.5t-30.5 10.5h-33v51h33q92 0 92 -72v-20h264v-49z" />
    <glyph glyph-name="maitrilowrightthai" unicode="&#xf70c;" 
d="M-10 922h-170v57q0 36 -18.5 56t-53.5 20h-8l-100 -76l-103 76h-6q-72 0 -72 -76v-8h82v-49h-135v65q0 55 36.5 86t94.5 31h6l97 -70l94 70h8q58 0 94.5 -31t36.5 -86v-16h117v-49z" />
    <glyph glyph-name="maichattawalowrightthai" unicode="&#xf70d;" 
d="M-72 1020h-98v-98h-53v98h-99v45h99v98h53v-98h98v-45z" />
    <glyph glyph-name="thanthakhatlowrightthai" unicode="&#xf70e;" 
d="M0 997h-80q-67 0 -67 -55v-20h-58v26q0 50 27.5 74.5t71.5 24.5h106v-50z" />
    <glyph glyph-name="yoyingnobasethai" unicode="&#xf70f;" horiz-adv-x="1236" 
d="M1165 217q0 -64 -24.5 -111t-65.5 -71.5t-84.5 -35.5t-91.5 -11q-47 0 -90.5 11t-85 35.5t-66 71.5t-24.5 111v350q0 111 -70.5 164t-191.5 53q-109 0 -181 -44.5t-79 -96.5q8 -4 19 -11.5t29.5 -28.5t18.5 -38q0 -14 -26.5 -47t-26.5 -57v-412h147v-49h-200v461
q0 24 14 44t27.5 35.5t13.5 26.5q0 10 -18 26t-36 27l-18 11q10 90 102.5 146.5t215.5 56.5q85 0 153.5 -24.5t114 -83t45.5 -144.5v-349q0 -106 59.5 -151t153.5 -45t153.5 45t59.5 151v586h53v-602z" />
    <glyph glyph-name="maihanakatleftthai" unicode="&#xf710;" 
d="M20 922h-524v108h55v-59h469v-49z" />
    <glyph glyph-name="nikhahitleftthai" unicode="&#xf711;" 
d="M-166 1008q0 -37 -24.5 -61.5t-61.5 -24.5t-61.5 24.5t-24.5 61.5t24.5 61.5t61.5 24.5t61.5 -24.5t24.5 -61.5zM-203 1008q0 20 -14.5 34.5t-34.5 14.5t-34.5 -14.5t-14.5 -34.5t14.5 -35t34.5 -15t34.5 15t14.5 35z" />
    <glyph glyph-name="maitaikhuleftthai" unicode="&#xf712;" 
d="M-172 1092h-369q-64 0 -99.5 -19.5t-35.5 -52.5q0 -14 6 -26t12 -18l5 -5h102l172 71l174 -71v-49l-174 73l-166 -73h-131q-55 33 -55 98q0 50 47 85.5t131 35.5h381v-49z" />
    <glyph glyph-name="maiekupperleftthai" unicode="&#xf713;" 
d="M-227 1137h-54v123h54v-123z" />
    <glyph glyph-name="maithoupperleftthai" unicode="&#xf714;" 
d="M-102 1137h-287v45q0 39 -35 39h-31v45h37q37 0 57.5 -15t20.5 -43v-24h238v-47z" />
    <glyph glyph-name="maitriupperleftthai" unicode="&#xf715;" 
d="M2 1137h-135v51q0 32 -16.5 50.5t-47.5 18.5h-8l-90 -69l-92 69h-6q-31 0 -47.5 -18.5t-16.5 -50.5v-4h74v-47h-121v59q0 50 33 78.5t84 28.5h6l86 -62l84 62h8q51 0 85 -28.5t34 -78.5v-12h86v-47z" />
    <glyph glyph-name="maichattawaupperleftthai" unicode="&#xf716;" 
d="M-150 1214h-77v-77h-54v77h-77v39h77v78h54v-78h77v-39z" />
    <glyph glyph-name="thanthakhatupperleftthai" unicode="&#xf717;" 
d="M-166 1145h-80q-67 0 -67 -55v-17h-56v23q0 50 27.5 74t71.5 24h104v-49z" />
    <glyph glyph-name="saraulowthai" unicode="&#xf718;" 
d="M-72 -563h-53v166h-61v49h114v-215z" />
    <glyph glyph-name="sarauulowthai" unicode="&#xf719;" 
d="M-72 -459q0 -56 -39.5 -85t-111.5 -29q-73 0 -112.5 29t-39.5 85v62h-41v49h94v-105q0 -73 99 -73q98 0 98 73v105h53v-111z" />
    <glyph glyph-name="phinthulowthai" unicode="&#xf71a;" 
d="M-72 -401q0 -22 -15.5 -38t-37.5 -16t-37.5 16t-15.5 38t15.5 37.5t37.5 15.5t37.5 -15.5t15.5 -37.5z" />
    <glyph glyph-name="lochula.short" unicode="&#xf71d;" horiz-adv-x="1007" 
 />
    <glyph glyph-name="fongmanfunnuthai" unicode="&#xf880;" 
 />
    <glyph glyph-name="CR" horiz-adv-x="471" 
 />
    <glyph glyph-name="uni0E33_1" horiz-adv-x="378" 
d="M307 0h-53v629q0 89 -64 121.5t-170 19.5v49q45 10 95 3.5t93 -23t71 -56t28 -94.5v-649zM-166 1008q0 -37 -24.5 -61.5t-61.5 -24.5t-61.5 24.5t-24.5 61.5t24.5 61.5t61.5 24.5t61.5 -24.5t24.5 -61.5zM-203 1008q0 20 -14.5 34.5t-34.5 14.5t-34.5 -14.5t-14.5 -34.5
t14.5 -35t34.5 -15t34.5 15t14.5 35z" />
    <glyph glyph-name="uni0E4E_1" 
d="M6 1358q-64 6 -132 -4.5t-117.5 -39t-49.5 -69.5q0 -38 38 -54.5t83 -14.5v-46q-56 1 -114.5 -11.5t-101 -42t-36.5 -68.5q3 -20 26 -31.5t50 -11.5q56 0 108 26l23 -39q-86 -38 -158 -30q-46 6 -74 30.5t-30 57.5q-1 34 21 64t55 46q62 32 114 35v6q-61 22 -61 86
q0 34 31.5 69.5t80.5 55.5q51 22 123.5 28.5t120.5 4.5v-47z" />
    <glyph glyph-name="F881" 
 />
    <glyph glyph-name="maiekrochula" 
d="M-236 938h-53v154h53v-154z" />
    <glyph glyph-name="maieksarauee_1" 
d="M-129 1137h-53v123h53v-123z" />
    <glyph glyph-name="maieksarauee_2" 
d="M-285 1137h-53v123h53v-123z" />
    <glyph glyph-name="saraisp" 
d="M-215 938h-502v49h502v-49z" />
    <glyph glyph-name="saraiisp" 
d="M-215 938h-502v49h449v105h53v-154z" />
    <glyph glyph-name="maieknonu" 
 />
    </font>
</defs>
</svg>
